<?xml version="1.0" encoding="UTF-8" standalone="no"?>
<!-- Created with Inkscape (http://www.inkscape.org/) -->

<svg
   width="52.916565mm"
   height="17.568701mm"
   viewBox="0 0 52.916564 17.568701"
   version="1.1"
   id="svg1"
   xml:space="preserve"
   inkscape:version="1.3.2 (091e20e, 2023-11-25, custom)"
   sodipodi:docname="uc3m_logo_vector.svg"
   inkscape:export-filename="uc3m_newLogo2.png"
   inkscape:export-xdpi="300"
   inkscape:export-ydpi="300"
   xmlns:inkscape="http://www.inkscape.org/namespaces/inkscape"
   xmlns:sodipodi="http://sodipodi.sourceforge.net/DTD/sodipodi-0.dtd"
   xmlns="http://www.w3.org/2000/svg"
   xmlns:svg="http://www.w3.org/2000/svg"><sodipodi:namedview
     id="namedview1"
     pagecolor="#505050"
     bordercolor="#eeeeee"
     borderopacity="1"
     inkscape:showpageshadow="0"
     inkscape:pageopacity="0"
     inkscape:pagecheckerboard="0"
     inkscape:deskcolor="#505050"
     inkscape:document-units="mm"
     inkscape:zoom="0.51213162"
     inkscape:cx="649.24716"
     inkscape:cy="354.40108"
     inkscape:window-width="1568"
     inkscape:window-height="993"
     inkscape:window-x="336"
     inkscape:window-y="0"
     inkscape:window-maximized="0"
     inkscape:current-layer="layer1"
     inkscape:export-bgcolor="#ffffffff"><sodipodi:guide
       position="-6.9288091e-06,13.17597"
       orientation="0,150.0001"
       id="guide1"
       inkscape:locked="false" /><sodipodi:guide
       position="39.687518,13.17597"
       orientation="49.800189,0"
       id="guide2"
       inkscape:locked="false" /><sodipodi:guide
       position="39.687518,-0.00032999999"
       orientation="0,-150.0001"
       id="guide3"
       inkscape:locked="false" /><sodipodi:guide
       position="-6.9288091e-06,-0.00032999999"
       orientation="-49.800189,0"
       id="guide4"
       inkscape:locked="false" /></sodipodi:namedview><defs
     id="defs1" /><g
     inkscape:label="Capa 1"
     inkscape:groupmode="layer"
     id="layer1"
     transform="translate(176.40923,159.15716)"><path
       style="fill:#03097a;stroke:none;stroke-width:0.0932603"
       d="m -168.25855,-158.58062 c -0.15652,0.0227 -0.31879,0.009 -0.47642,0.0249 -0.49509,0.0485 -0.99257,0.12986 -1.47253,0.26386 -1.95522,0.54614 -3.62812,1.75788 -4.77833,3.42997 -1.64278,2.38816 -1.86462,5.60973 -0.66014,8.22889 0.66497,1.44595 1.74861,2.69325 3.0853,3.55601 1.73839,1.12204 3.81056,1.52496 5.84684,1.24764 4.16033,-0.56658 7.4187,-4.537 7.14526,-8.73042 -0.0736,-1.12837 -0.33835,-2.20444 -0.81174,-3.23381 -1.00779,-2.19149 -3.08211,-3.89448 -5.40958,-4.50242 -0.60758,-0.1587 -1.22141,-0.25292 -1.84789,-0.27636 -0.20304,-0.008 -0.41769,-0.0377 -0.62077,-0.008 m 0.11586,0.47733 c 0.1184,-0.0437 0.17814,0.13501 0.0573,0.17077 -0.10574,0.0313 -0.1605,-0.13266 -0.0573,-0.17077 m -1.15526,1.24911 c -0.0808,0.0777 -0.38127,0.16666 -0.49086,0.14437 0.0455,-0.0369 0.11,-0.0499 0.12467,-0.1156 0.0199,-0.0891 -0.0448,-0.21776 -0.0689,-0.30311 -0.074,-0.26206 -0.17144,-0.73984 -0.54659,-0.57064 -0.32428,0.14624 -0.16543,0.47764 -0.0925,0.72944 0.0519,0.17944 0.0605,0.36109 0.28025,0.34648 -0.0503,0.0773 -0.31465,0.13941 -0.40423,0.13 0.0607,-0.0595 0.143,-0.0837 0.12307,-0.18768 -0.0473,-0.24658 -0.23561,-0.53864 -0.18901,-0.79401 0.0552,-0.30224 0.54194,-0.48717 0.77136,-0.25785 0.14476,0.14469 0.18017,0.42876 0.2372,0.61877 0.0227,0.0756 0.0403,0.20275 0.11346,0.24809 0.0409,0.0253 0.0971,0.005 0.14216,0.012 m 4.27324,-0.67852 c -0.0607,-0.0153 -0.12107,-0.0249 -0.16501,0.0301 -0.048,0.0601 -0.0596,0.15709 -0.0787,0.22978 -0.0391,0.1496 -0.0816,0.2986 -0.1232,0.44754 -0.0203,0.0725 -0.0648,0.1691 -0.0487,0.24542 0.0143,0.0673 0.0775,0.0819 0.12667,0.11547 -0.11987,0.0379 -0.32694,-0.0659 -0.44754,-0.0991 -0.12987,-0.0357 -0.26444,-0.0777 -0.37535,-0.1564 -0.29047,-0.20621 -0.23027,-0.7252 0.0433,-0.91833 0.20908,-0.14761 0.46379,-0.10187 0.69296,-0.0345 0.0815,0.024 0.35711,0.0544 0.37535,0.13996 m -0.5919,0.9095 0.25986,-0.95281 c -0.10867,-0.052 -0.22332,-0.0976 -0.34648,-0.0847 -0.35839,0.0375 -0.54684,0.52539 -0.36907,0.82096 0.0976,0.16224 0.27684,0.21655 0.45569,0.21655 m -2.49747,-0.84588 c 0.11493,-0.0193 0.14254,0.15711 0.0287,0.17839 -0.11933,0.0223 -0.14804,-0.15828 -0.0287,-0.17839 m -3.08951,0.0519 c -0.0245,0.0457 -0.0844,0.0748 -0.0911,0.13 -0.008,0.0687 0.0563,0.1453 0.0869,0.20204 0.0776,0.14378 0.15708,0.28768 0.23159,0.43309 0.0325,0.0636 0.0603,0.14885 0.12106,0.19129 0.0788,0.0549 0.15847,0.0212 0.24343,0.0107 -0.0379,0.0656 -0.21059,0.16224 -0.28873,0.15325 -0.10067,-0.012 -0.20978,-0.0808 -0.30318,-0.11867 -0.23668,-0.0959 -0.46898,-0.20293 -0.7074,-0.29447 l 0.26207,0.49085 0.12867,0.18666 0.14349,-0.0135 c -0.0407,0.0816 -0.27176,0.20304 -0.36092,0.18768 0.0328,-0.0307 0.0796,-0.0556 0.0939,-0.10107 0.0281,-0.0888 -0.0891,-0.24344 -0.13134,-0.31755 -0.118,-0.20718 -0.28609,-0.45009 -0.35242,-0.67851 l 0.0144,-0.0144 0.51972,0.2106 0.5919,0.25137 -0.25632,-0.49085 -0.14992,-0.22998 -0.1568,0.0135 c 0.0505,-0.0888 0.26179,-0.18597 0.36092,-0.20212 m 7.20388,0.41867 -0.15854,-0.008 -0.13433,0.2096 -0.24476,0.46197 -0.082,0.18766 0.0999,0.14438 -0.34648,-0.15534 -0.10107,-0.0901 0.1568,0.0195 0.13541,-0.20719 0.23099,-0.44754 0.0931,-0.21655 -0.0965,-0.14436 c 0.11427,0.0227 0.38884,0.14368 0.44754,0.24541 m 0.56304,0.28874 c 0.0689,0.0507 0.194,0.11893 0.22409,0.20218 0.0895,0.24765 -0.11587,0.5176 0.0647,0.7362 h 0.0144 c 0.0615,-0.1012 0.27261,-0.26527 0.26138,-0.38979 -0.004,-0.0464 -0.0467,-0.0812 -0.0737,-0.11546 0.11533,-0.003 0.33752,0.21088 0.40423,0.30317 l -0.0144,0.0144 -0.15874,-0.0423 -0.15886,0.17224 -0.31474,0.3898 -0.13674,0.20211 0.0761,0.14437 -0.0144,0.0144 c -0.1762,-0.10693 -0.50951,-0.32778 -0.56931,-0.53416 -0.0853,-0.29457 0.21888,-0.44576 0.45382,-0.31761 l 0.0251,-0.51972 -0.0829,-0.25985 m -9.15282,0.0721 -0.0737,0.14436 0.12293,0.20212 0.29127,0.40423 0.16474,0.18921 0.15882,-0.0304 c -0.0559,0.12333 -0.2865,0.25257 -0.40423,0.3176 l 0.0688,-0.17324 -0.12853,-0.20212 -0.28078,-0.38979 -0.16474,-0.19101 -0.15882,0.0323 c 0.0501,-0.11507 0.28451,-0.26832 0.40423,-0.30318 m 4.3743,0.004 c 0.18819,-0.024 0.38964,-0.003 0.57747,0.009 0.38663,0.0252 0.76085,0.0701 1.14049,0.15372 1.95877,0.43152 3.6228,1.83049 4.45677,3.64398 0.37323,0.81158 0.54814,1.69683 0.58135,2.58416 0.12053,3.21913 -2.47345,6.18368 -5.65889,6.55236 -0.92464,0.10706 -1.86343,0.0497 -2.7574,-0.22931 -0.76424,-0.23853 -1.4764,-0.61043 -2.10776,-1.10293 -0.50969,-0.39762 -0.96149,-0.8761 -1.32796,-1.40886 -1.31838,-1.91657 -1.49802,-4.39199 -0.53021,-6.49647 0.30756,-0.66879 0.75603,-1.27801 1.26715,-1.80432 0.83688,-0.86175 1.9547,-1.45636 3.11743,-1.73447 0.4127,-0.0987 0.82471,-0.11466 1.24156,-0.16769 m 4.74965,1.28112 0.28874,-0.38979 c -0.1072,-0.0647 -0.21276,-0.14897 -0.34648,-0.10413 -0.27156,0.0911 -0.16843,0.42809 0.0577,0.49392 m -5.11057,-0.23099 v 0.0144 c -0.31297,0.0383 -0.6444,0.1888 -0.92395,0.32858 -1.36981,0.68489 -2.21078,2.38814 -2.0625,3.90135 0.0492,0.50246 0.20513,0.98114 0.43471,1.42923 0.22765,0.44435 0.55546,0.85637 0.94927,1.16343 0.14166,0.1104 0.2919,0.2001 0.44754,0.28873 0.0544,0.0309 0.15473,0.0572 0.18928,0.11173 0.0359,0.0565 0.0133,0.17559 0.0133,0.24075 -0.54792,-0.11 -1.08228,-0.43101 -1.48697,-0.80932 -0.13657,-0.1276 -0.26453,-0.26439 -0.38919,-0.40336 -0.0329,-0.0367 -0.0887,-0.14011 -0.14584,-0.1346 -0.06,0.005 -0.12733,0.0844 -0.17237,0.12013 -0.0571,0.0455 -0.19425,0.11454 -0.21501,0.18795 -0.0144,0.0511 0.0617,0.10987 0.0911,0.14409 0.10894,0.12747 0.2388,0.23907 0.3694,0.34362 0.40115,0.32113 0.86402,0.53596 1.35704,0.6729 0.17899,0.0497 0.37667,0.10374 0.56303,0.1096 -0.0592,0.12947 -0.12227,0.24682 -0.2743,0.28186 -0.0571,0.0133 -0.1316,-0.0107 -0.18453,0.0137 -0.0381,0.0175 -0.0407,0.0859 -0.0251,0.11987 0.0272,0.0593 0.18438,0.032 0.23854,0.032 h 0.7507 3.11832 v -0.1588 c -0.22212,0 -0.43505,-0.0532 -0.49085,-0.30318 0.65215,-0.0779 1.30952,-0.36646 1.81902,-0.77669 0.1443,-0.11613 0.41827,-0.30592 0.46198,-0.49372 -0.13547,-0.0871 -0.2736,-0.27093 -0.43311,-0.30317 -0.11053,0.17197 -0.27051,0.32338 -0.41865,0.46284 -0.40404,0.38032 -0.90457,0.74328 -1.45811,0.86533 0,-0.0715 -0.0263,-0.20791 0.0133,-0.26963 0.0387,-0.0609 0.15676,-0.0973 0.21814,-0.1324 0.1361,-0.0779 0.27196,-0.17493 0.3898,-0.2783 0.37296,-0.32722 0.68235,-0.72282 0.90469,-1.1675 0.90728,-1.81457 0.1824,-4.33229 -1.66983,-5.25841 -0.27588,-0.13794 -0.60082,-0.28814 -0.90951,-0.32857 v -0.0144 c 0.73499,0 1.41197,0.24641 2.03557,0.62365 0.19643,0.1188 0.38637,0.2559 0.56303,0.40243 0.0635,0.0527 0.17816,0.1914 0.25985,0.20324 0.0471,0.007 0.0861,-0.0453 0.11547,-0.0744 0.0832,-0.0824 0.17994,-0.16276 0.24542,-0.25985 -0.27044,-0.16403 -0.51348,-0.36406 -0.79401,-0.51559 -0.56172,-0.3034 -1.18758,-0.46004 -1.81902,-0.52192 -0.25539,-0.0251 -0.52418,-0.0251 -0.77958,0 -0.1184,0.012 -0.242,0.0408 -0.36092,0.0408 -0.22485,0 -0.4527,-0.0532 -0.67852,-0.0572 -0.50129,-0.009 -1.00548,0.0687 -1.48697,0.208 -0.48422,0.14011 -0.94849,0.37692 -1.35704,0.67056 -0.0567,0.0407 -0.19381,0.1072 -0.21501,0.17719 -0.012,0.0395 0.0324,0.0745 0.0563,0.0991 0.0583,0.06 0.17372,0.22444 0.25978,0.2354 0.0687,0.009 0.18016,-0.12773 0.23099,-0.16889 0.20272,-0.16433 0.413,-0.31667 0.63521,-0.45349 0.61357,-0.37782 1.29725,-0.60915 2.02113,-0.60915 m -3.92677,0.25987 -0.33204,0.3609 0.008,-0.15766 -0.2096,-0.1068 -0.60633,-0.1975 0.27081,0.56303 0.13368,0.20277 0.1441,-0.0151 c -0.0613,0.0909 -0.15751,0.21668 -0.25986,0.25986 0.0391,-0.17742 -0.0325,-0.30294 -0.112,-0.46197 -0.0784,-0.15693 -0.15089,-0.31707 -0.22416,-0.47641 -0.0456,-0.0992 -0.11133,-0.19334 -0.12573,-0.30318 l 1.12605,0.36908 0.18768,-0.0371 m 6.04895,6.33767 v -2.88733 c 0,-0.2608 -0.0639,-0.73017 0.21654,-0.87534 0.0917,-0.0475 0.20348,-0.0341 0.30318,-0.0341 l -0.0213,-0.13748 -0.19522,-0.0213 h -0.53416 -2.49754 -0.5919 l -0.24228,0.0133 -0.032,0.14596 c 0.08,0 0.16873,-0.0107 0.24541,0.0153 0.35192,0.12133 0.27431,0.61581 0.27431,0.90857 v 2.97396 c -0.29678,-0.19914 -0.54006,-0.52856 -0.73627,-0.8229 -0.97306,-1.4596 -0.75952,-3.36677 0.37368,-4.67747 0.35583,-0.41156 0.78727,-0.73968 1.28653,-0.95676 0.16244,-0.0707 0.38247,-0.17318 0.56303,-0.16816 0.16185,0.004 0.34236,0.084 0.49084,0.14322 0.45343,0.18107 0.8436,0.4611 1.18408,0.80852 0.75982,0.77536 1.23964,1.90748 1.16822,3.00276 -0.0352,0.54013 -0.19729,1.05083 -0.44311,1.53028 -0.1855,0.36177 -0.47003,0.80883 -0.812,1.03944 m 5.12501,-5.57254 -0.14438,-0.0795 -0.23098,0.15347 -0.40423,0.31398 -0.15185,0.16068 0.0508,0.12987 -0.0144,0.0144 c -0.11627,-0.084 -0.20072,-0.23364 -0.28867,-0.34648 -0.10693,-0.13713 -0.22224,-0.29537 -0.22824,-0.47641 -0.0107,-0.31808 0.33031,-0.62847 0.64684,-0.58816 0.26196,0.0333 0.40689,0.22046 0.56008,0.41492 0.0699,0.0887 0.18033,0.19137 0.20507,0.30317 m -0.79403,-0.55681 c -0.23845,0.044 -0.47225,0.26145 -0.47635,0.51349 -0.003,0.126 0.0445,0.24001 0.13067,0.33205 0.0281,0.03 0.0679,0.0812 0.11467,0.0715 0.0599,-0.012 0.12573,-0.0875 0.17324,-0.12413 0.1351,-0.10427 0.26965,-0.20934 0.40422,-0.31426 0.0476,-0.0371 0.15195,-0.0935 0.17016,-0.15372 0.0149,-0.0493 -0.0452,-0.12226 -0.0737,-0.15794 -0.10813,-0.13491 -0.27188,-0.19856 -0.44292,-0.16702 m -12.27114,0.2392 -0.0279,0.15794 0.20111,0.15968 0.41867,0.28392 0.18768,0.11093 0.1588,-0.0772 -0.49084,0.75071 c -0.0761,-0.0344 -0.1808,-0.0808 -0.21655,-0.1588 0.0555,0.012 0.1164,0.0405 0.17324,0.0197 0.11787,-0.0432 0.24888,-0.26731 0.28872,-0.38071 l -0.37535,-0.24541 -0.18078,0.33204 0.0797,0.14436 c -0.1016,-0.0205 -0.2968,-0.13919 -0.34648,-0.23099 0.0535,-0.003 0.1064,0.0371 0.1588,0.0133 0.062,-0.0283 0.24445,-0.22708 0.20679,-0.29996 -0.0309,-0.0599 -0.13766,-0.10507 -0.19235,-0.14156 -0.0468,-0.0312 -0.1268,-0.10907 -0.18761,-0.0967 -0.0873,0.0177 -0.21312,0.24252 -0.23727,0.32288 -0.0345,0.1148 0.0556,0.19772 0.0495,0.30317 -0.0579,-0.0419 -0.17026,-0.15541 -0.17618,-0.23098 -0.005,-0.0612 0.0719,-0.13958 0.104,-0.18768 0.084,-0.12587 0.17112,-0.24947 0.25504,-0.37535 0.0424,-0.0636 0.0779,-0.14089 0.14918,-0.17324 m 13.3972,0.88063 c 0.0825,0.0937 0.16876,0.29532 0.18768,0.41866 -0.0368,-0.0175 -0.0727,-0.0655 -0.1156,-0.0641 -0.0463,0.001 -0.0852,0.0489 -0.11546,0.0787 -0.0349,0.0343 -0.096,0.0784 -0.104,0.12986 -0.012,0.0749 0.1084,0.33512 0.16641,0.3829 0.0556,0.0459 0.27417,0.0415 0.31454,-0.0249 0.0227,-0.0373 0.005,-0.0877 -0.001,-0.12706 0.0897,0.0448 0.14791,0.23752 0.17324,0.33204 -0.0584,-0.0152 -0.0977,-0.0627 -0.1588,-0.0772 -0.1544,-0.0367 -0.3615,-0.0189 -0.51972,-0.008 -0.19852,0.0133 -0.47277,0.0615 -0.66409,-8e-4 l 0.80049,-0.88064 0.0368,-0.1588 m -14.17676,0.37534 0.0195,0.17098 0.19716,0.0976 0.47642,0.18473 0.23098,0.0739 0.14438,-0.10854 c -0.0528,0.20371 -0.14842,0.52938 -0.30404,0.67652 -0.13254,0.12534 -0.34951,0.108 -0.44219,-0.0557 -0.0431,-0.076 -0.0333,-0.16124 -0.0333,-0.24541 -0.17198,0.0209 -0.41512,0.0728 -0.56298,0.16501 -0.0587,0.0365 -0.0928,0.0945 -0.14442,0.13815 -0.005,-0.0487 0.0107,-0.0844 0.0289,-0.12987 0.0205,-0.0516 0.0345,-0.12853 0.0771,-0.16663 0.0416,-0.0373 0.11626,-0.0413 0.16836,-0.0559 0.19012,-0.0531 0.42033,-0.0588 0.51972,-0.23947 -0.11694,-0.0303 -0.32791,-0.17665 -0.44727,-0.13721 -0.054,0.0177 -0.0689,0.0813 -0.11573,0.10826 0.0171,-0.12946 0.0973,-0.38245 0.18766,-0.47641 m 13.9458,0.231 -0.3176,0.37535 0.49084,-0.0144 -0.17324,-0.36092 m -13.52713,0.30317 c -0.024,0.0627 -0.0437,0.11987 -0.0473,0.18768 -0.0107,0.19584 0.20154,0.3576 0.37909,0.23405 0.0557,-0.0388 0.15489,-0.18333 0.10293,-0.2541 -0.0401,-0.0545 -0.17134,-0.0768 -0.2326,-0.1012 -0.0655,-0.0261 -0.1324,-0.056 -0.2021,-0.0664 m 6.51091,4.90845 c -0.19828,-0.014 -0.42062,-0.13856 -0.5919,-0.23319 -0.0557,-0.0308 -0.14175,-0.0569 -0.17484,-0.11533 -0.0377,-0.0667 -0.0133,-0.19735 -0.0133,-0.2723 v -0.67852 -2.26656 c 0,-0.26883 -0.0565,-0.70051 0.1224,-0.92366 0.16903,-0.21089 0.51422,-0.11893 0.60762,0.1152 0.0392,0.0983 0.0271,0.20089 0.0371,0.30316 0.034,0.34708 0.012,0.70477 0.012,1.05388 v 1.21268 1.80457 m 0.50528,-0.0289 v -1.79014 -1.19824 -0.77958 c 0,-0.18645 -0.007,-0.39876 0.0537,-0.57747 0.0864,-0.25558 0.42625,-0.30784 0.60406,-0.11346 0.12214,0.13348 0.10614,0.3356 0.1072,0.50326 8e-4,0.14394 0.0144,0.28814 0.0144,0.43311 v 2.25212 0.62077 c 0,0.0732 0.0227,0.19311 -0.0133,0.25899 -0.0343,0.0636 -0.12907,0.0993 -0.18928,0.13306 -0.17856,0.0999 -0.37605,0.21271 -0.57745,0.25766 m 7.4926,-3.98451 0.0867,0.49084 -0.14436,-0.13266 -0.82289,0.11826 v 0.0289 l 1.01057,0.25986 c -0.0232,0.0865 -0.14663,0.13454 -0.21656,0.18346 -0.201,0.14059 -0.43281,0.35603 -0.66408,0.43731 v 0.0144 c 0.2252,-0.0427 0.45233,-0.0773 0.67852,-0.1144 0.13267,-0.0217 0.24592,-0.0445 0.21655,-0.20319 0.078,0.0429 0.104,0.32022 0.0867,0.40423 -0.0325,-0.0415 -0.0371,-0.1012 -0.0876,-0.12893 -0.062,-0.0341 -0.15072,-0.003 -0.21561,0.008 l -0.50528,0.084 c -0.12866,0.0219 -0.32878,0.0291 -0.28873,0.21066 -0.0653,-0.014 -0.10893,-0.27594 -0.0673,-0.32884 0.0617,-0.0785 0.18681,-0.13577 0.26948,-0.19088 0.16686,-0.1112 0.33575,-0.26764 0.51971,-0.34648 v -0.0144 l -0.95281,-0.25986 -0.0433,-0.33204 h 0.0289 c 0.009,0.0675 0.0384,0.13372 0.11547,0.14123 0.18312,0.0179 0.40983,-0.0675 0.5919,-0.0943 0.0953,-0.014 0.23212,-0.0152 0.31727,-0.0623 0.0725,-0.0401 0.0408,-0.11853 0.0869,-0.17237 m -15.11515,0.14437 c -0.14046,0 -0.26067,0.0107 -0.35403,0.13 -0.0957,0.12307 -0.11067,0.3478 0.0797,0.39252 0.0992,0.0233 0.18333,-0.0708 0.24541,-0.1328 0.15737,-0.15706 0.41669,-0.44573 0.64872,-0.22877 0.10667,0.0997 0.1208,0.25717 0.0697,0.38757 -0.0499,0.1276 -0.132,0.15711 -0.0688,0.28873 -0.0821,-0.004 -0.37174,-0.0453 -0.38978,-0.13 0.0884,0.0107 0.18132,0.0145 0.25985,-0.0377 0.1292,-0.0859 0.23437,-0.3084 0.0575,-0.40971 -0.0928,-0.0532 -0.17822,0.0253 -0.24516,0.0828 -0.11774,0.10107 -0.20619,0.24179 -0.34648,0.3162 -0.20388,0.10814 -0.43465,-0.0332 -0.45996,-0.25477 -0.0233,-0.20458 0.18288,-0.34714 0.11347,-0.53416 0.0937,0.012 0.34034,0.0479 0.38979,0.12987 m -0.56303,1.12605 c 8e-4,0.0704 0.0133,0.13356 0.0867,0.16161 0.10627,0.0404 0.24886,0.0196 0.36086,0.0269 0.1729,0.0107 0.39109,0.0668 0.56215,0.0249 0.064,-0.0157 0.0828,-0.084 0.0875,-0.14123 h 0.0289 l -0.0289,0.49086 h -0.0289 c -8e-4,-0.0704 -0.0133,-0.13358 -0.0867,-0.16162 -0.16516,-0.0628 -0.38885,-0.0253 -0.56296,-0.0424 -0.1004,-0.009 -0.24886,-0.0453 -0.34641,-0.0197 -0.0724,0.0191 -0.0957,0.0843 -0.10107,0.15159 h -0.0289 l 0.0289,-0.49086 h 0.0289 m 1.09718,0.80846 c 0,0.28117 0.0807,0.66846 -0.0647,0.92394 -0.19246,0.33846 -0.77049,0.3551 -0.98195,0.0289 -0.16016,-0.24708 -0.12254,-0.64078 -0.1228,-0.92395 h 0.0433 c 8e-4,0.0615 0.007,0.124 0.0724,0.14972 0.0547,0.0213 0.12973,0.009 0.18741,0.009 0.15455,0 0.30849,-0.0133 0.46197,-0.0144 0.0881,-8e-4 0.20512,0.0203 0.28867,-0.012 0.0715,-0.0273 0.0845,-0.0932 0.0867,-0.16161 h 0.0289 m -0.24543,0.33799 c -0.20956,0.0304 -0.42565,-0.0135 -0.63521,0.0169 -0.0491,0.007 -0.14036,-0.012 -0.18078,0.0188 -0.0664,0.0509 -0.0325,0.22387 -0.0147,0.29035 0.0763,0.28477 0.37487,0.34962 0.6286,0.31566 0.1789,-0.024 0.33072,-0.15594 0.37688,-0.3301 0.0444,-0.16768 0.0283,-0.34111 -0.17478,-0.31166 m 13.96022,1.42328 c -0.26524,1.8e-4 -0.27924,0.26823 -0.34646,0.4764 l 0.44753,0.13 0.0772,-0.36092 -0.10613,-0.13 c 0.0871,0.007 0.34917,0.0548 0.37535,0.14438 -0.21425,-0.0539 -0.24449,0.20526 -0.28873,0.36092 l 0.33204,0.1052 0.13969,0.012 0.0955,-0.23254 0.0313,-0.17324 -0.13661,-0.25985 0.23767,0.18855 -0.048,0.20124 -0.14156,0.46197 -0.0769,0.18768 -0.032,-0.16856 -0.19897,-0.0817 -0.49084,-0.14978 -0.23098,-0.058 -0.13,0.12587 0.072,-0.28872 0.17344,-0.57747 c 0.0728,0.009 0.20572,0.0208 0.24542,0.0867 m -14.68205,-0.0721 c 0.11053,0.13449 0.25762,0.12653 0.41865,0.14812 0.28746,0.0385 0.58122,0.058 0.8662,0.11173 -0.0269,0.1016 -0.18026,0.18173 -0.25986,0.24541 -0.2373,0.1899 -0.62076,0.39062 -0.69296,0.69296 h -0.0144 l -0.12987,-0.44753 c 0.0407,0.0201 0.0681,0.0779 0.11573,0.0812 0.0431,0.003 0.0839,-0.0337 0.1152,-0.0585 0.15907,-0.12574 0.1204,-0.19055 0.0701,-0.36922 -0.0136,-0.0483 -0.0215,-0.12853 -0.0617,-0.16234 -0.0531,-0.0445 -0.25692,-0.0649 -0.3047,-0.008 -0.0284,0.0339 -0.0213,0.0857 -0.0213,0.1268 -0.0644,-0.0388 -0.14242,-0.29854 -0.10106,-0.36092 m 0.51971,0.24542 0.0867,0.36091 0.40423,-0.28873 c -0.1116,-0.0736 -0.35827,-0.0721 -0.49084,-0.0721 m 8.30106,0 v 0.14436 l -0.49084,0.0144 0.49084,-0.1588 m -2.02113,0.0289 0.36092,0.11546 v 0.0144 h -0.37536 l 0.0144,-0.12986 m 0.7074,0.28873 c -0.0517,0.3378 -0.62099,0.38231 -0.67852,0.0289 l 0.67852,-0.0289 m 1.27042,0.0289 c -0.0589,0.36214 -0.59536,0.29516 -0.67853,-0.0144 l 0.67853,0.0144 m -7.26163,0.50528 c 0.0892,0.0508 0.14388,0.21352 0.19096,0.30318 0.1028,0.19582 0.24317,0.43605 0.16268,0.66409 -0.15703,0.44481 -0.7388,0.52749 -1.02595,0.17324 -0.13613,-0.16795 -0.25551,-0.40707 -0.33825,-0.60635 l 0.1588,0.0859 0.21656,-0.0971 0.44753,-0.24021 0.19295,-0.126 -0.005,-0.1568 m 4.31656,0.13 c 0.0931,0.15653 0.0721,0.31272 0.0721,0.49085 0,0.0609 0.0144,0.14389 -0.007,0.20177 -0.0151,0.0411 -0.0577,0.0644 -0.0797,0.10134 0.14514,0.0705 0.0867,0.36937 0.0867,0.50529 0,0.0492 0.009,0.11173 -0.007,0.15873 -0.0143,0.0396 -0.0476,0.0623 -0.0797,0.0867 v 0.0144 c 0.0576,-8e-4 0.18069,0.004 0.22409,-0.038 0.1044,-0.10147 -0.0312,-0.33097 0.0677,-0.43557 0.1016,-0.10734 0.3027,-0.0491 0.32664,0.0981 0.0243,0.14959 -0.0415,0.27571 0.0312,0.41867 0.0428,-0.009 0.12053,-0.0225 0.14509,-0.0637 0.0212,-0.0355 -8e-4,-0.112 -8e-4,-0.15285 -2.8e-4,-0.15695 0.0248,-0.29884 -0.10293,-0.41459 -0.1192,-0.108 -0.29971,-0.0413 -0.43116,0.0107 0,-0.0723 -0.0248,-0.14179 -0.0255,-0.2106 -8e-4,-0.0687 0.0241,-0.13861 0.0253,-0.20807 0.001,-0.0619 -0.0144,-0.14313 0.007,-0.20204 0.0461,-0.12733 0.21281,-0.11439 0.29535,-0.0393 0.10506,0.0956 0.0421,0.24911 0.0443,0.37133 8e-4,0.0475 0.0133,0.1236 0.0729,0.12947 0.0408,0.004 0.0919,-0.0285 0.12906,-0.0429 -0.0236,-0.19887 0.0567,-0.59195 -0.23098,-0.63301 -0.1068,-0.0152 -0.2128,0.0428 -0.31762,0.0556 0,-0.1749 -0.0605,-0.28491 -0.24542,-0.20211 m 8.74861,1.41478 0.005,-0.1568 -0.19296,-0.12093 -0.46197,-0.23099 -0.21655,-0.0913 -0.14436,0.0948 c 0.0216,-0.14097 0.12787,-0.27767 0.19115,-0.40423 0.0601,-0.12026 0.124,-0.25313 0.22777,-0.34247 0.30356,-0.26119 0.82663,-0.0584 0.92523,0.31359 0.0604,0.22796 -0.0581,0.45224 -0.15687,0.64966 -0.0444,0.0887 -0.088,0.2382 -0.17672,0.28873 m -7.49261,-0.5486 v 0.0144 c -0.13447,9e-5 -0.32371,0.0724 -0.40309,0.18855 -0.132,0.19306 -0.0188,0.46933 0.20097,0.53329 -0.0264,0.0268 -0.0708,0.0601 -0.0737,0.10107 -0.005,0.0848 0.14682,0.16848 0.114,0.25672 -0.0151,0.0403 -0.0923,0.0364 -0.1268,0.0467 -0.0873,0.0263 -0.1813,0.0685 -0.21756,0.15854 -0.0641,0.15918 0.10413,0.26292 0.24642,0.22022 0.0512,-0.0153 0.10547,-0.0757 0.1588,-0.0745 0.0475,0.001 0.0753,0.0539 0.11547,0.0723 0.0517,0.0237 0.1108,-0.012 0.15881,-0.0301 l -0.11546,-0.43309 -0.0441,-0.19616 -0.14349,-0.0637 v -0.0144 c 0.15713,0.0181 0.33965,-0.052 0.43216,-0.18794 0.15637,-0.22968 0.0313,-0.52048 -0.24448,-0.56277 0.14385,-0.0487 0.30276,-0.0857 0.38531,-0.23099 0.1678,-0.29529 -0.10227,-0.5909 -0.41419,-0.54638 -0.0533,0.008 -0.0985,0.0377 -0.14436,0.064 -0.0711,0.0409 -0.13865,0.0765 -0.1808,0.15032 -0.13253,0.23229 0.0679,0.48317 0.29629,0.53416 m 2.30986,-0.74256 c -0.12494,0.0361 -0.28386,0.13675 -0.32135,0.26614 -0.0779,0.26888 0.20903,0.55819 0.48016,0.48016 0.21543,-0.062 0.3774,-0.26464 0.32736,-0.49458 -0.0408,-0.18729 -0.31284,-0.30187 -0.48617,-0.25172 m -1.68908,0.0785 c 0.11306,0.13492 0.0703,0.44451 0.0289,0.60633 0.28457,0.12547 0.17613,-0.25254 0.20499,-0.40422 0.0172,-0.0907 0.10626,-0.16331 0.19924,-0.13943 0.14657,0.0376 0.10106,0.27241 0.10106,0.38485 0,0.0577 -0.0188,0.14768 0.0581,0.1576 0.0943,0.012 0.11453,-0.0477 0.1152,-0.1288 0.001,-0.14024 -0.0393,-0.50429 0.21648,-0.40702 0.23557,0.0896 -0.0821,0.5551 0.20218,0.55133 0.0321,-4e-4 0.0564,-0.004 0.0867,-0.0144 -0.0659,-0.17199 0.0316,-0.39037 -0.0733,-0.54773 -0.0681,-0.10213 -0.18598,-0.14824 -0.30196,-0.11373 -0.0509,0.0152 -0.11334,0.0588 -0.1673,0.0544 -0.0588,-0.005 -0.11786,-0.0519 -0.17918,-0.0628 -0.076,-0.0135 -0.11707,0.0281 -0.18768,0.0368 -0.126,0.0155 -0.1824,-0.058 -0.30318,0.0265 m -6.13583,0.0107 c -0.21015,0.064 -0.42699,0.2207 -0.62051,0.32522 -0.0513,0.0277 -0.17763,0.0712 -0.19971,0.128 -0.0192,0.0495 0.0297,0.12893 0.0521,0.17104 0.10773,0.20244 0.33744,0.2738 0.5518,0.21053 0.21317,-0.0629 0.41116,-0.23604 0.4184,-0.4704 0.003,-0.0903 -0.0679,-0.40523 -0.20212,-0.36438 m 12.21366,0.43657 c 0.2086,0.0847 0.40496,0.20596 0.60634,0.30665 0.0699,0.0349 0.1804,0.11987 0.25979,0.11867 0.0557,-8e-4 0.0883,-0.0653 0.11147,-0.1076 0.068,-0.12467 0.0836,-0.26989 0.032,-0.40423 -0.11027,-0.2871 -0.53474,-0.43483 -0.79295,-0.26701 -0.12573,0.0817 -0.17731,0.2156 -0.21655,0.35363 m -6.69859,-0.41345 c 0.29806,-0.0655 0.50768,0.46111 0.17324,0.53389 -0.2122,0.0461 -0.25987,-0.18747 -0.25987,-0.33699 0,-0.0773 -0.0107,-0.17552 0.0867,-0.1969 m 2.30986,0 c 0.29864,-0.0651 0.5036,0.46198 0.17324,0.53389 -0.1978,0.0431 -0.2743,-0.17348 -0.2743,-0.32255 0,-0.0855 -0.005,-0.18813 0.10106,-0.21134 m -2.41092,0.0815 v 0.28873 c -0.10173,-0.0811 -0.106,-0.211 0,-0.28873 m 2.29543,0.0144 v 0.25985 h -0.0144 c -0.0593,-0.0919 -0.0803,-0.18436 0.0144,-0.25985 m -1.86233,0.63521 v 0.0144 c 0.07,0.0384 0.0577,0.10094 0.0577,0.17324 0,0.13791 0.0196,0.28796 -0.0289,0.41867 0.0501,0.0259 0.14894,0.0549 0.18928,-0.005 0.0728,-0.10827 -0.0256,-0.30636 0.0273,-0.42816 0.0472,-0.10854 0.20489,-0.17346 0.27329,-0.0431 0.0351,0.0669 0.0141,0.17179 0.0155,0.24516 0.001,0.0773 0.0144,0.15304 0.0144,0.23099 0.34952,0.0657 -0.0213,-0.53199 0.30317,-0.5474 0.349,-0.0165 -0.0271,0.62974 0.30303,0.57346 0.026,-0.004 0.0485,-0.0156 0.0723,-0.0261 -0.0952,-0.1702 0.028,-0.40393 -0.0948,-0.56109 -0.1551,-0.19847 -0.27215,-0.0424 -0.45375,-0.0469 -0.0669,-0.001 -0.13368,-0.0516 -0.20212,-0.0615 -0.0684,-0.009 -0.1096,0.0313 -0.17324,0.0389 -0.12467,0.0149 -0.17975,-0.0464 -0.30316,0.0243 m 1.21268,-0.0433 c 0.0183,0.13963 0.0433,0.26043 0.0433,0.40423 0,0.0621 -0.0177,0.1588 0.0153,0.21427 0.0387,0.0649 0.11826,0.0445 0.1723,0.0167 -0.0673,-0.21904 0.007,-0.45934 -0.11546,-0.66408 l -0.11547,0.0289 m 0.23099,0.0433 c 0.0819,0.20327 0.0577,0.40581 0.0433,0.62077 0.0432,0 0.11453,0.012 0.14684,-0.0235 0.11467,-0.12734 -0.13341,-0.53146 0.15633,-0.53916 0.23132,-0.007 0.18762,0.27976 0.18767,0.43276 5e-5,0.11426 0.0295,0.1909 0.15881,0.1588 -0.0401,-0.21566 0.0988,-0.67834 -0.231,-0.71956 -0.0897,-0.0107 -0.15126,0.0753 -0.23097,0.0715 -0.1024,-0.005 -0.1236,-0.064 -0.23099,-0.001 m 0.7507,-0.0433 c 0.0176,0.13449 0.0433,0.2517 0.0433,0.38978 0,0.0667 -0.0191,0.16996 0.0153,0.22979 0.038,0.0661 0.11814,0.0435 0.17231,0.0156 -0.0663,-0.15011 -0.0208,-0.33207 -0.0473,-0.49084 -0.0203,-0.1216 -0.0613,-0.18336 -0.18368,-0.14437 m -2.6419,0.078 c 0.3007,-0.0556 0.48996,0.48758 0.1588,0.5387 -0.20249,0.0312 -0.25986,-0.1784 -0.25986,-0.32797 0,-0.0835 -0.005,-0.19099 0.10106,-0.21073 m -0.11546,0.0952 v 0.27429 h -0.0144 c -0.0627,-0.0944 -0.0883,-0.19869 0.0144,-0.27429 m -0.89508,1.14049 c 0.0192,0.27041 0.44297,0.17549 0.47421,-0.0433 0.0248,-0.17335 -0.14607,-0.20123 -0.27209,-0.25058 -0.0608,-0.0239 -0.13067,-0.0799 -0.10427,-0.15365 0.0603,-0.16896 0.24352,0.012 0.36419,-0.0577 -0.13506,-0.19388 -0.49322,-0.0819 -0.50408,0.1588 -0.009,0.21533 0.28712,0.1545 0.37542,0.289 0.0672,0.1024 -0.058,0.19272 -0.1578,0.15165 -0.0837,-0.0344 -0.0627,-0.0941 -0.17552,-0.0941 m 0.95283,-0.62078 -0.0144,0.0144 0.0144,-0.0144 m 0.89507,0.007 c -0.14816,0.0245 -0.31687,0.10093 -0.38999,0.23915 -0.0716,0.1354 -0.0265,0.39025 0.10147,0.47948 0.118,0.0821 0.35229,0.0807 0.47614,0.0133 0.0379,-0.0207 0.13356,-0.10347 0.0528,-0.13928 -0.0843,-0.0373 -0.14796,0.11853 -0.24048,0.12187 -0.24196,0.008 -0.30342,-0.34782 -0.21146,-0.51859 0.0423,-0.0785 0.12066,-0.14247 0.21146,-0.1092 0.0513,0.0188 0.19588,0.11827 0.22946,0.0205 0.0291,-0.0848 -0.17958,-0.11546 -0.22946,-0.1072 m 1.45811,0.0659 v 0.0144 l 0.1588,0.27429 c -0.10493,0.0199 -0.21979,0.0287 -0.30291,0.1032 -0.0971,0.0871 -0.1264,0.2373 0.0141,0.2947 0.14432,0.0589 0.21042,-0.0761 0.33205,-0.0652 0.1184,0.0107 0.12373,0.11426 0.25985,0.0427 -0.0279,-0.0824 -0.07,-0.15758 -0.0828,-0.24542 -0.0149,-0.10294 -0.004,-0.26642 -0.0625,-0.35623 -0.0671,-0.10347 -0.23271,-0.14212 -0.31667,-0.0624 m -2.32429,-0.0529 c 0.0107,0 0.003,0.007 -0.005,0.005 l 0.005,-0.005 m 1.28485,0.0673 c 0.0913,0.19328 0.0532,0.48744 0.0144,0.69296 h 0.20212 l 0.0433,-0.13 v 0.11547 h 0.0144 v -0.11547 l 0.16101,0.11707 0.19991,0.0133 v -0.0144 l -0.15882,-0.1588 c 0.0885,-0.0875 0.22592,-0.16623 0.23728,-0.30317 0.004,-0.048 -0.0157,-0.0901 -0.0403,-0.12987 -0.12307,-0.1996 -0.25,-0.1204 -0.44239,-0.10853 -0.1012,0.007 -0.12947,-0.0384 -0.23099,0.0219 m 0.2743,0.44754 c 0,-0.0799 -0.0376,-0.28856 0.0133,-0.35183 0.0441,-0.0553 0.16885,-0.009 0.20252,0.0365 0.0591,0.0804 0.0332,0.25042 -0.0575,0.29996 -0.0453,0.0248 -0.108,0.0153 -0.15786,0.0153 m -0.0144,-0.34648 v 0.31761 c -0.0856,-0.0408 -0.0959,-0.28476 0,-0.31761 m 4.80739,0.0364 c 0.31508,0 0.31275,0.48322 0,0.48322 -0.31488,0 -0.31962,-0.48322 0,-0.48322 m -11.01515,0.0261 c 0.31557,-0.0693 0.44732,0.398 0.12987,0.46705 -0.29624,0.0644 -0.42895,-0.40141 -0.12987,-0.46705 m 10.23557,0.183 0.0144,0.0144 -0.0652,0.14437 0.15205,0.20211 0.31145,0.34648 0.19363,0.18835 0.1588,-0.044 c -0.0609,0.12706 -0.25723,0.2705 -0.37535,0.34648 l -0.0144,-0.0144 0.0753,-0.14438 -0.14376,-0.18768 -0.34936,-0.38978 -0.15967,-0.1576 -0.17324,0.0277 0.37535,-0.33204 m -5.70247,0.0195 c 0.15295,-0.0368 0.24576,0.1949 0.0865,0.23546 -0.17078,0.0435 -0.27878,-0.18921 -0.0865,-0.23546 m 2.4831,0 c 0.14372,-0.0341 0.23052,0.19088 0.0864,0.2344 -0.17506,0.0528 -0.28266,-0.18774 -0.0864,-0.2344 m -5.48592,0.4714 c -0.0156,0.10373 -0.0909,0.31273 -0.18767,0.36092 0.0691,-0.27358 -0.13965,-0.62996 -0.46198,-0.51879 -0.4009,0.13828 -0.6367,0.83411 -0.14436,1.01417 0.1553,0.0568 0.2595,-0.0431 0.40422,-0.0335 -0.21289,0.23088 -0.6306,0.0883 -0.77844,-0.14436 -0.18442,-0.29023 -0.0312,-0.69188 0.24428,-0.85999 0.17395,-0.10613 0.41799,-0.10653 0.59191,0 0.1308,0.0801 0.16892,0.23603 0.33204,0.18147 m 4.74965,0.49084 -0.10107,0.0144 c 0.004,0.267 0.39234,0.17036 0.46078,-0.0144 0.0853,-0.23051 -0.21938,-0.22144 -0.32991,-0.32048 -0.062,-0.0556 -0.0623,-0.16462 0.0288,-0.19684 0.10707,-0.0379 0.17877,0.0979 0.30229,0.0265 -0.0371,-0.0512 -0.10626,-0.11333 -0.17324,-0.12 -0.12733,-0.0133 -0.33489,0.15036 -0.34326,0.27877 -0.0151,0.23064 0.34884,0.14267 0.40081,0.33204 0.0229,0.0836 -0.10747,0.13335 -0.17211,0.10867 -0.0457,-0.0175 -0.0564,-0.0679 -0.0731,-0.10867 m -1.63135,-0.54858 c 0.0528,0.20637 0.0541,0.48238 0.0144,0.69294 h 0.18768 l 0.0144,-0.11546 h 0.0289 v 0.11546 h 0.0144 v -0.11546 l 0.17524,0.11453 0.20011,0.0153 -0.1588,-0.21654 c 0.21175,-0.0868 0.323,-0.35999 0.10013,-0.51063 -0.10106,-0.0683 -0.25212,-0.003 -0.36005,0.003 -0.0892,0.004 -0.12787,-0.0313 -0.21655,0.0171 m 1.38592,0.51972 c -0.0741,0.0173 -0.10906,0.0961 -0.18768,0.0999 -0.1008,0.005 -0.26356,-0.1164 -0.16636,-0.22377 0.0595,-0.0656 0.2027,-0.0515 0.28186,-0.0783 v -0.0289 c -0.0791,-0.0257 -0.20223,0.0173 -0.27116,-0.0273 -0.0733,-0.0475 -0.0237,-0.18516 0.0509,-0.2025 0.0744,-0.0173 0.16091,0.0443 0.24917,0.0277 -0.0165,-0.14365 -0.18317,-0.15179 -0.28873,-0.0968 -0.18119,0.0943 -0.31115,0.17995 -0.30291,0.40001 0.007,0.18868 0.14738,0.31024 0.33178,0.32803 0.12573,0.012 0.29192,-0.0633 0.30317,-0.19811 m 3.65246,-0.4764 0.0144,0.0144 c -0.0328,0.0436 -0.0899,0.0828 -0.0808,0.14436 0.0107,0.0757 0.0925,0.15667 0.13675,0.21655 0.096,0.13 0.19317,0.25925 0.28847,0.3898 0.0427,0.0585 0.0833,0.13961 0.1467,0.17832 0.0572,0.0349 0.1088,-0.005 0.15854,-0.034 l 0.0144,0.0144 c -0.0848,0.11733 -0.27256,0.24332 -0.40423,0.30316 0.0215,-0.0513 0.0797,-0.0991 0.0693,-0.1588 -0.0133,-0.0769 -0.0909,-0.15569 -0.13621,-0.21655 -0.0927,-0.1244 -0.18537,-0.24901 -0.27536,-0.37536 -0.0447,-0.0628 -0.0944,-0.1533 -0.16315,-0.19214 -0.0552,-0.0312 -0.10973,0.008 -0.15874,0.0333 l -0.0144,-0.0144 c 0.0915,-0.11787 0.27349,-0.23097 0.40424,-0.30317 m -4.77853,0.0433 c 0.0532,0 0.12226,-0.0107 0.17229,0.009 0.1248,0.0508 0.0924,0.25727 0.0107,0.33138 -0.036,0.0327 -0.134,0.0568 -0.17016,0.012 -0.0504,-0.0633 -0.0133,-0.27195 -0.0133,-0.35183 m -0.0144,0.0144 v 0.33205 c -0.0812,-0.0619 -0.0968,-0.2789 0,-0.33205 m 0.75071,0.0144 v 0.14437 l -0.0721,-0.0144 0.0721,-0.13 m 0,0.28874 v 0.10106 h -0.0144 c -0.014,-0.0456 -0.0272,-0.072 0.0144,-0.10106 m 3.45036,0.0577 -0.0959,0.14437 0.10453,0.21655 0.2511,0.43309 0.13093,0.19296 0.17231,-0.005 c -0.0796,0.0875 -0.32896,0.2496 -0.44754,0.24541 l 0.0952,-0.14436 -0.1096,-0.21654 -0.25705,-0.44755 -0.13307,-0.17771 -0.15853,0.004 c 0.0781,-0.0859 0.33181,-0.2495 0.44753,-0.24542 m -6.68416,0.17324 -0.0597,0.80845 -0.022,0.38979 0.0817,0.14437 c -0.13364,-0.0359 -0.315,-0.1252 -0.41866,-0.21656 0.0409,-0.008 0.092,0.005 0.1276,-0.0213 0.0437,-0.0328 0.0441,-0.0884 0.0515,-0.13742 0.0276,-0.18145 -0.0755,-0.21846 -0.22249,-0.2922 -0.0416,-0.0209 -0.0969,-0.0665 -0.14438,-0.0683 -0.0668,-0.003 -0.24436,0.14578 -0.2354,0.21608 0.005,0.0395 0.0481,0.0651 0.0765,0.0867 v 0.0144 c -0.084,0.0137 -0.29348,-0.0959 -0.33204,-0.17324 0.1615,0.0107 0.25394,-0.0871 0.37534,-0.1848 0.15935,-0.12826 0.31748,-0.25816 0.47642,-0.38697 0.0772,-0.0625 0.15206,-0.14245 0.24541,-0.17893 m -0.18767,0.23098 -0.37536,0.31762 0.34648,0.17324 c 0.0149,-0.12614 0.0837,-0.37691 0.0289,-0.49086 m 5.58698,0.17324 c 0.0208,0.0788 0.11666,0.35992 0.0433,0.40423 -0.0375,-0.13945 -0.15406,-0.25771 -0.30316,-0.26635 -0.10666,-0.007 -0.2562,0.0909 -0.23052,0.21235 0.0213,0.10067 0.1312,0.13969 0.21608,0.17231 0.22436,0.0863 0.60473,0.13724 0.52727,0.4736 -0.0412,0.17878 -0.21391,0.25912 -0.38291,0.26968 -0.0889,0.005 -0.23061,-0.0569 -0.25985,0.0624 -0.0895,-0.0491 -0.0969,-0.29308 -0.11547,-0.38979 0.09,0.0261 0.12,0.17676 0.21655,0.22391 0.15348,0.0749 0.52925,-0.0289 0.38097,-0.25278 -0.16174,-0.24408 -0.834,-0.16064 -0.70486,-0.60634 0.0437,-0.15098 0.19026,-0.22996 0.33833,-0.23099 0.0552,-3.7e-4 0.13576,0.0224 0.18733,0.007 0.038,-0.012 0.06,-0.0527 0.0869,-0.0788 m -4.22994,0.73628 c 0.0435,0.16794 0.1224,0.39298 0.2247,0.53408 0.0421,0.058 0.11626,0.084 0.15065,0.14444 -0.0791,-0.005 -0.23761,-0.0229 -0.29721,-0.0788 -0.18919,-0.17736 -0.0964,-0.53568 -0.36687,-0.64304 -0.0312,0.10986 -0.13267,0.33748 -0.0919,0.44726 0.0221,0.0595 0.0896,0.0672 0.1208,0.11574 -0.14153,-0.0169 -0.3721,-0.0511 -0.49083,-0.12987 l 0.16835,-0.0456 0.0752,-0.21428 0.1264,-0.49084 0.0409,-0.23099 -0.12214,-0.12986 c 0.20651,0.0252 0.56476,0.0885 0.72096,0.2332 0.12187,0.1128 0.12254,0.33204 -0.0144,0.43456 -0.0719,0.0539 -0.15896,0.0541 -0.24454,0.0541 m -0.27431,-0.0867 c 0.0817,0.009 0.16353,0.0335 0.24543,0.0141 0.18297,-0.0431 0.2636,-0.29484 0.11173,-0.42214 -0.0444,-0.0372 -0.19185,-0.10586 -0.24095,-0.0471 -0.0463,0.0553 -0.0573,0.18342 -0.0747,0.25297 -0.0167,0.0669 -0.0368,0.1332 -0.0415,0.20211 m 2.87289,-0.31379 c 0.75448,-0.10973 0.92004,1.09643 0.17324,1.20505 -0.73254,0.10654 -0.89973,-1.09938 -0.17324,-1.20505 m -1.29929,0.0251 v 0.0433 c -0.0724,4e-5 -0.14684,-0.003 -0.18453,0.0724 -0.0339,0.0669 -0.0151,0.15831 -0.0179,0.23071 -0.005,0.14484 8e-4,0.30421 -0.0201,0.44754 -0.0107,0.0692 -0.0327,0.19751 0.0151,0.25672 0.0625,0.0777 0.30768,0.0603 0.39514,0.0396 0.1312,-0.0311 0.14589,-0.16673 0.24542,-0.2241 -0.008,0.0723 -0.0457,0.26276 -0.10786,0.30717 -0.0437,0.0313 -0.1328,0.005 -0.18086,-8e-4 -0.1228,-0.0171 -0.25164,-0.004 -0.37536,-0.0164 -0.0745,-0.008 -0.31385,0.0404 -0.33204,-0.0445 0.0795,0.0107 0.14024,-0.0191 0.16135,-0.10107 0.0489,-0.1898 0.0263,-0.43904 0.0263,-0.6352 0,-0.0789 0.0256,-0.16895 0.005,-0.24543 -0.0247,-0.0901 -0.10733,-0.0804 -0.14912,-0.14437 l 0.51972,0.0144 m 1.31373,0.0351 c -0.36006,0.0684 -0.34392,0.60142 -0.21982,0.85998 0.0653,0.13606 0.18802,0.25024 0.34976,0.22498 0.37713,-0.0589 0.38146,-0.53078 0.27362,-0.81688 -0.0655,-0.17364 -0.20741,-0.30531 -0.40356,-0.26808 z"
       id="path8609" /><path
       style="fill:#061174;stroke:none;stroke-width:0.0932603"
       d="m -158.82743,-159.15652 v 17.53581 h 0.55931 v -17.53581 h -0.55931 m 27.50457,0 v 1.64501 c -0.2655,-0.19525 -0.52522,-0.35264 -0.8554,-0.41353 -0.23173,-0.0428 -0.49934,-0.0253 -0.72381,0.042 -0.23164,0.0695 -0.44477,0.18054 -0.62511,0.34301 -1.13065,1.01864 -0.25325,3.01208 1.28312,2.77854 0.36758,-0.0559 0.61171,-0.22642 0.9212,-0.41414 v 0.3948 h 0.49351 l -0.0329,-2.79652 0.0329,-1.57921 h -0.49351 m 7.30385,0 v 1.67792 c -0.23564,-0.21967 -0.50603,-0.37055 -0.82251,-0.43928 -1.6381,-0.35582 -2.61734,1.86867 -1.2831,2.85302 0.17722,0.1308 0.37709,0.22703 0.5922,0.27691 0.25194,0.0584 0.5054,0.0507 0.7567,-0.007 0.28963,-0.0657 0.54058,-0.21325 0.75671,-0.41415 v 0.42771 h 0.4606 v -4.37573 h -0.4606 m -30.16949,0.0329 v 2.07272 c 0,0.51817 -0.0244,1.01395 0.2402,1.48051 0.7,1.23428 2.56104,0.99478 3.06871,-0.2632 0.15505,-0.38424 0.11266,-0.81199 0.11266,-1.21731 v -2.07272 h -0.46059 v 2.00692 c 0,0.32246 0.0592,0.71191 -0.0495,1.01989 -0.35887,1.01659 -1.75296,1.20663 -2.29084,0.23031 -0.20172,-0.36616 -0.16008,-0.7824 -0.16008,-1.1844 v -2.07272 h -0.4606 m 7.17285,0.0207 c -0.33672,0.13147 -0.11147,0.67793 0.22955,0.55077 0.37624,-0.14028 0.15062,-0.69924 -0.22955,-0.55077 m 12.1417,0 c -0.3291,0.13393 -0.11134,0.67599 0.22817,0.55077 0.37979,-0.14005 0.15263,-0.70576 -0.22817,-0.55077 m -11.38561,1.13079 1.54632,3.19133 h 0.0659 l 1.5134,-3.19133 -0.50782,0.0292 -0.30722,0.59586 -0.73127,1.54631 -0.74924,-1.54631 -0.32215,-0.59586 -0.50782,-0.0292 m -3.91512,0.0329 v 3.19133 h 0.4606 v -1.44761 c 0,-0.27951 -0.0309,-0.56828 0.1088,-0.82251 0.34408,-0.62605 1.22447,-0.5652 1.48905,0.0987 0.0873,0.2192 0.0472,0.49209 0.0472,0.72381 v 1.44761 h 0.4606 v -1.44761 c 0,-0.281 0.0337,-0.58314 -0.0467,-0.85541 -0.1852,-0.62748 -0.84318,-0.97415 -1.46682,-0.84687 -0.2251,0.0459 -0.39906,0.17266 -0.5922,0.28758 v -0.32902 h -0.4606 m 3.05972,0 v 3.19133 h 0.4606 v -3.19133 h -0.4606 m 6.81034,2.76363 c -0.23618,-0.55779 -0.61768,-0.0793 -1.0199,-0.0373 -0.56755,0.0593 -1.09643,-0.37516 -1.21731,-0.91678 h 2.69781 c 0.0344,-0.51732 -0.0845,-0.99897 -0.46501,-1.3774 -0.68393,-0.68011 -1.92173,-0.54607 -2.4465,0.25879 -0.64635,0.99133 -0.0465,2.33327 1.1349,2.49189 0.5037,0.0676 0.91864,-0.13476 1.31601,-0.41918 m 0.95411,0.3948 0.4606,0.0329 c 0,-0.52636 -0.009,-1.05392 0.0149,-1.57922 0.0191,-0.40585 0.005,-0.73539 0.37987,-1.00131 0.25424,-0.18064 0.49532,-0.0683 0.75671,-0.15019 l -0.0312,-0.37972 -0.33068,-0.0724 -0.78962,0.32047 v -0.329 l -0.42313,0.0465 -0.0375,0.84171 v 2.27011 m 1.84242,-0.6909 c 0.31224,1.15064 2.1575,0.83441 2.07073,-0.36191 -0.0376,-0.51904 -0.62823,-0.72001 -1.01792,-0.93065 -0.15571,-0.0841 -0.45425,-0.23131 -0.40684,-0.45116 0.0677,-0.31373 0.45059,-0.33603 0.66943,-0.17867 0.0747,0.0537 0.13677,0.17063 0.23289,0.18523 0.1068,0.0161 0.23704,-0.0913 0.32702,-0.13816 -0.13658,-0.83885 -1.49401,-0.75341 -1.69573,0 -0.18285,0.68293 0.4751,0.94897 0.97192,1.20984 0.24065,0.1264 0.57988,0.35478 0.37424,0.66548 -0.2142,0.32362 -0.58864,0.30601 -0.86713,0.0831 -0.0781,-0.0625 -0.14352,-0.19849 -0.24004,-0.22969 -0.12413,-0.0401 -0.30676,0.10133 -0.41857,0.14668 m 2.53331,-2.46752 v 3.19132 h 0.4606 v -3.19132 h -0.4606 m 7.30385,2.73072 v 0.42771 h 0.4606 v -3.15843 h -0.4606 v 0.4606 c -0.19926,-0.1929 -0.42474,-0.3245 -0.6909,-0.4044 -0.23406,-0.0703 -0.51656,-0.0871 -0.75671,-0.0349 -0.25317,0.0549 -0.49147,0.14724 -0.69091,0.31636 -1.2142,1.02964 -0.35066,3.14497 1.28311,2.82729 0.33495,-0.0652 0.60521,-0.20103 0.85541,-0.43425 m -12.63368,-1.38182 h -2.23721 c 0.27168,-1.21718 1.91615,-1.11882 2.23721,0 m 7.63285,-0.87915 c 1.45958,-0.24328 1.88602,1.97787 0.4277,2.24681 -1.44373,0.26624 -1.8878,-2.00347 -0.4277,-2.24681 m 3.65193,-4e-4 c 0.1935,-0.0284 0.40784,-0.0185 0.5922,0.0467 1.08956,0.38463 0.94578,2.01516 -0.1974,2.20569 -1.43506,0.23918 -1.8434,-2.03937 -0.3948,-2.25229 m 3.65191,0 c 0.19438,-0.0285 0.40579,-0.0133 0.5922,0.048 1.12927,0.36902 0.89662,2.04087 -0.23029,2.20477 -1.43322,0.20846 -1.80493,-2.04063 -0.36191,-2.25274 m -4.17833,3.77484 v 6.05363 h 1.31602 v -6.05362 h -1.31602 m 2.36883,0 v 6.05364 h 1.316 v -6.05364 h -1.316 m 2.3359,6.05364 h 1.34891 v -6.05364 h -0.987 l -0.33267,0.0485 -0.0292,0.44492 v 1.1186 4.44153 m -24.93834,-1.77661 c -0.39932,0.26792 -0.71516,0.53839 -1.21732,0.58779 -1.70513,0.16774 -2.67252,-2.10022 -1.34829,-3.2 0.17789,-0.14776 0.37173,-0.27433 0.59159,-0.34881 0.28234,-0.0956 0.55849,-0.126 0.85541,-0.0943 0.45394,0.0485 0.74321,0.34632 1.1186,0.55489 v -1.0199 c 0,-0.112 0.0384,-0.31303 -0.0292,-0.40912 -0.0671,-0.0952 -0.23008,-0.12014 -0.33266,-0.15704 -0.36949,-0.13267 -0.73005,-0.15766 -1.11861,-0.15766 -1.75069,0 -2.90658,1.55259 -2.89521,3.19132 0.0107,1.52625 1.43099,2.82655 2.92812,2.82943 0.36124,8e-4 0.70785,-0.0397 1.0528,-0.15354 0.11293,-0.0372 0.29896,-0.0732 0.36556,-0.18202 0.0653,-0.1068 0.0292,-0.30076 0.0292,-0.42115 v -1.01991 m 8.75146,-4.24413 v 4.14543 1.25021 l 0.0329,0.65801 h 1.05281 v -6.05365 h -1.0857 m -2.79652,6.05365 c 0.24869,-0.0196 0.50675,0 0.75671,0 0.0844,0 0.24021,0.0283 0.29976,-0.0487 0.10746,-0.13862 0.0292,-0.56934 0.0292,-0.74102 0,-0.59433 -0.1176,-1.32949 0.0157,-1.90821 0.0659,-0.286 0.31521,-0.52068 0.60941,-0.55473 0.15011,-0.0173 0.2838,0.0296 0.4277,0.0612 v -0.8225 l -0.0292,-0.30829 -0.29976,-0.0292 -0.7238,0.23883 c -0.001,-0.38531 -0.4306,-0.2632 -0.7238,-0.2632 -0.1028,0 -0.32588,-0.0429 -0.37912,0.0729 -0.12307,0.26784 -0.0157,0.81605 -0.0157,1.11145 v 2.13852 c 0,0.32591 -0.068,0.74282 0.0329,1.0528 m 6.54714,-4.36217 c -0.67949,0.0939 -1.26147,0.33203 -1.68141,0.90765 -1.13104,1.55032 0.27638,3.6627 2.10912,3.4131 1.11021,-0.1512 1.91241,-1.19059 1.84042,-2.2945 -0.0709,-1.08809 -1.11383,-2.18567 -2.26813,-2.02625 m -8.45536,4.03317 c 0,0.40742 0.24942,0.329 0.5922,0.329 0.1072,0 0.3567,0.0475 0.41202,-0.0729 0.0476,-0.1036 0.0157,-0.27575 0.0157,-0.38764 v -0.85541 -3.02681 h -1.01991 v 0.29609 c -0.38003,-0.1944 -0.7243,-0.29609 -1.1515,-0.29609 -0.32929,0 -0.61833,0.0588 -0.92121,0.19237 -0.25363,0.11186 -0.50104,0.28798 -0.68222,0.49853 -1.22646,1.42523 -0.16768,3.84732 1.80083,3.62329 0.34135,-0.0388 0.65684,-0.12373 0.9541,-0.30037 m 14.0484,-3.48743 c -0.68218,-0.94297 -2.39948,-0.60378 -2.74566,0.4606 -0.28501,0.87636 0.36146,1.2641 1.06774,1.53276 0.2441,0.0928 0.692,0.16554 0.74544,0.47416 0.0649,0.3753 -0.45968,0.43704 -0.71254,0.4271 -0.1857,-0.007 -0.37548,-0.0811 -0.5264,-0.18827 -0.0827,-0.0587 -0.18714,-0.20749 -0.2961,-0.20745 -0.122,5e-5 -0.25119,0.18673 -0.329,0.26473 -0.0629,0.0631 -0.16939,0.14031 -0.19391,0.23029 -0.066,0.24247 0.51672,0.53387 0.68741,0.61704 0.68623,0.33438 1.70123,0.23852 2.19715,-0.38734 0.50068,-0.63187 0.30248,-1.64091 -0.45344,-1.9728 -0.26796,-0.1176 -1.09404,-0.25699 -1.04001,-0.65862 0.0491,-0.36508 0.50349,-0.33086 0.7439,-0.20166 0.0845,0.0455 0.19171,0.16285 0.29611,0.13253 0.19901,-0.0579 0.41461,-0.37837 0.55931,-0.52305 m -15.16701,0.48269 c 1.49324,0.0271 1.45687,2.34513 -0.0329,2.30088 -1.49652,-0.0444 -1.46895,-2.32812 0.0329,-2.30088 m 9.67266,-0.005 c 1.44527,0 1.5198,2.27585 0.0659,2.28596 -0.26611,0.001 -0.49589,-0.0299 -0.72319,-0.18111 -0.93536,-0.6222 -0.44068,-2.10485 0.65739,-2.10485 m -6.61294,4.88506 -0.33311,1.31601 -0.78549,3.05972 h 0.4935 l 0.55002,-2.17141 0.20669,-0.88831 c 0.25871,0.21775 0.4206,0.7441 0.56173,1.05282 0.32336,0.70728 0.7252,1.38518 1.01747,2.10561 h 0.0329 l 1.07779,-2.20432 0.50142,-0.95411 0.75671,3.05972 0.4606,0.0329 c 0.0885,-0.34345 -0.18755,-0.94107 -0.28255,-1.2831 -0.19681,-0.70851 -0.37378,-1.42509 -0.55214,-2.13851 -0.0812,-0.32494 -0.20758,-0.65524 -0.25102,-0.98701 -0.25008,0.20144 -0.38981,0.69797 -0.53433,0.98701 -0.39445,0.78892 -0.88418,1.60288 -1.17648,2.43462 -0.47204,-0.79428 -0.82892,-1.67368 -1.24229,-2.50042 -0.12293,-0.24586 -0.26317,-0.78322 -0.50143,-0.92121 m -7.63284,0.0329 v 1.67791 c -0.29563,-0.19575 -0.55626,-0.39884 -0.9212,-0.45192 -1.63622,-0.23797 -2.51758,1.97087 -1.15151,2.9132 0.18664,0.1288 0.40309,0.20854 0.62511,0.24949 0.23313,0.0429 0.49477,0.0328 0.7238,-0.028 0.27408,-0.0729 0.51758,-0.22096 0.7238,-0.41262 v 0.4277 h 0.46061 v -4.37573 h -0.46061 m 19.60853,0 v 1.67791 c -0.25359,-0.22262 -0.52385,-0.36812 -0.85541,-0.43426 -1.6629,-0.33168 -2.52307,1.85375 -1.2502,2.86035 0.18313,0.14482 0.39717,0.23281 0.62509,0.27828 0.24543,0.0489 0.51437,0.0403 0.75671,-0.0215 0.27844,-0.0711 0.51873,-0.21424 0.72381,-0.41277 v 0.42769 h 0.4606 v -4.37573 h -0.4606 m 7.79734,0 v 1.67792 c -0.23995,-0.20853 -0.51305,-0.35633 -0.82251,-0.43167 -1.6265,-0.39596 -2.6445,1.91148 -1.2831,2.86567 0.18046,0.12653 0.3764,0.21745 0.5922,0.26366 0.24564,0.0525 0.51204,0.0497 0.7567,-0.007 0.292,-0.0677 0.53924,-0.21784 0.75671,-0.42055 v 0.42771 h 0.4606 v -4.37573 h -0.4606 m -3.88206,0.0536 c -0.37506,0.14189 -0.1324,0.69148 0.22953,0.55077 0.35225,-0.13693 0.12933,-0.68653 -0.22953,-0.55077 m -21.8788,3.0061 c 0.58904,-0.14865 1.33372,-0.0329 1.94112,-0.0329 0.16848,0 0.60133,0.0781 0.73598,-0.0292 0.0933,-0.0744 0.0503,-0.26676 0.0341,-0.36556 -0.0577,-0.35489 -0.18392,-0.69155 -0.4431,-0.95212 -0.63142,-0.63484 -1.75513,-0.61176 -2.3455,0.0683 -0.81904,0.94337 -0.261,2.60978 1.06438,2.65989 0.35167,0.0133 0.67934,-0.0472 0.987,-0.22482 0.1228,-0.0709 0.30168,-0.17847 0.18948,-0.33371 -0.25646,-0.35487 -0.63106,0.0849 -0.97908,0.098 -0.6112,0.0229 -0.95162,-0.37863 -1.18441,-0.8877 m 14.04839,0.88831 v 0.42769 h 0.4606 v -2.2701 l -0.0375,-0.84414 -0.42313,-0.0441 v 0.4606 c -0.29805,-0.20285 -0.55449,-0.38705 -0.9212,-0.44689 -1.60356,-0.2617 -2.48553,1.88342 -1.2173,2.86003 0.17345,0.13358 0.37901,0.2281 0.5922,0.27752 0.24466,0.0567 0.51106,0.0596 0.7567,0.007 0.30568,-0.0655 0.55704,-0.2234 0.7896,-0.42756 m 5.32984,0.46061 h 0.4606 v -1.3489 c 0,-0.2344 -0.0323,-0.49571 0.0293,-0.72381 0.13583,-0.50298 0.61604,-0.71323 1.08921,-0.5922 v -0.49351 c -0.42872,-0.005 -0.78521,0.0221 -1.11861,0.329 v -0.36191 l -0.43136,0.0487 -0.0292,0.83971 v 2.30302 m 2.36881,0 h 0.46062 v -3.19133 l -0.43136,0.0487 -0.0292,0.8397 v 2.30303 m -24.70805,-2.72219 c 1.45456,-0.19585 1.78558,2.08843 0.329,2.25702 -0.21082,0.0244 -0.42883,0.007 -0.62511,-0.0753 -1.05201,-0.43793 -0.81625,-2.03185 0.29611,-2.18161 m 5.19823,0.91267 h -2.23721 c 0.256,-1.147 2.0714,-1.25972 2.23721,0 m 10.46226,-0.91252 c 1.44653,-0.21263 1.84971,2.01205 0.3948,2.25229 -1.46517,0.24193 -1.87026,-2.03541 -0.3948,-2.25229 m 3.94803,0 c 1.44256,-0.20982 1.81605,2.04125 0.3619,2.25274 -1.47569,0.21464 -1.84349,-2.03725 -0.3619,-2.25274 m 7.79735,0 c 1.44065,-0.20955 1.81193,2.04185 0.36191,2.25274 -0.19352,0.0281 -0.4069,0.0144 -0.59222,-0.0481 -1.11443,-0.3762 -0.89794,-2.04052 0.23031,-2.20461 z"
       id="path8608" /></g></svg>
