<?xml version="1.0" encoding="UTF-8" standalone="no"?>
<!-- Created with Inkscape (http://www.inkscape.org/) -->

<svg
   width="157.28665mm"
   height="43.922031mm"
   viewBox="0 0 157.28665 43.922031"
   version="1.1"
   id="svg1"
   xml:space="preserve"
   inkscape:version="1.3.2 (091e20e, 2023-11-25, custom)"
   sodipodi:docname="uc3m_logo2_vector.svg"
   inkscape:export-filename="uc3m_newLogo2.png"
   inkscape:export-xdpi="300"
   inkscape:export-ydpi="300"
   xmlns:inkscape="http://www.inkscape.org/namespaces/inkscape"
   xmlns:sodipodi="http://sodipodi.sourceforge.net/DTD/sodipodi-0.dtd"
   xmlns="http://www.w3.org/2000/svg"
   xmlns:svg="http://www.w3.org/2000/svg"><sodipodi:namedview
     id="namedview1"
     pagecolor="#505050"
     bordercolor="#eeeeee"
     borderopacity="1"
     inkscape:showpageshadow="0"
     inkscape:pageopacity="0"
     inkscape:pagecheckerboard="0"
     inkscape:deskcolor="#505050"
     inkscape:document-units="mm"
     inkscape:zoom="1.0242632"
     inkscape:cx="277.27247"
     inkscape:cy="23.919632"
     inkscape:window-width="1568"
     inkscape:window-height="993"
     inkscape:window-x="336"
     inkscape:window-y="0"
     inkscape:window-maximized="0"
     inkscape:current-layer="layer1"
     inkscape:export-bgcolor="#ffffffff" /><defs
     id="defs1" /><g
     inkscape:label="Capa 1"
     inkscape:groupmode="layer"
     id="layer1"
     transform="translate(201.40421,159.1566)"><path
       style="fill:#061174;stroke:none;stroke-width:0.233151"
       d="m -132.45469,-159.15659 v 43.83956 h 1.39826 v -43.83956 h -1.39826 m 68.761482,0 v 4.11253 c -0.663756,-0.48814 -1.313052,-0.88161 -2.138515,-1.03385 -0.579332,-0.10684 -1.248366,-0.0633 -1.809513,0.10511 -0.579122,0.17382 -1.111924,0.45136 -1.562759,0.85753 -2.826637,2.54661 -0.633155,7.5302 3.207772,6.94637 0.918947,-0.13969 1.529277,-0.56608 2.303015,-1.03537 v 0.98701 h 1.233759 l -0.08225,-6.9913 0.08225,-3.94803 h -1.233759 m 18.259627,0 v 4.19478 c -0.589096,-0.54914 -1.265053,-0.92634 -2.056263,-1.09819 -4.095274,-0.88953 -6.543364,4.6717 -3.207772,7.13257 0.443085,0.32689 0.942738,0.56758 1.48051,0.69227 0.629861,0.14605 1.263498,0.12653 1.891764,-0.016 0.724058,-0.16425 1.351422,-0.53315 1.891761,-1.03537 v 1.06926 h 1.151509 v -10.93933 h -1.151509 m -75.423779,0.0822 v 5.18179 c 0,1.29546 -0.061,2.53488 0.60051,3.70127 1.74999,3.0857 6.40261,2.48699 7.67177,-0.658 0.38765,-0.9606 0.28178,-2.02995 0.28178,-3.04327 v -5.18179 h -1.15151 v 5.01729 c 0,0.80615 0.14806,1.77978 -0.12375,2.54976 -0.89715,2.54144 -4.38239,3.01654 -5.72708,0.57576 -0.50432,-0.91542 -0.40021,-1.95602 -0.40021,-2.96102 v -5.18179 h -1.15151 m 17.93215,0.0518 c -0.84179,0.32874 -0.27878,1.69483 0.57385,1.37693 0.94062,-0.3507 0.37657,-1.7481 -0.57385,-1.37693 m 30.354271,0 c -0.822721,0.33485 -0.278427,1.68997 0.570423,1.37693 0.949467,-0.35013 0.381585,-1.7644 -0.570423,-1.37693 m -28.464031,2.82698 3.865778,7.97831 h 0.164502 l 3.783525,-7.97831 -1.269553,0.0731 -0.768051,1.48965 -1.828172,3.86578 -1.873104,-3.86578 -0.80537,-1.48965 -1.269555,-0.0731 m -9.78782,0.0823 v 7.97831 h 1.15151 v -3.61903 c 0,-0.69877 -0.0774,-1.42069 0.27188,-2.05626 0.86019,-1.56513 3.06114,-1.413 3.72261,0.24675 0.21838,0.54797 0.11804,1.23023 0.11804,1.80951 v 3.61903 h 1.15151 v -3.61903 c 0,-0.7025 0.0844,-1.45786 -0.11652,-2.13851 -0.46299,-1.5687 -2.10792,-2.43539 -3.66701,-2.11719 -0.56276,0.11485 -0.99768,0.43165 -1.48051,0.71893 v -0.82251 h -1.15151 m 7.64931,0 v 7.97831 h 1.1515 v -7.97831 h -1.1515 m 17.025866,6.90905 c -0.590458,-1.39447 -1.544208,-0.19843 -2.549768,-0.0933 -1.418868,0.14835 -2.741048,-0.93791 -3.043272,-2.29197 h 6.744548 c 0.08599,-1.29328 -0.211209,-2.49743 -1.162553,-3.44348 -1.709807,-1.70028 -4.804319,-1.36517 -6.116243,0.64696 -1.61588,2.47833 -0.116279,5.83319 2.837265,6.22972 1.259215,0.16906 2.2966,-0.33689 3.290023,-1.04793 m 2.385265,0.98701 1.151509,0.0823 c 0,-1.31592 -0.02449,-2.6348 0.03732,-3.94803 0.04775,-1.01465 0.01406,-1.83851 0.949692,-2.50331 0.635578,-0.4516 1.238297,-0.17064 1.891762,-0.37546 l -0.07806,-0.94931 -0.826692,-0.18087 -1.974014,0.80118 v -0.82251 l -1.057836,0.11652 -0.09367,2.10425 v 5.67529 m 4.606034,-1.72727 c 0.780607,2.87661 5.393772,2.08604 5.176837,-0.90475 -0.09412,-1.29761 -1.570563,-1.80003 -2.544818,-2.32663 -0.389246,-0.21039 -1.13564,-0.57827 -1.01709,-1.1279 0.169182,-0.78435 1.126449,-0.84006 1.673572,-0.44666 0.186761,0.13429 0.341914,0.42654 0.582225,0.46304 0.266874,0.0405 0.592591,-0.22817 0.817556,-0.34538 -0.341438,-2.09714 -3.73501,-1.88353 -4.239328,0 -0.457138,1.70733 1.187744,2.37243 2.429816,3.02461 0.601633,0.31591 1.449681,0.88696 0.935601,1.66367 -0.535504,0.80908 -1.471625,0.76506 -2.167838,0.20754 -0.195372,-0.15646 -0.358804,-0.49621 -0.600122,-0.57424 -0.310429,-0.10036 -0.766884,0.2533 -1.046411,0.3667 m 6.333293,-6.16879 v 7.97831 h 1.151508 v -7.97831 h -1.151508 m 18.259628,6.8268 v 1.06926 h 1.151508 v -7.89606 h -1.151508 v 1.15151 c -0.498147,-0.48227 -1.061862,-0.81127 -1.727262,-1.01099 -0.585137,-0.17564 -1.291399,-0.21761 -1.891764,-0.0872 -0.632928,0.13747 -1.228662,0.36808 -1.727261,0.79089 -3.03551,2.57409 -0.876663,7.86242 3.207772,7.06822 0.837365,-0.16282 1.513007,-0.50255 2.138515,-1.08563 m -31.58422,-3.45452 h -5.59304 c 0.679193,-3.04298 4.790384,-2.79708 5.59304,0 m 19.082134,-2.19792 c 3.648976,-0.60818 4.715055,4.9447 1.069257,5.61703 -3.609326,0.6656 -4.719499,-5.00865 -1.069257,-5.61703 m 9.129814,-0.001 c 0.483793,-0.0711 1.019626,-0.0462 1.48051,0.11652 2.723888,0.96156 2.364478,5.03788 -0.493504,5.51422 -3.587638,0.59795 -4.608477,-5.09843 -0.987006,-5.63074 m 9.129814,0 c 0.485922,-0.0714 1.014466,-0.0323 1.48051,0.11995 2.823166,0.92254 2.241537,5.10217 -0.575755,5.51193 -3.583055,0.52114 -4.512321,-5.10161 -0.904755,-5.63188 m -10.445825,9.43711 v 15.13411 h 3.290023 v -15.13408 h -3.290023 m 5.922042,0 v 15.1341 h 3.290023 v -15.1341 h -3.290023 m 5.839791,15.1341 h 3.372274 v -15.1341 h -2.467517 l -0.831653,0.12147 -0.0731,1.11229 v 2.79652 11.10383 m -62.345931,-4.44154 c -0.99828,0.66981 -1.78788,1.34597 -3.04328,1.46947 -4.26285,0.41938 -6.68132,-5.25052 -3.37075,-8.00001 0.44476,-0.36938 0.92936,-0.68583 1.47899,-0.87201 0.70584,-0.2391 1.39621,-0.31503 2.13851,-0.23571 1.13488,0.12128 1.85806,0.86578 2.79652,1.38722 v -2.54977 c 0,-0.27991 0.096,-0.78255 -0.0731,-1.0228 -0.16763,-0.23812 -0.57521,-0.30049 -0.83165,-0.3926 -0.92373,-0.33179 -1.82513,-0.39411 -2.79652,-0.39411 -4.37675,0 -7.26649,3.88144 -7.23805,7.9783 0.0265,3.81562 3.57749,7.06634 7.3203,7.07356 0.9031,0.002 1.76964,-0.0994 2.63202,-0.38384 0.28215,-0.0931 0.7474,-0.18307 0.9139,-0.45505 0.16339,-0.26689 0.0731,-0.7519 0.0731,-1.05288 v -2.54977 m 21.878658,-10.61032 v 10.36357 3.12552 l 0.08225,1.64502 h 2.632017 v -15.13411 h -2.714268 m -6.991299,15.13411 c 0.621721,-0.0489 1.266862,0 1.891764,0 0.211083,0 0.600546,0.0706 0.749394,-0.12148 0.268607,-0.34653 0.07311,-1.42335 0.07311,-1.85254 0,-1.48583 -0.294013,-3.32374 0.03922,-4.77053 0.164688,-0.71502 0.78803,-1.30171 1.523538,-1.38684 0.375273,-0.0434 0.709507,0.074 1.069257,0.15308 v -2.05626 l -0.07311,-0.77072 -0.749391,-0.0731 -1.809512,0.59708 c -0.0039,-0.96329 -1.076508,-0.658 -1.809513,-0.658 -0.256956,0 -0.814695,-0.10722 -0.947788,0.1824 -0.307703,0.66959 -0.03922,2.04013 -0.03922,2.77862 v 5.34629 c 0,0.81477 -0.17011,1.85706 0.08225,2.63202 m 16.367864,-10.90544 c -1.698717,0.23462 -3.153669,0.83008 -4.203533,2.26912 -2.8276,3.8758 0.69096,9.15673 5.27279,8.53274 2.775535,-0.378 4.781037,-2.97646 4.601084,-5.73622 -0.177379,-2.72024 -2.784567,-5.46421 -5.670341,-5.06564 m -21.138398,10.08293 c 0,1.01854 0.623545,0.82251 1.480511,0.82251 0.267965,0 0.891722,0.11858 1.030036,-0.1824 0.119071,-0.2591 0.03922,-0.68937 0.03922,-0.96911 v -2.13852 -7.56705 h -2.549768 v 0.74025 c -0.950112,-0.48601 -1.810752,-0.74025 -2.878772,-0.74025 -0.82324,0 -1.54583,0.14704 -2.30302,0.48094 -0.63407,0.2796 -1.2526,0.71996 -1.70555,1.24632 -3.06614,3.56307 -0.41919,9.61832 4.50207,9.05823 0.85339,-0.0971 1.64212,-0.30926 2.385272,-0.75092 m 35.120997,-8.71856 c -1.705425,-2.35744 -5.998686,-1.50948 -6.864118,1.15151 -0.712545,2.19087 0.903636,3.16021 2.669337,3.83188 0.610255,0.23214 1.729973,0.41385 1.863585,1.1854 0.162483,0.93825 -1.149193,1.09261 -1.781334,1.06773 -0.464265,-0.0183 -0.938683,-0.20265 -1.316008,-0.47065 -0.206761,-0.14685 -0.467841,-0.51874 -0.740255,-0.51864 -0.304937,1.2e-4 -0.627961,0.46682 -0.822507,0.66182 -0.157291,0.15765 -0.423472,0.35079 -0.484747,0.57575 -0.165108,0.60617 1.291791,1.33466 1.718507,1.54258 1.71558,0.83595 4.253098,0.59631 5.492892,-0.96835 1.251679,-1.57966 0.756198,-4.10227 -1.133612,-4.93199 -0.669888,-0.29411 -2.735093,-0.64248 -2.60003,-1.64653 0.122772,-0.91271 1.258744,-0.82717 1.859775,-0.50417 0.211268,0.11354 0.479256,0.40711 0.740255,0.33129 0.497545,-0.14454 1.036546,-0.94592 1.39826,-1.30763 m -37.917519,1.20672 c 3.733086,0.0677 3.642155,5.86285 -0.0823,5.75221 -3.74131,-0.11114 -3.67236,-5.82029 0.0823,-5.75221 m 24.181673,-0.0126 c 3.613141,0 3.799471,5.68965 0.1645,5.7149 -0.665283,0.005 -1.239747,-0.0748 -1.807992,-0.45277 -2.338381,-1.55548 -1.101696,-5.26213 1.643492,-5.26213 m -16.532366,12.21269 -0.832788,3.29002 -1.963733,7.64931 h 1.233759 l 1.375031,-5.42854 0.516733,-2.22077 c 0.646769,0.54436 1.051503,1.86022 1.404352,2.63202 0.808386,1.76822 1.812993,3.46298 2.543675,5.26404 h 0.08225 l 2.694469,-5.51079 1.253559,-2.38527 1.891763,7.64931 1.151509,0.0823 c 0.221358,-0.85864 -0.468844,-2.3527 -0.706365,-3.20777 -0.492024,-1.77129 -0.93447,-3.56273 -1.380362,-5.34629 -0.203087,-0.81236 -0.518946,-1.6381 -0.627543,-2.46752 -0.625177,0.50359 -0.974521,1.74494 -1.335808,2.46752 -0.986155,1.97231 -2.210479,4.00722 -2.941222,6.08654 -1.180095,-1.98569 -2.072292,-4.18419 -3.105719,-6.25104 -0.307324,-0.61465 -0.65793,-1.95806 -1.253561,-2.30302 m -19.082136,0.0823 v 4.19478 c -0.73909,-0.48938 -1.39065,-0.9971 -2.30301,-1.1298 -4.09054,-0.59496 -6.29394,4.92715 -2.87877,7.28298 0.46659,0.32187 1.00774,0.52138 1.56276,0.62373 0.58283,0.10749 1.23694,0.0821 1.80951,-0.0701 0.68521,-0.18214 1.29397,-0.55239 1.80951,-1.03156 v 1.06926 h 1.15151 v -10.93933 h -1.15151 m 49.021345,0 v 4.19478 c -0.633942,-0.55653 -1.309612,-0.9203 -2.138514,-1.08563 -4.157225,-0.8292 -6.307688,4.63435 -3.125523,7.15085 0.457846,0.36207 0.992935,0.58205 1.562761,0.6957 0.613552,0.12238 1.285918,0.10081 1.891764,-0.0537 0.696092,-0.17751 1.296818,-0.53559 1.809512,-1.03194 v 1.06926 h 1.151509 v -10.93933 h -1.151509 m 19.493385,0 v 4.19478 c -0.59986,-0.52132 -1.282635,-0.89082 -2.056263,-1.07916 -4.066277,-0.98989 -6.611277,4.77871 -3.207772,7.16418 0.451164,0.31622 0.940987,0.54362 1.48051,0.65915 0.614093,0.13149 1.280085,0.12431 1.891764,-0.0175 0.730004,-0.16927 1.348106,-0.54459 1.891761,-1.05136 v 1.06925 h 1.151509 v -10.93932 h -1.151509 m -9.705184,0.13403 c -0.937634,0.35475 -0.330951,1.72869 0.57385,1.37694 0.880629,-0.34235 0.323239,-1.71635 -0.57385,-1.37694 m -54.697016,7.51527 c 1.47258,-0.37164 3.33428,-0.0823 4.85278,-0.0823 0.42122,0 1.50333,0.19521 1.83998,-0.0731 0.23343,-0.18606 0.12551,-0.6669 0.0853,-0.9139 -0.14445,-0.88722 -0.45979,-1.72888 -1.10772,-2.38031 -1.57857,-1.5871 -4.38786,-1.52939 -5.86378,0.17059 -2.0476,2.35843 -0.6525,6.52445 2.66096,6.64973 0.87917,0.0332 1.69835,-0.11794 2.46751,-0.56205 0.307,-0.17724 0.75421,-0.44619 0.47371,-0.8343 -0.64118,-0.88717 -1.57768,0.21229 -2.44772,0.24484 -1.528,0.0572 -2.37907,-0.94656 -2.96102,-2.21924 m 35.120997,2.22077 v 1.06925 h 1.151507 v -5.67529 l -0.09367,-2.11033 -1.057836,-0.11043 v 1.15151 c -0.745146,-0.50714 -1.386247,-0.96763 -2.303016,-1.11724 -4.008903,-0.65423 -6.213819,4.70857 -3.043272,7.15009 0.433638,0.33393 0.947559,0.57023 1.48051,0.6938 0.611684,0.14183 1.27766,0.149 1.891764,0.0175 0.764197,-0.16363 1.392612,-0.55848 1.974014,-1.06888 m 13.324592,1.15151 h 1.151509 v -3.37227 c 0,-0.58597 -0.08051,-1.23926 0.0735,-1.80952 0.339578,-1.25743 1.540099,-1.78306 2.723023,-1.48051 v -1.23376 c -1.071787,-0.0131 -1.96302,0.0552 -2.796519,0.82251 v -0.90476 l -1.078395,0.12148 -0.07311,2.09929 v 5.75754 m 5.922042,0 h 1.151509 v -7.97831 l -1.078395,0.12148 -0.07311,2.09929 v 5.75754 m -61.770184,-6.80547 c 3.63639,-0.48962 4.46396,5.22107 0.8225,5.64254 -0.52703,0.061 -1.07207,0.0158 -1.56276,-0.18849 -2.63003,-1.09483 -2.04065,-5.07962 0.74026,-5.45405 m 12.99559,2.28169 h -5.59304 c 0.64003,-2.86751 5.17852,-3.14931 5.59304,0 m 26.155686,-2.28131 c 3.616319,-0.53157 4.624266,5.03014 0.987006,5.63074 -3.66295,0.60484 -4.67568,-5.08854 -0.987006,-5.63074 m 9.870069,0 c 3.606396,-0.52454 4.540118,5.10312 0.904756,5.63188 -3.689241,0.53659 -4.608739,-5.09315 -0.904756,-5.63188 m 19.493385,0 c 3.601628,-0.52385 4.529838,5.10462 0.904758,5.63188 -0.483784,0.0704 -1.017234,0.0361 -1.480511,-0.12033 -2.786108,-0.94053 -2.244866,-5.1013 0.575753,-5.51155 z"
       id="path8608" /><path
       style="fill:#010d77;stroke:none;stroke-width:0.246721"
       d="m -174.20237,-146.01375 v 3.53026 h 5.74449 l -0.32195,0.81467 -0.62667,1.62935 -0.73111,1.9009 -0.34651,0.91911 c 0.57232,0 1.14138,0.0209 1.71289,0.0209 0.49697,0 0.99691,-0.0296 1.48313,0.0913 0.6574,0.16334 1.23536,0.49317 1.7129,0.97405 0.3296,0.33191 0.60465,0.75104 0.76613,1.19068 0.16487,0.44889 0.26662,0.93991 0.23528,1.42045 -0.032,0.49125 -0.15527,0.98079 -0.37986,1.42046 -0.96929,1.89755 -3.39228,2.47169 -5.13358,1.30208 -0.45179,-0.30346 -0.81478,-0.72735 -1.08294,-1.19764 -0.29088,-0.5101 -0.44196,-1.10569 -0.44196,-1.69201 h -3.48848 c 0,1.45843 0.43202,2.87954 1.28043,4.07337 0.73562,1.03511 1.7542,1.86002 2.91828,2.36616 3.2996,1.43467 7.27293,0.0762 8.98828,-3.09728 0.33768,-0.62474 0.59002,-1.30476 0.71652,-2.00535 0.45144,-2.50037 -0.42904,-5.08459 -2.39364,-6.72782 -0.44498,-0.37219 -0.94872,-0.71698 -1.48312,-0.94706 -0.16185,-0.0696 -0.32547,-0.1738 -0.50134,-0.20029 l 0.22117,-0.60578 0.50134,-1.29513 1.51262,-3.90624 -10.8623,0.0209 m -27.19755,5.26404 v 6.05783 c 0,1.48905 -0.0858,2.94363 0.50995,4.34492 0.27548,0.64795 0.68432,1.27685 1.18207,1.77557 0.76804,0.76952 1.6838,1.3632 2.73646,1.66251 2.59223,0.73706 5.49115,-0.31247 6.92656,-2.62341 0.44764,-0.72067 0.76564,-1.5377 0.88054,-2.38135 0.12355,-0.90724 0.0681,-1.8424 0.0681,-2.75736 v -6.07871 h -3.53026 v 6.49649 c 0,0.60606 0.069,1.26054 -0.0296,1.85913 -0.0852,0.51699 -0.33381,0.99164 -0.68344,1.37868 -1.26871,1.40442 -3.65534,0.91523 -4.35411,-0.81467 -0.19724,-0.48831 -0.1969,-0.9869 -0.1969,-1.50402 v -1.50401 -5.9116 h -3.50936 m 43.01055,0.0209 v 14.03745 h 3.50936 v -5.89072 c 0,-0.52975 0.0114,-1.05961 0.0208,-1.58756 0.009,-0.49693 -0.005,-0.95049 0.1882,-1.42046 0.1293,-0.31412 0.32858,-0.61245 0.56516,-0.85606 1.10247,-1.13524 3.00697,-0.97753 3.94929,0.27117 0.68973,0.91399 0.5406,2.05608 0.5406,3.13335 v 6.35028 h 3.53025 v -6.37116 c 0,-1.05584 -0.16,-2.19163 0.51081,-3.09158 0.99865,-1.33979 2.90897,-1.3866 4.04261,-0.20889 0.22188,0.2305 0.39567,0.51846 0.51372,0.81467 0.18183,0.45627 0.17601,0.91762 0.17601,1.39956 v 1.5458 5.9116 h 3.53025 v -6.39206 c 0,-1.30803 0.12978,-2.67961 -0.34284,-3.92714 -0.26454,-0.69827 -0.65113,-1.35394 -1.16243,-1.9009 -1.47557,-1.57849 -3.79546,-2.21351 -5.86856,-1.59366 -0.81978,0.24512 -1.57855,0.66796 -2.21425,1.24135 -0.19398,0.17498 -0.36018,0.37601 -0.54311,0.5612 -0.0984,-0.20259 -0.31256,-0.38145 -0.48045,-0.52764 -0.24194,-0.21067 -0.48446,-0.40849 -0.75201,-0.58644 -1.31015,-0.87141 -3.05571,-1.15837 -4.57469,-0.73643 -0.6002,0.16671 -1.09157,0.47047 -1.65024,0.72251 l 0.0209,-0.89824 h -3.50936 m -18.8837,9.33741 c -0.20461,0.13728 -0.38058,0.31865 -0.58489,0.45927 -0.45978,0.31645 -0.98014,0.54013 -1.5249,0.66013 -0.56188,0.12378 -1.17259,0.14339 -1.73379,0.005 -0.48007,-0.11761 -0.92156,-0.32839 -1.31602,-0.62667 -0.36236,-0.27401 -0.65813,-0.61498 -0.89725,-0.99997 -0.19186,-0.30888 -0.31789,-0.65131 -0.4056,-1.00267 -0.38833,-1.55575 0.44382,-3.23129 1.86686,-3.94281 0.64672,-0.32336 1.41652,-0.43966 2.13068,-0.33084 0.65699,0.10012 1.28332,0.32104 1.83824,0.69098 0.22169,0.1478 0.40864,0.34406 0.62667,0.49109 v -2.92446 -0.79379 c 0,-0.0841 0.0284,-0.2331 -0.0186,-0.30657 -0.0424,-0.0663 -0.16308,-0.0942 -0.2321,-0.12349 -0.21204,-0.0901 -0.42776,-0.16974 -0.64756,-0.23868 -0.91191,-0.28602 -1.87074,-0.38982 -2.82002,-0.29496 -2.72918,0.27271 -5.07736,2.12664 -5.97311,4.72373 -0.30102,0.87277 -0.36263,1.75915 -0.35627,2.67379 0.004,0.47328 0.11324,0.96431 0.23239,1.42046 0.50941,1.95031 1.91004,3.60552 3.71564,4.48602 0.84547,0.4123 1.72734,0.58568 2.6529,0.67638 0.86285,0.0846 1.79008,-0.0564 2.61113,-0.33007 0.19787,-0.066 0.39324,-0.13676 0.5849,-0.21914 0.0695,-0.0298 0.1676,-0.0553 0.21982,-0.11295 0.0575,-0.0634 0.0308,-0.20144 0.0308,-0.28065 v -0.75201 z"
       id="path8610" /></g></svg>
