<?xml version="1.0" encoding="UTF-8" standalone="no"?>
<!-- Created with Inkscape (http://www.inkscape.org/) -->

<svg
   width="211.66667mm"
   height="236.34895mm"
   viewBox="0 0 211.66667 236.34895"
   version="1.1"
   id="svg1"
   inkscape:version="1.3.2 (091e20e, 2023-11-25, custom)"
   sodipodi:docname="asimo-bg.svg"
   xmlns:inkscape="http://www.inkscape.org/namespaces/inkscape"
   xmlns:sodipodi="http://sodipodi.sourceforge.net/DTD/sodipodi-0.dtd"
   xmlns="http://www.w3.org/2000/svg"
   xmlns:svg="http://www.w3.org/2000/svg">
  <sodipodi:namedview
     id="namedview1"
     pagecolor="#505050"
     bordercolor="#eeeeee"
     borderopacity="1"
     inkscape:showpageshadow="0"
     inkscape:pageopacity="0"
     inkscape:pagecheckerboard="0"
     inkscape:deskcolor="#505050"
     inkscape:document-units="mm"
     inkscape:zoom="0.72426347"
     inkscape:cx="188.46733"
     inkscape:cy="550.21414"
     inkscape:window-width="1920"
     inkscape:window-height="1009"
     inkscape:window-x="-8"
     inkscape:window-y="-8"
     inkscape:window-maximized="1"
     inkscape:current-layer="layer1" />
  <defs
     id="defs1" />
  <g
     inkscape:label="Capa 1"
     inkscape:groupmode="layer"
     id="layer1"
     transform="translate(-55.078911,-2.9251858)">
    <path
       style="fill:#000000;stroke-width:1.41343"
       d="m 155.88875,238.62874 -5.96383,-0.55131 -0.95462,-0.4034 -0.95463,-0.40342 0.86996,-0.14998 0.87011,-0.14998 -0.20382,-0.53119 -0.20381,-0.53121 h 1.97908 1.97908 l 6.76311,0.39853 6.76312,0.39851 3.86756,-1.83078 3.86741,-1.83078 1.21541,-1.03178 1.2154,-1.03178 v -2.30407 -2.30407 l -0.33356,-0.52704 -0.33372,-0.52704 0.19152,-0.49924 0.19167,-0.49921 0.29993,0.18535 0.29979,0.18534 -0.18771,-0.71796 -0.1877,-0.71797 0.39816,-0.68493 0.3983,-0.68494 0.0141,0.61283 0.0141,0.61284 1.40156,0.26292 1.40141,0.26292 0.23026,0.37244 0.2301,0.37243 1.26656,0.0608 1.26658,0.0608 0.11866,-1.02842 0.1188,-1.02842 h 0.32707 0.32707 l 0.24565,0.39754 0.24579,0.39754 -0.59759,0.66033 -0.5976,0.66032 v 0.25103 0.25104 h 0.72579 0.72594 l 0.21343,0.34537 0.21343,0.34536 1.77201,0.58856 1.77187,0.58855 0.30021,-0.0291 0.30021,-0.0291 0.94544,0.61944 0.94544,0.61947 0.53075,-0.20367 0.53075,-0.20365 v 0.6614 0.66141 l -0.46432,0.46434 -0.46446,0.46434 0.43054,0.26602 0.43038,0.26602 -1.74246,0.14536 -1.74248,0.14534 -1.58926,0.0307 -1.5894,0.0307 v 0.32325 0.32326 l -1.4024,-0.22496 -1.4024,-0.22496 -1.86982,-0.0471 -1.86983,-0.0471 -0.37399,-0.27564 -0.374,-0.27562 -0.74798,0.30596 -0.74784,0.30594 0.84141,0.2524 0.84141,0.2524 v 0.51734 0.51733 h 1.12184 1.12198 v 0.28248 0.28245 l -1.2154,0.4102 -1.21542,0.41022 -0.71576,0.3058 -0.71576,0.30581 0.30602,-0.49531 0.30614,-0.4953 -0.41541,0.25674 -0.4154,0.25674 0.23561,0.6139 0.23548,0.61392 -0.64522,-0.24764 -0.64538,-0.24761 0.23054,0.37284 0.23038,0.37285 -0.86544,0.3269 -0.86544,0.3269 -0.28057,-0.16514 -0.28043,-0.16516 v 0.58302 0.58302 h -0.39604 -0.39604 l 0.26106,-0.42247 0.26121,-0.42249 -0.33259,0.14437 -0.33257,0.14437 -2.95081,1.40003 -2.95096,1.40001 -2.84566,-0.0469 -2.8455,-0.0469 z m 11.01244,-1.03763 v -0.18698 h -0.187 -0.187 v 0.18698 0.18699 h 0.187 0.187 z m 8.52381,-3.38272 0.1088,-0.0776 -0.59646,-0.2289 -0.59647,-0.2289 0.20171,0.32628 0.20154,0.3263 -1.10473,0.45758 -1.10473,0.45762 -0.43096,0.51934 -0.4311,0.51936 1.82107,-0.99676 1.82092,-0.99676 z m -3.66233,1.13891 v -0.18699 h -0.18685 -0.187 v 0.18699 0.18699 h 0.187 0.18685 z m 4.11379,0 v -0.18699 h -0.187 -0.187 v 0.18699 0.18699 h 0.187 0.187 z m -2.99182,-0.74795 v -0.18698 h -0.18698 -0.187 v 0.18698 0.18699 h 0.187 0.18698 z m 0.74799,-0.37396 v -0.18698 h -0.18699 -0.187 v 0.18698 0.18698 h 0.187 0.18699 z m 4.11364,-2.24381 v -0.18699 h -0.18699 -0.187 v 0.18699 0.18697 h 0.187 0.18699 z m 2.61781,-0.37397 v -0.187 h 0.187 0.18686 v 0.187 0.18698 h -0.18686 -0.187 z m -7.4243,-1.81112 -0.82319,-0.8762 -3.13328,-0.46618 -3.13343,-0.46617 -0.2492,-1.32863 -0.24932,-1.32862 0.52707,-0.52698 0.52692,-0.52698 1.34135,1.48464 1.3412,1.48464 2.04014,0.2549 2.04014,0.2549 0.25428,-0.4114 0.25428,-0.41143 h 0.91278 0.91294 v 0.76652 0.76651 l -0.5706,1.10334 -0.5706,1.10334 h -0.29908 -0.29923 z m -24.33358,-0.094 -0.0297,-0.40924 -5.32911,-0.24515 -5.32906,-0.24515 -2.39134,-0.35325 -2.39133,-0.35325 -0.41344,-0.43179 -0.41343,-0.43179 2.7123,0.16762 2.7123,0.16762 0.3928,-0.47329 0.3928,-0.47331 -0.6743,-0.16196 -0.6743,-0.16196 6.25238,0.0372 6.25238,0.0372 0.853,-0.8929 0.853,-0.8929 -0.4554,0.25314 -0.45554,0.25313 0.99801,-1.86068 0.99817,-1.86068 0.45032,1.30979 0.45018,1.30981 0.6055,0.66911 0.60566,0.66908 -0.23604,0.61504 -0.23604,0.61504 h -1.07662 -1.0766 l -1.00098,1.51258 -1.001,1.51258 -0.47604,-0.18268 -0.47604,-0.18268 -0.18163,0.44646 -0.18163,0.44644 z m 3.33611,-5.2003 v -0.18698 h -0.18699 -0.187 v 0.18698 0.18699 h 0.187 0.18699 z m 39.76552,2.55547 0.24919,-0.24932 0.24933,0.24932 0.24932,0.24931 h -0.49865 -0.49852 z m -55.47219,-0.68561 v -0.18699 h 0.18698 0.18698 v 0.18699 0.18698 h -0.18698 -0.18698 z m 38.89283,-0.18699 v -0.37397 h 0.39604 0.39604 l -0.23109,0.37397 -0.23124,0.37397 h -0.1648 -0.16495 z m -8.80524,-4.28364 -0.26021,-1.73441 0.2041,-0.20399 0.20396,-0.20399 0.26007,1.73442 0.26007,1.73441 -0.20396,0.20397 -0.20395,0.20399 z m 14.41471,-0.25179 v -0.42177 l -1.45287,0.23233 -1.45285,0.23234 -0.22488,-0.83899 -0.22488,-0.83897 -0.0169,-1.3089 -0.0169,-1.30889 -0.54897,-0.72592 -0.54912,-0.72592 0.0777,-4.13568 0.0777,-4.13569 0.12294,3.47252 0.12293,3.4725 0.35972,-0.22234 0.35985,-0.22235 v 0.58303 0.58301 h -0.39604 -0.39604 l 0.2,0.32383 0.20014,0.32381 0.94601,-0.18084 0.94601,-0.18084 0.48395,0.40165 0.48396,0.40164 1.47732,-0.1096 1.47717,-0.1096 0.37399,-0.10533 0.374,-0.10533 0.46741,0.0443 0.46743,0.0443 v 0.56095 0.56096 h -0.44537 -0.44551 l 0.72593,0.54905 0.72594,0.54907 h 0.93498 0.93484 l -0.64862,-0.49256 -0.64862,-0.49254 0.24354,-0.2435 0.24353,-0.24351 h 0.64551 0.64565 l 0.21951,0.57215 0.2195,0.57213 2.43831,-0.24981 2.43829,-0.2498 v 0.78641 0.78644 l -0.80536,0.43101 -0.80537,0.431 -3.13315,-0.16444 -3.133,-0.16444 -0.57046,-0.81436 -0.57032,-0.81437 h -0.72679 -0.72677 v 0.37397 0.37396 h 0.74798 0.74798 v 0.57384 0.57384 l -1.86982,-0.24804 -1.86997,-0.24806 v 0.26188 0.26188 l 0.53428,0.53424 0.53428,0.53425 h 0.77469 0.77456 v 0.33396 0.33395 l -0.59152,0.227 -0.59152,0.227 h -0.34346 -0.34332 z m 5.9836,0.23479 v -0.18699 h 0.187 0.187 v 0.18699 0.18697 h -0.187 -0.187 z m -2.9918,-0.93493 v -0.49863 l 0.24933,0.24932 0.24932,0.24931 -0.24932,0.24932 -0.24933,0.2493 z m 1.86982,0.18698 v -0.18698 h 0.187 0.18699 v 0.18698 0.18698 h -0.18699 -0.187 z m 1.24664,-0.0624 0.24934,-0.24932 0.24918,0.24932 0.24932,0.2493 h -0.4985 -0.49867 z m 3.61499,0.0624 v -0.18698 h 0.187 0.18699 v 0.18698 0.18698 h -0.18699 -0.187 z m -42.36792,-3.18269 -0.19661,-0.75189 0.4335,-1.21146 0.4335,-1.21144 0.43265,-0.2796 0.43264,-0.27958 -0.20735,-0.84232 -0.20749,-0.84231 0.28552,0.26151 0.28565,0.26149 0.25216,1.23335 0.2523,1.23333 0.73285,0.001 0.73273,0.001 0.25427,-0.56095 0.25413,-0.56096 0.0311,1.30889 0.0311,1.30891 0.22557,0.84143 0.22544,0.84142 h -2.24381 -2.24382 z m 7.21484,-0.18304 v -0.18697 h 0.187 0.18699 v 0.18697 0.18699 h -0.18699 -0.187 z m 7.85328,-0.74792 v -0.187 h 0.187 0.187 v 0.187 0.18697 h -0.187 -0.187 z m -5.85879,-0.43631 0.24932,-0.2493 0.24934,0.2493 0.24932,0.24931 h -0.49866 -0.49865 z m 4.86162,0 0.24933,-0.2493 0.24919,0.2493 0.24933,0.24931 h -0.49852 -0.49865 z m 27.36213,-0.12466 0.23109,-0.37398 2.31519,0.005 2.3152,0.005 -0.56085,0.36252 -0.56099,0.36252 -1.98544,0.005 -1.98544,0.005 z m 5.79647,0 v -0.49864 l 0.24932,0.24932 0.24933,0.24932 -0.24933,0.2493 -0.24932,0.24932 z m -36.1764,-0.26836 1.03349,-0.15628 0.83633,0.16138 0.83632,0.1614 -1.86982,-0.005 -1.86983,-0.005 z m 37.04905,0.0191 0.24919,-0.2493 0.24932,0.2493 0.24933,0.24932 h -0.49865 -0.49852 z m 2.11915,-0.14672 v -0.39605 l 0.37385,0.23115 0.37399,0.23112 v 0.1649 0.16492 h -0.37399 -0.37385 z m -18.69852,-0.72586 -0.56099,-0.36252 h 0.56099 0.56098 l 0.56086,0.36252 0.56098,0.3625 h -0.56098 -0.56086 z m 6.54445,0.0141 -0.74799,-0.30753 0.65456,-0.26715 0.65442,-0.26713 v -0.888 -0.88799 l -1.2154,-1.66663 -1.21542,-1.66664 -0.56098,-0.0605 -0.56099,-0.0604 0.93499,-0.29941 0.93497,-0.29942 0.84141,-0.0373 0.84142,-0.0373 v 0.41452 0.41449 l -0.98007,-0.24597 -0.98021,-0.246 0.54756,0.54756 0.54756,0.54758 0.47802,1.15375 0.47788,1.15376 1.17004,-0.0373 1.17003,-0.0373 -0.8636,-0.2432 -0.86347,-0.2432 0.0268,-0.37396 0.0268,-0.37398 0.72326,-0.0107 0.72312,-0.0107 0.24353,-0.24346 0.24339,-0.24348 0.48169,0.18482 0.48169,0.18484 1.34178,-0.7191 1.34176,-0.71914 -0.23943,-0.23941 -0.23944,-0.23944 h -1.05964 -1.05951 v -0.35955 -0.35956 l 1.49583,-0.4028 1.49583,-0.40278 v -0.32839 -0.3284 l -1.0284,-0.38529 -1.02842,-0.38528 1.51392,0.20286 1.51392,0.20287 0.47364,-0.5706 0.47351,-0.57061 -0.78616,-0.42076 -0.78628,-0.42076 -0.73047,0.23184 -0.73045,0.23182 -0.47081,-0.29345 -0.47082,-0.29345 -3.34092,-0.1004 -3.34106,-0.1004 -0.29371,-0.4718 -0.29385,-0.4718 -0.71138,0.44065 -0.71137,0.44067 -0.32848,-0.31087 -0.32849,-0.31087 -0.74784,-0.1799 -0.74799,-0.1799 1.49583,-0.0492 1.49597,-0.0491 -0.56099,-0.36252 -0.56098,-0.36251 -0.84142,-0.005 -0.84141,-0.005 v -0.37397 -0.37396 h 1.09512 1.09527 l 0.50077,-0.50085 0.50092,-0.50086 0.55435,-0.25124 0.55421,-0.25122 -0.78828,0.14224 -0.7884,0.14221 -0.58191,-0.32565 -0.5819,-0.32567 -0.59096,0.22677 -0.59096,0.22676 0.20693,0.33478 0.20692,0.33478 h -0.36495 -0.3648 l -0.17145,-0.46745 -0.17131,-0.46747 -0.49554,0.46747 -0.49555,0.46745 h -0.81428 -0.81441 l -0.51322,-0.62324 -0.51321,-0.62322 -0.22177,1.83864 -0.22176,1.83862 -0.0593,-2.85694 -0.0593,-2.85695 -0.57964,-3.12656 -0.5798,-3.12656 -0.73823,-1.02553 -0.73824,-1.02555 0.84227,-1.59225 0.84212,-1.59224 0.0368,-4.8616 0.0368,-4.86162 0.98587,-4.19397 0.98601,-4.194 0.75039,-1.4708 0.75025,-1.47079 0.77371,-2.74953 0.7737,-2.74952 0.1494,-3.92668 0.1494,-3.92668 0.0876,-4.65237 0.0876,-4.65239 -0.69809,-0.39621 -0.69823,-0.3962 -0.43124,-0.36294 -0.43138,-0.36292 0.18714,-0.71556 0.18714,-0.71556 -0.52424,0.18007 -0.5241,0.18007 0.0141,0.99192 0.0141,0.9919 h -1.83081 -1.83068 l -0.73555,0.93492 -0.7354,0.93492 -0.81428,-0.0107 -0.81427,-0.0107 -0.72594,-0.54905 -0.72594,-0.54907 h -0.5624 -0.56254 l -1.04891,1.00489 -1.04891,1.0049 v 0.34492 0.3449 l 1.31534,-0.15354 1.31534,-0.15356 -1.03492,0.84424 -1.03476,0.84424 -1.68128,0.58589 -1.68113,0.58589 -3.53809,0.39452 -3.5381,0.39452 -0.43589,-0.59613 -0.43591,-0.59611 -0.39364,1.03443 -0.39364,1.03443 -0.56946,1.86985 -0.56934,1.86985 -0.23589,1.6877 -0.23591,1.68769 -0.90572,0.42744 -0.90572,0.42745 -0.0169,-0.43228 -0.0169,-0.43226 -0.20707,-2.05684 -0.2072,-2.05684 -0.1116,-0.11694 -0.1116,-0.11693 -0.57032,1.61273 -0.57032,1.61275 -0.0297,-1.76319 -0.0297,-1.76321 -0.65456,-0.32627 -0.65442,-0.32626 -2.1884,-0.47019 -2.18846,-0.47017 -1.48172,-0.66338 -1.48172,-0.6634 0.61551,-0.23617 0.61549,-0.23619 h 0.88228 0.88226 l 0.22918,-0.37084 0.22919,-0.37084 -0.95505,-0.95505 -0.95506,-0.95505 10e-4,-1.19842 0.001,-1.1984 0.38947,-1.40238 0.38946,-1.40238 0.44988,-0.0569 0.44988,-0.0569 0.55598,-0.0372 0.55594,-0.0372 0.13443,-0.69807 0.13441,-0.69807 -0.41254,0.25499 -0.41258,0.25497 -0.20849,-0.54333 -0.20849,-0.54333 -0.67222,0.17578 -0.67221,0.17579 -0.22223,-0.57911 -0.22222,-0.57909 0.40594,-0.25091 0.40595,-0.25088 6.96363,0.14542 6.96353,0.14542 h 6.3576 6.35745 l 1.09542,-0.56096 1.09526,-0.56094 0.65371,-1.12191 0.65357,-1.12191 0.0268,-1.35993 0.0268,-1.35992 1.68298,-0.25236 1.68282,-0.25236 v -0.44702 -0.44701 l -0.3819,-1.30643 -0.38191,-1.30642 -0.34475,-2.38609 -0.34473,-2.3861 -2.25992,-4.71932 -2.26008,-4.71933 -0.25187,-1.30889 -0.25188,-1.30889 -0.6882,-1.62039 -0.68818,-1.62036 v -0.29111 -0.29111 l 0.93497,0.17872 0.93499,0.17872 v 0.30517 0.30517 l 0.66246,0.21028 0.66248,0.21026 1.23039,1.12383 1.23053,1.12383 h 0.44311 0.44311 l 2.98205,-0.99313 2.98205,-0.99313 1.13287,-1.06944 1.13285,-1.06944 -0.41116,-0.27474 -0.41117,-0.27475 1.26559,-1.28311 1.26558,-1.28312 -0.30586,0.72216 -0.30587,0.72217 -1.05244,2.13475 -1.05244,2.13474 -0.52043,0.43192 -0.52041,0.43193 0.26557,0.42509 0.26544,0.42509 0.10174,0.74793 0.10173,0.74794 0.19647,0.84143 0.19646,0.84144 h -0.48508 -0.48494 v 2.72021 2.72023 l 3.35901,-0.66911 3.359,-0.6691 0.39111,0.13922 0.39109,0.13923 -1.49584,0.64053 -1.49597,0.64054 -2.05682,0.50163 -2.05682,0.50162 -1.0284,0.22732 -1.02842,0.22731 v 0.93982 0.9398 l 0.5754,1.37727 0.57556,1.37727 0.44438,0.27466 0.44438,0.27467 0.66304,-0.6 0.6629,-0.6 v 0.18749 0.1875 l -0.59096,1.18463 -0.59095,1.18464 0.99039,6.4457 0.99025,6.44569 0.56296,2.77026 0.56283,2.77025 0.74502,1.99107 0.74487,1.99108 1.00411,-0.73006 1.00409,-0.73005 2.22897,-0.57205 2.22884,-0.57204 h 2.00283 2.00283 l 0.72338,0.38712 0.7234,0.38712 v -3.96848 -3.96848 l -1.33286,-8.64698 -1.33272,-8.64697 -0.19746,-0.31959 -0.1976,-0.31957 -0.16792,-1.56944 -0.1679,-1.56945 -0.40255,-1.30889 -0.4024,-1.30889 -1.87251,-4.67461 -1.87237,-4.67462 -0.66741,-1.49588 -0.66743,-1.49588 -1.3846,-3.17874 -1.38473,-3.178743 0.19916,-2.991745 0.19914,-2.99176 -0.5019,-1.444552 -0.50178,-1.444537 -1.02006,-1.06465 -1.01994,-1.064665 -1.62332,-0.763024 -1.62332,-0.76304 h -0.70629 -0.70643 l -0.55801,-0.841427 -0.55803,-0.841428 -4.7764,-0.125093 -4.7764,-0.125093 -1.25568,0.235562 -1.25569,0.235562 v 0.891265 0.891265 l -0.53385,0.533894 -0.53386,0.533894 -6.93893,0.190163 -6.93895,0.190163 -0.94982,-0.18157 -0.94982,-0.181582 0.39844,-0.48 0.39831,-0.48 -0.24353,-0.970686 -0.24368,-0.9707 4.15421,-0.06544 4.1542,-0.06544 1.02841,-0.06572 1.02842,-0.06572 3.52154,-0.27576 3.52156,-0.27576 0.83718,-0.318318 0.8373,-0.318318 0.79124,-2.114856 0.79124,-2.114854 0.60156,-3.797584 0.60142,-3.797598 -0.4246,-3.552989 -0.42474,-3.552976 -1.40014,-2.759152 -1.40028,-2.759154 -1.467,-1.258784 -1.46714,-1.258798 -3.02049,-1.178107 -3.02064,-1.178092 -3.73964,-0.172848 -3.73965,-0.172848 -2.40099,0.627492 -2.40085,0.627505 -2.10042,1.060296 -2.10042,1.060283 -1.61439,1.751393 -1.61437,1.751392 -1.13002,2.490672 -1.13002,2.490658 -0.50108,2.804764 -0.50111,2.804777 -0.0133,2.499846 -0.0133,2.499844 0.55754,2.650432 0.55753,2.65043 0.67088,1.394192 0.67088,1.394176 -0.2,1.523364 -0.2,1.523351 -2.4308,0.09187 -2.4308,0.09188 -4.18676,0.514925 -4.18676,0.514927 -1.05659,0.546388 -1.05658,0.546374 -1.07416,1.063139 -1.07416,1.063137 -0.68622,1.495874 -0.6862,1.495886 -0.008,1.346574 -0.008,1.346586 0.43116,1.271208 0.43119,1.271195 0.70125,1.007449 0.70127,1.007434 -0.38052,2.35829 -0.38053,2.35827 -0.72124,3.76505 -0.72127,3.76503 -1.41684,2.86341 -1.41685,2.86341 -0.237,-0.38347 -0.23699,-0.38346 0.0347,3.43309 0.0347,3.4331 -0.82282,1.91498 -0.82282,1.91497 -0.42118,-0.10276 -0.42118,-0.10276 0.25702,0.41586 0.25702,0.41586 -1.01402,2.38589 -1.01401,2.38589 -0.4084,-0.0813 -0.40839,-0.0813 -0.13583,0.74794 -0.13583,0.74794 0.38835,-0.56094 0.38834,-0.56098 0.006,0.301 0.006,0.301 -0.75727,1.66235 -0.75729,1.66235 h -0.39435 -0.39433 l 0.25669,1.16869 0.25668,1.16869 -0.38702,-0.2392 -0.38704,-0.2392 -0.24806,0.78156 -0.24805,0.78154 0.22113,0.22113 0.22113,0.22113 v -0.68561 -0.68561 l 0.19333,0.19333 0.19331,0.19332 -0.42155,2.01933 -0.42157,2.01934 -0.37993,0.81157 -0.37993,0.81157 -0.57508,-0.22068 -0.5751,-0.22069 0.29517,0.4776 0.29516,0.47759 -0.70127,-0.21852 -0.70128,-0.21852 -0.51537,0.32362 -0.51538,0.32363 0.24101,0.38995 0.24099,0.38993 -0.38007,0.23489 -0.38007,0.2349 v 0.56094 0.56098 l 0.40486,-0.25023 0.40486,-0.25021 -0.60146,1.16306 -0.60144,1.16308 h -0.16564 -0.16565 l 0.20479,-0.53366 0.20479,-0.53367 -0.77748,0.20331 -0.77749,0.20332 v 0.5394 0.53941 l 0.34814,-0.21516 0.34813,-0.21516 0.2349,0.38007 0.23488,0.38006 h -0.74516 -0.74517 l -0.11831,-1.0284 -0.1183,-1.02842 h -0.93493 -0.93492 l -0.004,-0.62804 -0.004,-0.62807 -0.2757,-0.27569 -0.275705,-0.27572 v 1.06129 1.06131 l -0.624297,0.68984 -0.624296,0.68984 0.717781,0.53224 0.717797,0.53222 -0.453981,0.74404 -0.453978,0.74406 0.453978,0.16557 0.453981,0.16556 -0.47285,0.70253 -0.472863,0.70254 -0.722897,1.09504 -0.722897,1.09505 0.634205,0.46375 0.634219,0.46374 -0.186403,0.15167 -0.186389,0.15169 -1.215407,0.83928 -1.215407,0.8393 v 1.79858 1.79859 l 0.560962,0.46556 0.560948,0.46555 v 0.29316 0.29317 l -0.66916,-0.175 -0.669174,-0.17499 -0.35925,-0.79422 -0.359236,-0.79422 -0.467464,-0.14885 -0.467463,-0.14884 -0.02955,0.6856 -0.02955,0.68561 -0.188622,-0.46745 -0.188622,-0.46747 h -0.716778 -0.716777 v 0.37398 0.37397 H 91.72823 90.9803 v -0.56097 -0.56095 h -0.589201 -0.589201 l 0.103173,1.67825 0.103187,1.67827 -0.355435,-0.0401 -0.355435,-0.0401 -0.865768,-0.32914 -0.86578,-0.32918 h -0.374544 -0.374529 l 1.693229,1.7421 1.693244,1.74209 -0.240918,0.38981 -0.240904,0.38982 -0.149683,-0.44906 -0.149681,-0.44904 H 88.891325 88.36153 v 0.37398 0.37397 h 0.373979 0.373965 v 0.58765 0.58768 l -0.560948,0.56095 -0.56096,0.56096 v -1.3356 -1.33561 h -0.383223 -0.383222 l -0.343294,0.90292 -0.343293,0.90292 -0.769357,0.24418 -0.769372,0.24419 v 0.74481 0.74482 l -0.383887,-0.23727 -0.383887,-0.23725 0.103467,-0.62626 0.103467,-0.62624 h -0.934926 -0.934925 l 0.116613,0.68343 0.116614,0.68344 -0.770983,0.20161 -0.770996,0.20163 v 0.51732 0.51735 h 0.373965 0.373979 v 1.09982 1.09986 l -0.373979,0.23112 -0.373965,0.23112 v 0.53889 0.53888 h 0.560961 0.560947 l -0.0056,0.28048 -0.0056,0.28048 -0.368255,0.56095 -0.368254,0.56096 -0.230587,-0.84144 -0.230602,-0.84143 H 80.87904 80.588695 l -0.230149,0.59976 -0.230148,0.59975 -0.557795,-0.21404 -0.557809,-0.21406 v 0.57594 0.57593 l -0.578758,0.57876 -0.578769,0.57875 -0.251831,-0.25183 -0.251845,-0.25184 0.363732,-0.26015 0.363745,-0.26014 0.53005,-1.0284 0.530064,-1.02843 h 0.490629 0.490643 l 0.239025,-0.95235 0.239024,-0.95233 -0.259957,-0.25995 -0.259943,-0.25994 -0.364495,0.65133 -0.364509,0.65133 H 79.0308 78.711987 l -0.410388,-1.17728 -0.410403,-1.17725 0.337456,-0.41212 0.33747,-0.41209 -0.06713,-1.28106 -0.06713,-1.28106 -0.457257,-0.15243 -0.457272,-0.15243 -0.227195,0.59207 -0.227195,0.59205 H 76.376955 75.69109 l -0.246501,0.39884 -0.246503,0.39886 0.244764,0.24476 0.244763,0.24478 0.29316,-0.47434 0.293158,-0.47434 0.390587,0.48518 0.3906,0.48516 0.0164,2.4308 0.0164,2.4308 -0.193045,-0.56096 -0.193062,-0.56096 -0.544974,-1.21539 -0.54499,-1.21541 h -0.508396 -0.508396 l 0.191152,0.73098 0.191167,0.73099 -0.974107,0.24448 -0.974106,0.24448 v 0.52043 0.5204 h -1.495887 -1.495873 v -0.34912 -0.34914 l 1.028425,-0.14064 1.028409,-0.14064 -0.747944,-0.28514 -0.747929,-0.28516 -0.548904,-0.28666 -0.548905,-0.28664 -0.670855,-1.08876 -0.670855,-1.08874 -0.231774,-0.6756 -0.231774,-0.6756 -0.499138,0.19153 -0.499138,0.19153 0.232848,-1.16422 0.232848,-1.16423 -0.820424,0.21455 -0.82041,0.21454 -0.918558,-0.99061 -0.918545,-0.99061 0.226587,-0.75439 0.226586,-0.75439 0.307902,-0.33121 0.307901,-0.33124 -0.533683,-0.53367 -0.533666,-0.53368 -0.844679,0.60528 -0.844665,0.6053 1.010205,-0.24383 1.010205,-0.2438 -0.449244,0.96797 -0.449257,0.96798 -0.492665,0.003 -0.492664,0.003 0.24995,0.84143 0.249951,0.84144 0.616679,0.47008 0.616692,0.47008 1.004368,0.81484 1.004353,0.81484 -0.346685,0.6478 -0.3467,0.6478 0.230516,1.15253 0.230501,1.15252 h -0.283364 -0.283349 l -0.730587,-0.84143 -0.730587,-0.84142 -0.659929,0.81401 -0.659929,0.81404 -1.45812,0.2636 -1.458122,0.26363 -0.689696,0.35676 -0.689681,0.35676 0.174812,0.6685 0.174827,0.66851 -0.700536,-0.18319 -0.700524,-0.1832 v -1.45225 -1.45225 h 0.560948 0.56096 v -0.37398 -0.37397 H 57.69641 57.322446 v -0.74793 -0.74794 h 0.701187 0.701201 l 1.168651,-0.23374 1.16865,-0.23372 v 0.79469 0.79468 l -1.215392,0.0107 -1.215406,0.0107 0.725921,0.54907 0.725923,0.54907 h 0.863449 0.863449 v -1.49588 -1.49588 h 0.486163 0.486148 l 0.416184,0.41617 0.416184,0.41619 0.390219,-0.24118 0.390218,-0.24116 -0.174784,-0.45549 -0.174784,-0.45549 h -1.086616 -1.0866 l -0.280481,0.28048 -0.28048,0.28048 h -0.29374 -0.29402 l 0.221454,-1.86986 0.221456,-1.86984 h -0.435321 -0.435307 l -0.390629,1.02743 -0.390629,1.02743 0.161045,0.84242 0.161032,0.84242 H 59.35887 58.880932 l -0.218148,-0.46747 -0.218148,-0.46745 -0.218149,0.46745 -0.218148,0.46747 h -0.845795 -0.845809 l -0.618912,-0.6839 -0.618912,-0.68389 v -5.86056 -5.86059 h 0.603957 0.603972 l -0.603972,-0.92176 -0.603957,-0.92177 v -4.87476 -4.87475 h 0.560947 0.560961 v -0.74794 -0.74794 H 55.639858 55.078911 V 75.10128 2.9251858 H 160.9122 266.74558 V 107.21372 211.50226 l -1.2154,0.18793 -1.21542,0.18792 -2.99165,0.0495 -2.99181,0.0495 0.65442,-0.51018 0.65442,-0.51017 v -0.22164 -0.22163 l -1.77626,0.20708 -1.7764,0.2071 -1.96338,-0.74974 -1.96326,-0.74973 v 0.12053 0.12054 l 1.33626,0.82586 1.33625,0.82586 -0.34276,0.34277 -0.34275,0.34279 -1.27406,-0.67068 -1.27392,-0.67067 -0.1244,-0.28048 -0.1244,-0.28048 h -0.71675 -0.71689 v -0.37397 -0.37396 l -1.21526,0.0509 -1.21541,0.0509 0.93484,0.16884 0.93499,0.16884 0.84141,0.78034 0.84141,0.78036 v 0.30877 0.30877 h -0.34728 -0.34728 l -0.56085,-0.56094 -0.56099,-0.56096 -0.86812,0.0433 -0.86813,0.0433 0.65441,0.17103 0.65443,0.17103 v 0.34653 0.34655 h -1.09075 -1.09074 l -0.15548,-0.4662 -0.15534,-0.4662 -3.27646,-0.13456 -3.27647,-0.13456 -0.41385,0.41377 -0.41371,0.41379 h -0.45116 -0.45117 l 0.19562,-0.74795 0.19562,-0.74795 h -0.25739 -0.25724 l -0.56099,0.56098 -0.561,0.56094 h -0.69441 -0.69456 l -0.56099,-0.56094 -0.56098,-0.56098 h -0.40058 -0.4007 v 0.40075 0.40073 l -0.84142,-0.0948 -0.84141,-0.0948 -2.94713,0.2915 -2.94714,0.2915 -0.28736,-0.46494 -0.28734,-0.46495 -0.54686,0.20983 -0.54685,0.20984 -0.20565,0.7866 -0.20566,0.7866 2.49103,-0.25412 2.49116,-0.25414 -0.53484,0.64708 -0.53484,0.64708 -0.77399,-0.24142 -0.77414,-0.24142 -1.49583,0.0331 -1.49597,0.0331 -1.0711,-0.56558 -1.07124,-0.56556 h -0.66516 -0.66516 l -0.19278,0.50258 -0.19294,0.50256 0.89936,-0.17192 0.89923,-0.17191 1.34077,0.63623 1.34079,0.63621 -0.15533,0.15532 -0.15535,0.15532 -1.83561,-0.34293 -1.83576,-0.34295 -0.2547,0.41211 -0.2547,0.41208 -0.56015,-0.46487 -0.56013,-0.46489 -0.75407,0.47097 -0.7542,0.47099 -0.8646,-0.43635 -0.86445,-0.43637 -2.9918,0.0876 -2.99166,0.0876 -0.53612,0.33773 -0.53625,0.33775 0.72325,0.28317 0.72311,0.28317 -0.66771,0.0263 -0.66756,0.0263 -0.94092,-0.61654 -0.94105,-0.61656 -0.42955,0.42958 -0.42953,0.42956 h -0.67323 -0.67306 v -0.37398 -0.37397 h 0.39604 0.39604 l -0.20326,-0.32881 -0.20324,-0.32884 -0.75421,-0.19724 -0.75435,-0.19727 0.21004,0.33981 0.21003,0.33979 -0.95745,0.36401 -0.95746,0.36402 v 0.38321 0.38323 h -0.91278 -0.91294 l -0.21004,-0.33986 -0.21004,-0.33986 -1.95476,0.51568 -1.95492,0.51568 -0.36268,-0.3628 -0.36282,-0.3628 h 0.52353 0.52353 l -0.40749,-0.40751 -0.40749,-0.40749 -2.47082,-0.06 -2.47094,-0.0599 -0.001,-0.28047 -0.001,-0.28048 h -0.46869 -0.46855 l -1.08989,1.15464 -1.08975,1.15464 0.53003,0.33551 0.53004,0.33551 -0.374,-0.0205 -0.37384,-0.0205 z m 14.58488,-2.63164 0.23109,-0.37397 h -0.60509 -0.60508 l 0.23109,0.37397 0.2311,0.37397 h 0.14289 0.14276 z m 4.83477,-0.28048 -0.33852,-0.28048 -0.27914,-0.37396 -0.27902,-0.37397 v 0.65445 0.65444 h 0.62318 0.62332 z m 3.8376,-0.12987 -1.42474,-0.3352 -0.72551,-0.38833 -0.72565,-0.38832 v 0.54668 0.54669 l 0.65441,0.17102 0.65443,0.17102 1.49596,0.005 1.49584,0.005 z m 7.49399,0.1844 -0.226,-0.22594 -0.49089,0.19641 -0.49074,0.19641 0.71675,0.0296 0.71675,0.0295 z m -3.26445,-0.33502 v -0.18699 h -0.187 -0.18699 v 0.18699 0.18698 h 0.18699 0.187 z m -17.7012,-0.81027 -0.24934,-0.24931 v 0.49863 0.49863 l 0.24934,-0.24931 0.24933,-0.24932 z m 2.61766,0 -0.24918,-0.24931 v 0.49863 0.49863 l 0.24918,-0.24931 0.24934,-0.24932 z m 3.52439,-0.0959 -0.52707,-0.33364 -0.50134,0.1924 -0.50135,0.1924 v 0.14696 0.14699 l 1.02841,-0.005 1.02842,-0.005 z m 10.31251,0.0959 -0.24934,-0.24931 -0.24918,0.24931 -0.24932,0.24932 h 0.4985 0.49867 z m 6.66912,-0.12467 0.74798,-0.3214 -0.74798,0.0107 -0.74786,0.0107 -0.93497,0.2994 -0.93484,0.29942 0.93484,0.0107 0.93497,0.0107 z m -24.121,-0.18698 v -0.18699 h -0.18699 -0.187 v 0.18699 0.18698 h 0.187 0.18699 z m 33.65725,-0.93494 v -0.37396 h -1.49583 -1.49597 v 0.37396 0.37399 h 1.49597 1.49583 z m 17.76353,0 -0.23109,-0.37396 h -0.70375 -0.70389 l -0.23109,0.37396 -0.2311,0.37399 h 1.16608 1.16594 z m -23.03025,-0.61354 0.15576,-0.13442 h -1.39321 -1.39336 l 0.23209,0.37534 0.23193,0.37534 1.00552,-0.24097 1.00551,-0.24096 z m -17.54544,0.0525 v -0.18697 h -0.187 -0.18699 v 0.18697 0.18699 h 0.18699 0.187 z m 26.17796,0 v -0.18697 h -0.187 -0.187 v 0.18697 0.18699 h 0.187 0.187 z m 24.30799,0.04 v -0.14697 l -0.58036,-0.22272 -0.5805,-0.2227 0.22855,0.36968 0.22841,0.36968 h 0.35195 0.35195 z m 5.11081,-0.1024 -0.24919,-0.24931 -0.24933,0.24931 -0.24933,0.24932 h 0.49866 0.49851 z m -35.15308,-0.37396 -0.24933,-0.24932 -0.24932,0.24932 -0.24934,0.24932 h 0.49866 0.49865 z m -2.11916,-0.49863 -0.56099,-0.36252 -0.46741,-0.005 -0.46743,-0.005 v 0.37396 0.37397 l 1.02842,-0.005 1.02841,-0.005 z m -4.86163,-0.36649 -1.30882,-0.28047 -0.74799,-0.2633 -0.74784,-0.26331 0.93484,0.57355 0.93497,0.57352 1.12184,-0.0297 1.12199,-0.0299 z m -5.60946,-0.75541 v -0.37398 h -0.16495 -0.16495 l -0.23109,0.37398 -0.23109,0.37396 h 0.39604 0.39604 z m -11.34375,-1.37123 -0.24933,-0.24932 -0.24932,0.24932 -0.24934,0.24932 h 0.49866 0.49866 z m -5.11095,-0.49863 v -0.37396 h -0.74798 -0.74786 v 0.37396 0.37398 h 0.74786 0.74798 z m 6.23279,-0.2493 -0.24933,-0.24931 -0.24919,0.24931 -0.24932,0.2493 h 0.49851 0.49866 z M 192.705,202.99909 v -0.74795 h 0.374 0.37399 v -0.37396 -0.37396 h -0.31392 -0.31407 l -0.43392,0.95252 -0.43406,0.95251 v 0.1694 0.16938 h 0.374 0.37398 z m 4.86163,0.56096 v -0.18699 h -0.187 -0.18699 v 0.18699 0.18698 h 0.18699 0.187 z m -1.79505,-2.50559 -0.43632,-0.43631 -0.27591,0.27588 -0.27591,0.27588 0.53938,0.33331 0.53921,0.33329 0.17301,-0.17288 0.17286,-0.17288 z m -3.62756,0.0748 0.23124,-0.37396 h 0.70374 0.70374 l 0.21032,-0.3402 0.21018,-0.3402 -1.63364,0.0248 -1.63378,0.0248 0.18021,0.68947 0.18035,0.68946 h 0.30828 0.30826 z m 6.81936,-0.90045 -0.57456,-0.57458 -0.50459,0.62056 -0.5046,0.62055 0.65443,-0.24527 0.65441,-0.24526 v 0.624 0.62401 l 0.42473,-0.42472 0.42474,-0.42472 z m -23.46092,-12.00148 v -0.18699 h -0.187 -0.18699 v 0.18699 0.18698 h 0.18699 0.187 z m -102.093681,-12.34099 0.355463,-0.93493 h 0.383222 0.383223 l -0.01133,-0.46747 -0.01133,-0.46745 -0.599364,-0.74794 -0.599378,-0.74794 0.225554,0.65445 0.22557,0.65444 h -0.362234 -0.362233 v 0.56096 0.56095 h -0.498629 -0.498628 l -0.246064,-0.24607 -0.246064,-0.24607 0.416509,-0.50186 0.416523,-0.50187 H 72.10101 71.822436 l 0.368199,-0.46747 0.368197,-0.46746 0.266446,-1.12191 0.266445,-1.12191 -1.149809,1.28276 -1.149795,1.28276 v 0.5336 0.53362 l -0.560961,-0.21527 -0.560947,-0.21524 0.0056,0.26873 0.0056,0.26874 0.274756,0.40125 0.274743,0.40124 0.716989,0.26547 0.716976,0.26545 -0.436509,0.43651 -0.436495,0.4365 v 0.29918 0.29917 h 1.131167 1.131165 z m -0.997244,0.31164 0.2493,-0.24931 0.249315,0.24931 0.249314,0.24932 H 72.660835 72.16222 Z m 8.570121,0.001 -0.467462,-0.18864 -0.46745,0.18864 -0.467462,0.18863 h 0.934912 0.934925 z m -1.589372,-0.68725 v -0.18697 H 79.205303 79.01832 v 0.18697 0.18699 h 0.186983 0.186981 z m -2.961158,-2.80477 h 0.343377 v -0.48947 -0.48949 l -0.467463,-0.59467 -0.467462,-0.59467 -0.841428,-0.24993 -0.841427,-0.24996 v 0.58175 0.58174 l 0.800212,-0.0891 0.800197,-0.0891 0.16588,0.46747 0.16588,0.46746 h -0.592113 -0.592127 v 0.60096 0.60096 l 0.591547,-0.227 0.591535,-0.227 z m 2.587194,-2.66358 v -0.32817 h -0.934926 -0.934926 v 0.20276 0.20277 l 0.467463,0.50767 0.467463,0.50767 0.467464,-0.38227 0.467462,-0.38224 z m -11.967026,0.0457 v -0.37396 H 66.88639 66.721471 l -0.231124,0.37396 -0.231124,0.37397 h 0.396043 0.396028 z m 5.343845,-0.37359 0.195492,-0.74757 -0.338869,-0.20943 -0.338856,-0.20943 v 0.36544 0.36547 l -0.226996,0.59155 -0.226998,0.59153 h 0.370362 0.37036 z m 8.368369,0.49824 -0.249314,-0.24931 -0.249302,0.24931 -0.249314,0.24932 h 0.498616 0.498628 z m 3.281061,-0.72973 0.245724,-0.97906 -0.111667,-0.074 -0.111667,-0.074 -1.308905,-0.62657 -1.308891,-0.62656 0.829047,-0.23052 0.829045,-0.23053 0.22458,-0.70756 0.224566,-0.70755 h 0.722742 0.722728 v -0.30471 -0.3047 l -1.321569,-0.63023 -1.321583,-0.63021 h -0.174292 -0.17429 l -0.01133,1.58937 -0.01133,1.58937 -0.385597,-0.66232 -0.385583,-0.66233 -0.156056,-0.83356 -0.156043,-0.83355 -0.849372,-0.69992 -0.849385,-0.69992 -0.129334,0.88691 -0.129333,0.88689 -0.370333,0.45108 -0.370332,0.45108 0.25631,0.41472 0.256298,0.41471 0.647674,-0.58613 0.647662,-0.58614 0.250134,0.25014 0.25012,0.25013 v 1.164 1.16401 l 0.747943,0.53908 0.747944,0.53908 v 0.29142 0.29141 l 0.654446,0.71679 0.654445,0.71676 0.239929,0.0312 0.239944,0.0311 z m -7.510362,-0.2184 0.400833,-0.63652 -0.264961,-0.26496 -0.26496,-0.26496 -0.750233,0.67896 -0.750234,0.67894 v 0.34343 0.34344 l 0.614375,-0.12093 0.61436,-0.1208 z m 10.01791,-0.9659 -0.421696,-0.1405 -0.564298,0.5643 -0.564297,0.56428 v 0.22232 0.22232 l 0.985993,-0.64604 0.985994,-0.64605 z m 113.632323,1.22842 v -0.18698 h -0.187 -0.187 v 0.18698 0.187 h 0.187 0.187 z m 0.16028,-0.69534 0.72114,-0.0525 0.27222,-1.01844 0.27223,-1.01841 -0.30233,-2.34731 -0.3022,-2.34729 -0.27943,-0.74795 -0.27944,-0.74795 -0.73144,-0.81373 -0.73132,-0.81375 0.23944,-0.38737 0.23929,-0.38736 0.87082,0.33107 0.87081,0.33106 -0.44212,-2.30869 -0.44197,-2.30869 -0.6263,-1.1917 -0.62629,-1.19168 -0.36664,-0.22658 -0.36664,-0.22659 -0.62828,-1.32405 -0.62827,-1.32408 -0.9019,-0.34291 -0.90204,-0.34292 h -1.52156 -1.5217 l -1.45937,0.43728 -1.45951,0.43725 -0.9306,0.86251 -0.93073,0.86249 0.25343,1.03755 0.25342,1.03755 0.67407,0.87041 0.67405,0.8704 -0.73101,1.85472 -0.73117,1.85471 v 1.57553 1.57552 l 0.3282,0.51808 0.32805,0.51808 1.06644,-0.26767 1.06643,-0.26766 0.46968,-0.38971 0.46954,-0.38969 v -0.90403 -0.90403 l 0.75547,-1.48097 0.75548,-1.48097 h 0.5282 0.5282 l 0.22516,0.7095 0.22516,0.70954 0.69979,-0.183 0.69978,-0.183 0.26898,2.86908 0.26884,2.86906 -0.22743,1.65928 -0.22741,1.65928 0.74161,0.74164 0.74163,0.74166 v 0.29918 0.29916 l 0.45696,0.45694 0.45697,0.45694 0.57144,-0.23605 0.57145,-0.23607 z m -2.0007,-1.20566 0.0297,-0.71678 0.19647,0.49084 0.19646,0.49083 -0.22601,0.22593 -0.22585,0.22595 z m 0.34445,-9.69204 v -0.18699 h 0.187 0.18699 v 0.18699 0.18697 h -0.18699 -0.187 z m -137.246718,10.4715 v -0.18697 h -0.186981 -0.186983 v 0.18697 0.187 h 0.186983 0.186981 z m 8.850616,-0.81025 -0.249314,-0.24932 v 0.49862 0.49863 l 0.249314,-0.24931 0.249315,-0.24932 z m 9.473896,0.28932 v -0.33396 l -0.541909,-0.20795 -0.541908,-0.20796 0.207944,0.54191 0.207957,0.54192 h 0.333951 0.333965 z m -3.365725,-0.43107 0.560947,-0.3796 -1.121908,0.25095 -1.121908,0.25096 -0.155816,0.13441 -0.155818,0.13443 0.716779,-0.005 0.716763,-0.005 z m 1.121908,0.20408 v -0.18699 h -0.186983 -0.186996 v 0.18699 0.18697 h 0.186996 0.186983 z m -19.07244,-0.37399 v -0.18698 h -0.186983 -0.186982 v 0.18698 0.187 h 0.186982 0.186983 z m 9.349231,0.022 v -0.16492 l -0.373966,-0.23112 -0.373978,-0.23113 v 0.39605 0.39604 h 0.373978 0.373966 z m 9.723209,-0.77001 v -0.18697 h -0.186983 -0.186996 v 0.18697 0.18699 h 0.186996 0.186983 z m 9.349231,0.0305 v -0.15641 l 0.226997,-0.59153 0.226996,-0.59154 h -0.40082 -0.40082 l -0.400296,0.74794 -0.400282,0.74794 h 0.57412 0.574105 z M 70.417019,164.85398 V 164.48 h -0.583011 -0.583025 l 0.231124,0.37398 0.231124,0.37397 h 0.351901 0.351887 z m 7.105428,-0.18699 V 164.48 h -0.186983 -0.186996 v 0.18699 0.18699 h 0.186996 0.186983 z m -13.587563,-0.81025 -0.249314,-0.24932 v 0.49862 0.49862 l 0.249314,-0.24931 0.249314,-0.24931 z m 2.36848,0.2493 v -0.37397 h -0.747942 -0.747944 v 0.37397 0.37396 h 0.747944 0.747942 z m 9.723196,0.18699 v -0.18699 h -0.186982 -0.186983 v 0.18699 0.18697 h 0.186983 0.186982 z m 11.903366,-0.46747 -0.05484,-0.65444 0.05923,-1.01906 0.05923,-1.01907 1.060694,0.21213 1.060692,0.21214 0.622177,-0.62216 0.622163,-0.62219 -0.02955,-0.62773 -0.02955,-0.62772 -0.217569,0.55426 -0.217569,0.55428 -0.474134,0.47414 -0.474134,0.47414 H 89.32909 88.741429 v -0.41397 -0.41399 l -0.548976,0.21067 -0.54899,0.21065 -0.243208,-0.39352 -0.243208,-0.39352 0.65005,-0.61856 0.650034,-0.61856 0.173315,0.46747 0.173315,0.46747 h 0.716764 0.716777 v -0.33398 -0.33396 l 0.624551,-0.23966 0.624552,-0.23966 0.272904,0.44156 0.27289,0.44158 0.501399,-0.80287 0.5014,-0.80287 h 0.470996 0.470997 v -0.8913 -0.89131 l 0.841442,-0.23059 0.841428,-0.2306 -0.560962,-0.36826 -0.560946,-0.36824 -0.280482,-0.005 -0.28048,-0.005 v 0.33443 0.33442 l -1.084961,1.16146 -1.084961,1.16145 h -0.60964 -0.609626 l -0.215265,0.56095 -0.215251,0.56097 h -0.65607 -0.656071 l 0.179137,-0.93708 0.179124,-0.93708 -0.424424,-0.5114 -0.424424,-0.51141 0.222234,-0.57912 0.222233,-0.57914 -0.415929,-0.77716 -0.41593,-0.77716 h -1.451548 -1.451562 l -0.1248,-0.37461 -0.1248,-0.37461 -1.236623,0.35465 -1.236608,0.35465 -0.539519,-0.20704 -0.539535,-0.20704 v 0.59656 0.59656 l 0.654446,-0.0548 0.654445,-0.0548 2.71128,0.0592 2.71128,0.0592 v 0.56095 0.56097 l -2.337301,0.0597 -2.337315,0.0597 1.215407,0.15083 1.215392,0.15084 v 0.49146 0.49147 l 0.539972,0.44813 0.539972,0.44815 -0.222417,1.87801 -0.222431,1.87803 0.523887,0.33743 0.523886,0.33742 -0.841441,0.23059 -0.841428,0.2306 v 0.5102 0.51023 l 0.934927,0.23464 0.934925,0.23465 v 0.33343 0.33342 h 0.182572 0.182573 z m 0.0636,-5.7251 v -0.39604 l 0.373965,0.23112 0.373979,0.23113 v 0.16492 0.16492 h -0.373979 -0.373965 z m 5.983507,4.88368 v -0.37398 h -0.560948 -0.560962 v 0.37398 0.37396 h 0.560962 0.560948 z m -10.47114,-0.93244 0.934926,-0.53198 -1.215406,-0.47168 -1.215392,-0.4717 v -0.29198 -0.29198 h 1.464706 1.46472 l 0.188623,0.46746 0.188621,0.46746 0.02955,-0.62386 0.02953,-0.62386 -0.218798,-0.57019 -0.218812,-0.57019 -0.92745,0.35263 -0.927449,0.3526 h -1.097568 -1.097555 v 1.16192 1.16193 l 0.560947,-0.21526 0.560961,-0.21526 v 0.7362 0.7362 l 0.28048,-0.0133 0.280467,-0.0133 z m -17.701218,-0.43879 -0.249315,-0.24931 -0.249314,0.24931 -0.249315,0.24932 h 0.498629 0.49863 z m 6.388651,0.0141 0.841428,-0.22549 v -0.51733 -0.51734 h -1.495887 -1.495873 v 0.52979 0.52979 l 0.467462,0.18864 0.467463,0.18861 0.186983,0.0244 0.186982,0.0244 z m 7.322262,-0.73016 -0.203378,-0.53 h -0.10332 -0.10332 l -0.188268,0.71995 -0.188283,0.71996 0.495011,-0.18995 0.495024,-0.18994 z m 5.860157,0.77888 v -0.18697 h -0.186983 -0.186996 v 0.18697 0.187 h 0.186996 0.186983 z m -28.421671,-0.35188 v -0.16492 l -0.373979,-0.23112 -0.373965,-0.23113 v 0.39604 0.39604 h 0.373965 0.373979 z m 4.113653,-0.77002 v -0.93491 h -0.726724 -0.726741 l -0.55227,-0.78848 -0.552268,-0.78848 -0.35371,0.2186 -0.353696,0.2186 0.180424,0.94384 0.180424,0.94385 h 0.658558 0.658544 l 0.465555,0.56096 0.465555,0.56095 h 0.328184 0.328169 z m 7.115875,0.20793 -0.924467,-0.71037 -0.309089,0.19102 -0.309088,0.19103 0.437908,0.52765 0.437922,0.52767 0.795647,-0.008 0.795632,-0.008 z m 8.216877,0.54001 v -0.18698 h -0.186983 -0.186997 v 0.18698 0.18699 h 0.186997 0.186983 z m 15.95603,-0.0623 -0.249315,-0.24931 -0.249315,0.24931 -0.249313,0.24932 h 0.498628 0.498629 z m 1.495873,-0.37396 -0.249315,-0.24932 v 0.49862 0.49864 l 0.249315,-0.24932 0.249315,-0.24932 z m -29.418926,-0.31172 v -0.18698 h -0.186982 -0.186983 v 0.18698 0.187 h 0.186983 0.186982 z m 28.79565,-0.37396 v -0.18699 h -0.186981 -0.186998 v 0.18699 0.18698 h 0.186998 0.186981 z m -23.186108,-0.37396 v -0.18699 h -0.186983 -0.186983 v 0.18699 0.18697 h 0.186983 0.186983 z m 26.988795,-1.02154 -0.395124,-0.3951 0.231604,0.88565 0.231618,0.88565 0.163506,-0.49053 0.16352,-0.49055 z m -20.257346,0.50059 v -0.33397 l -0.591533,-0.227 -0.591548,-0.22698 h -0.389174 -0.389173 l 0.465555,0.56095 0.465554,0.56096 h 0.515152 0.515167 z m 2.617781,-0.41399 0.400298,-0.74794 -0.29364,0.005 -0.29364,0.005 -0.515364,0.32644 -0.515378,0.32643 0.25696,0.41577 0.256976,0.41579 h 0.15176 0.151746 z m -13.587549,-0.2493 -0.249315,-0.24932 -0.249314,0.24932 -0.249315,0.2493 h 0.498629 0.49863 z M 64.80742,157.9819 v -0.51516 l 0.560962,-0.46556 0.560948,-0.46553 v -0.51518 -0.51516 H 65.399732 64.87012 l -0.496608,1.12191 -0.496608,1.12191 h -0.634572 -0.634586 l -0.231124,0.37396 -0.231123,0.37398 h 1.330968 1.330953 z m 2.119167,-0.10813 -0.249315,-0.24932 v 0.49862 0.49864 l 0.249315,-0.24932 0.249315,-0.24932 z m 9.84786,0.2493 v -0.37396 h -0.373964 -0.37398 v 0.37396 0.37399 h 0.37398 0.373964 z m 118.922223,0.18699 v -0.18699 h -0.187 -0.18685 v 0.18699 0.187 h 0.18685 0.187 z M 74.530631,157.74911 v -0.37396 h 0.716777 0.716778 l 0.175236,-0.46746 0.175237,-0.46747 0.52024,0.6748 0.520241,0.6748 0.644579,-0.24735 0.64458,-0.24734 v -0.52095 -0.52093 h -0.747944 -0.747943 v -0.52095 -0.52095 l -0.560948,-0.21525 -0.560961,-0.21527 v 0.54922 0.54921 l -0.654445,-0.005 -0.654446,-0.005 0.507394,-0.32149 0.507392,-0.32151 -0.455718,-0.28164 -0.455704,-0.28164 -0.317384,0.51356 -0.3174,0.51355 -0.563816,-0.74612 -0.56383,-0.74611 -0.01133,-0.84145 -0.01133,-0.84143 h 0.342799 0.342812 l 0.169908,0.46747 0.169909,0.46747 -0.188509,-1.86986 -0.188495,-1.86984 -0.169428,-0.18698 -0.169413,-0.18699 -0.715746,0.88287 -0.715745,0.88285 v 1.27253 1.27255 l -0.46188,0.73957 -0.461867,0.73958 0.92933,0.65133 0.929342,0.65133 0.654446,-0.11066 0.654445,-0.11054 v 0.3975 0.39746 h -0.560961 -0.560947 v 0.56096 0.56095 h 0.747929 0.747944 z m -1.869852,-2.4308 v -0.18698 h 0.186996 0.186983 v 0.18698 0.18699 h -0.186983 -0.186996 z m 9.349246,2.4308 v -0.37396 h -0.560962 -0.560948 v -0.37398 -0.37396 h 0.560948 0.560962 v -0.37396 -0.37399 H 81.47114 80.932256 l -0.231122,0.37399 -0.231124,0.37396 h -0.72588 -0.725867 v 0.37396 0.37398 h 0.725867 0.72588 l 0.231124,0.37396 0.231122,0.37396 h 0.538884 0.538885 z m 16.406177,-1.51758 0.383535,-1.1002 h -0.339944 -0.339944 l -0.720778,0.77365 -0.720777,0.77367 0.19094,0.73009 0.190927,0.73009 0.486246,-0.40354 0.486262,-0.40356 z m -37.47312,0.52033 -0.249315,-0.24932 v 0.49863 0.49862 l 0.249315,-0.2493 0.249314,-0.24932 z m 3.116409,-1.18977 v -0.69114 l -1.495887,-0.67454 -1.495873,-0.67455 v -0.50417 -0.50415 h 0.336312 0.336311 l 0.133428,-1.67784 0.133426,-1.67785 -0.469752,-0.18027 -0.469766,-0.18025 v 0.90112 0.9011 l -0.373966,0.23114 -0.373964,0.23112 v 0.72586 0.72587 h -0.37398 -0.373964 v 1.49588 1.49588 h 1.286827 1.286813 l 0.231124,0.37396 0.231123,0.37399 h 0.72588 0.725867 z m 26.55182,0.31717 v -0.37396 h -0.373965 -0.373964 v 0.37396 0.37399 h 0.373964 0.373965 z m -31.912047,-0.24931 -0.249314,-0.24932 -0.249314,0.24932 -0.249314,0.24931 h 0.498628 0.498629 z m 20.942279,0 -0.249315,-0.24932 -0.2493,0.24932 -0.249314,0.24931 h 0.498614 0.49863 z m 1.620537,-0.8726 -0.747944,-0.74793 H 79.95319 79.392228 v 0.38601 0.38602 l 0.841442,0.33822 0.841428,0.33822 0.467463,0.0237 0.467464,0.0237 z m 10.097175,0.56096 v -0.18698 H 91.172273 90.98529 v 0.18698 0.18699 h 0.186983 0.186982 z m 1.495872,-0.56096 v -0.37396 h -0.396028 -0.396042 l 0.231124,0.37396 0.231124,0.37398 h 0.164918 0.164904 z m 4.861612,-0.1649 v -0.16492 l -0.373978,-0.23112 -0.373964,-0.23112 v 0.39602 0.39604 h 0.373964 0.373978 z m 90.874621,-0.022 v -0.18698 h -0.187 -0.18698 v 0.18698 0.18698 h 0.18698 0.187 z m -93.866381,-0.89491 v -0.33396 l -0.560946,-0.21525 -0.560962,-0.21527 v 0.29992 0.29989 l 0.249315,0.24932 0.249315,0.24931 h 0.311646 0.311632 z m 4.300651,-0.04 0.231124,-0.37396 h -0.792085 -0.792071 l 0.231124,0.37396 0.231124,0.37399 h 0.329823 0.329837 z m -19.259423,-0.56095 0.465555,-0.56096 h -0.606756 -0.606743 v 0.56096 0.56095 h 0.141203 0.141201 z m -2.617795,-0.41397 v -0.14699 h -0.560948 -0.560961 v 0.36223 0.36224 l 0.560961,-0.21525 0.560948,-0.21527 z m 20.194349,-0.19113 v -0.37396 l -0.373964,0.23112 -0.373966,0.23113 v 0.37397 0.37396 l 0.373966,-0.23112 0.373964,-0.23112 z m -32.65999,-0.20518 -0.249315,-0.2493 -0.249314,0.2493 -0.249315,0.24932 h 0.498629 0.49863 z m 2.742445,-0.31162 -0.465554,-0.56096 h -0.342926 -0.342912 l 0.482204,0.54672 0.482206,0.54673 0.326261,0.0143 0.326276,0.0143 z m 11.219083,0.39604 v -0.16492 l -0.348127,-0.21515 -0.348128,-0.21517 -0.234897,0.38008 -0.234897,0.38006 h 0.583024 0.583025 z m 4.67788,-2.01206 -0.251208,-1.00088 -0.478205,0.654 -0.478219,0.654 h -0.465484 -0.465484 l 0.878318,0.91258 0.878332,0.91257 0.31658,-0.56569 0.31658,-0.5657 z m -18.639408,0.0579 -0.249315,-0.24932 -0.249314,0.24932 -0.249315,0.24931 h 0.498629 0.49863 z m 6.108171,-0.42384 v -0.67315 l 0.448762,-0.44876 0.448764,-0.44876 h 0.673144 0.673146 v -0.93493 -0.93492 h -0.328184 -0.32817 l -0.465554,0.56095 -0.465555,0.56096 h -0.702149 -0.702148 v 0.93493 0.93492 h -0.41976 -0.41976 l 0.465554,0.56095 0.465556,0.56096 h 0.32817 0.328184 z m 6.731449,-0.63661 v -0.89166 l -0.831152,-0.58216 -0.831152,-0.58214 H 75.21743 74.574772 l -0.221725,0.35876 -0.221724,0.35874 0.476593,0.76316 0.476595,0.76315 h 0.844975 0.844961 v 0.58303 0.58302 l 0.373965,-0.23114 0.373979,-0.23112 z m 27.299759,0.87629 v -0.27033 l -0.28459,-0.17591 -0.28461,-0.17588 -0.72446,0.52973 -0.72446,0.52975 1.00906,-0.0835 1.00906,-0.0836 z m -46.559182,-0.68844 -0.237385,-0.74795 h 0.514671 0.514686 l 0.725922,-0.53784 0.725922,-0.53781 -0.747944,-0.57219 -0.747942,-0.57218 -1.028411,-0.0107 -1.028409,-0.0107 v 0.37396 0.37399 h 0.560946 0.560962 v 0.74792 0.74795 h -0.560962 -0.560946 v 0.37397 0.37397 h 0.560946 0.560962 v 0.37396 0.37398 h 0.212184 0.212184 z m 21.500115,0.3838 0.557824,-0.35267 -0.440297,-0.44029 -0.440296,-0.44029 -0.58499,0.585 -0.585004,0.58498 v 0.21371 0.21369 l 0.467463,-0.005 0.467463,-0.005 z m -12.836496,-0.25915 -0.249315,-0.24932 -0.249314,0.24932 -0.249314,0.24931 h 0.498628 0.49863 z m 24.969403,-0.53781 -0.206897,-0.33479 H 91.337191 90.98529 v 0.54922 0.54922 l 0.558799,-0.21444 0.558813,-0.21442 z M 65.1814,148.05722 v -1.46471 l -0.467464,-0.15729 -0.467462,-0.15728 -0.610996,0.15837 -0.611011,0.15838 0.187165,0.71569 0.187152,0.71567 h 0.330347 0.33036 v 0.74794 0.74795 h 0.560948 0.560961 z m 29.816273,1.23877 -0.225951,-0.22593 -0.490827,0.1964 -0.490841,0.19643 0.716777,0.0296 0.716778,0.0295 z m 8.865347,-0.93516 -0.20692,-0.33478 h -0.3519 -0.3519 v 0.54922 0.54922 l 0.55882,-0.21443 0.55881,-0.21444 z m -21.565815,-0.33478 0.467094,-0.74792 h 0.7227 0.7227 l 0.200127,0.32381 0.200128,0.32381 0.952141,-0.18201 0.952142,-0.18201 -0.397866,-0.4794 -0.397866,-0.47942 0.483068,-0.17216 0.483066,-0.17214 -0.241102,-0.26115 -0.241103,-0.26113 -2.096212,-0.21635 -2.096197,-0.21635 v 0.40479 0.40479 l 1.58937,0.14314 1.589371,0.14316 -2.056833,0.0711 -2.056835,0.0711 0.560947,0.35684 0.560961,0.35682 -0.470628,0.75935 -0.47063,0.75936 h 0.287181 0.28718 z m 5.696325,0.37398 v -0.37398 h -0.164919 -0.164904 l -0.231124,0.37398 -0.231124,0.37396 h 0.396028 0.396043 z m -8.819492,-1.25537 -0.235788,-0.61448 H 78.351875 77.7655 l 0.719874,0.69969 0.719872,0.69968 0.102333,-0.0852 0.102333,-0.0852 z m 66.036802,0.69441 v -0.18698 h -0.18697 -0.18699 v 0.18698 0.18698 h 0.18699 0.18697 z m -49.902893,-0.75982 -0.725921,-0.54907 h 0.654501 0.654502 l -0.231123,-0.37396 -0.231124,-0.37399 h -0.6947 -0.694713 l -0.131734,-0.39536 -0.131733,-0.39537 -0.647307,0.24839 -0.647321,0.2484 v 0.49974 0.49974 l 0.831152,0.58216 0.831152,0.58216 0.945201,-0.0107 0.945202,-0.0107 z m -7.439068,-0.42442 -0.249313,-0.24932 -0.249315,0.24932 -0.249314,0.24931 h 0.498629 0.498628 z m -26.801148,-0.31164 v -0.18697 H 60.88075 60.693767 v 0.18697 0.18699 h 0.186983 0.186981 z m 5.370813,-0.37397 -0.215264,-0.56095 H 66.076311 65.92933 v 0.56095 0.56096 h 0.362233 0.362233 z m 36.887736,0.37397 v -0.18697 h -0.18698 -0.187 v 0.18697 0.18699 h 0.187 0.18698 z m -24.895154,-1.35126 -0.204934,-0.3316 H 77.68731 77.148412 v 0.49862 0.49863 l 0.246078,0.24607 0.246064,0.24606 0.497752,-0.41309 0.497753,-0.41309 z m -4.24988,0.40318 0.723349,-0.38712 v -0.73478 -0.73479 h -0.186983 -0.186981 l -0.747944,0.74795 -0.747929,0.74794 v 0.37396 0.37396 h 0.211561 0.211576 z m -11.243663,-1.29573 v -0.56096 H 62.563604 62.18964 v 0.56096 0.56095 h 0.373964 0.373979 z m 2.991747,-0.20905 v -0.35191 H 65.368382 64.80742 v 0.31165 0.31163 l 0.239152,0.23915 0.239152,0.23916 0.32181,-0.19891 0.321796,-0.19888 z m 96.83998,-0.56076 -0.3494,-0.42091 0.24608,-0.24607 0.24608,-0.24608 h -0.39492 -0.39476 l -0.88297,0.72016 -0.88283,0.72015 0.56099,0.18515 0.56098,0.18513 0.56086,0.16055 0.56098,0.16054 0.25908,-0.39886 0.25908,-0.39884 z m -61.31288,0.58282 v -0.37397 h -0.37397 -0.37397 v 0.37397 0.37398 h 0.37397 0.37397 z m -15.434024,-0.22594 -0.225951,-0.22594 -0.490826,0.19642 -0.490842,0.19641 0.716778,0.0296 0.716777,0.0296 z m 10.946391,0.0391 v -0.18698 h -0.186983 -0.186983 v 0.18698 0.187 h 0.186983 0.186983 z m 6.357483,0 v -0.18698 h -0.18698 -0.187 v 0.18698 0.187 h 0.187 0.18698 z m -23.934052,-0.37396 v -0.18698 h -0.186982 -0.186983 v 0.18698 0.18698 h 0.186983 0.186982 z m 2.991761,0 v -0.18698 h -0.186983 -0.186981 v 0.18698 0.18698 h 0.186981 0.186983 z m 12.613684,-0.0391 -0.225951,-0.22594 -0.490827,0.1964 -0.490841,0.19643 0.716777,0.0296 0.716778,0.0295 z m -19.719099,-1.26994 v -0.74794 h -0.747943 -0.747944 v 0.74794 0.74794 h 0.747944 0.747943 z m -11.949882,-0.40601 0.417428,-0.77996 -0.123813,-0.0993 -0.123813,-0.0995 -1.215394,-0.41004 -1.215405,-0.41003 v 0.1861 0.18612 l 0.570557,1.10333 0.570559,1.10333 h 0.351209 0.351208 z m 20.426519,0.15669 -0.249314,-0.24932 v 0.49864 0.49863 l 0.249314,-0.24932 0.249315,-0.24931 z m 5.921188,0.24932 0.231124,-0.37397 h -0.186982 -0.186996 l -0.231124,0.37397 -0.231124,0.37396 h 0.186982 0.186996 z m -1.427406,-1.19204 -0.19641,-0.49084 -0.02955,0.71679 -0.02953,0.71677 0.225936,-0.22593 0.225951,-0.22595 z m -3.119294,-0.0979 0.207958,-0.54191 -0.541908,0.20795 -0.541908,0.20794 v 0.33398 0.33394 h 0.33395 0.333964 z m -5.228255,-0.39303 -0.215265,-0.56095 h -0.333951 -0.333965 v 0.3428 0.34282 l 0.467464,0.18862 0.467463,0.18863 0.08169,0.0295 0.08169,0.0296 z m 15.197501,0.41399 v -0.14698 l -0.560948,-0.21525 -0.56096,-0.21527 v 0.36224 0.36223 h 0.56096 0.560948 z m -30.665489,-0.41402 v -0.18697 h -0.186982 -0.186983 v 0.18697 0.187 h 0.186983 0.186982 z m 2.617782,0 v -0.18697 h -0.186983 -0.186983 v 0.18697 0.187 h 0.186983 0.186983 z m 29.917559,0 v -0.18697 h -0.186983 -0.186983 v 0.18697 0.187 h 0.186983 0.186983 z m 6.357483,0 v -0.18697 h -0.18698 -0.187 v 0.18697 0.187 h 0.187 0.18698 z m -39.266789,-1.14397 v -0.58303 l -0.380071,0.23491 -0.38007,0.23489 0.215152,0.34812 0.215152,0.34814 h 0.164918 0.164919 z m 31.787396,0.022 v -0.56095 h -0.373964 -0.373978 v 0.56095 0.56096 h 0.373978 0.373964 z m -17.950532,-0.18699 v -0.37396 h -0.164919 -0.164904 l -0.231124,0.37396 -0.231124,0.37399 h 0.396028 0.396043 z m 2.493132,-0.2493 -0.249315,-0.24932 v 0.49862 0.49863 l 0.249315,-0.24931 0.249313,-0.24932 z m 4.487632,-0.74794 -0.249314,-0.24932 v 0.49863 0.49863 l 0.249314,-0.24932 0.249315,-0.24931 z m 8.981415,-0.19478 -0.196409,-0.49083 -0.02955,0.71677 -0.02953,0.71678 0.225936,-0.22595 0.22595,-0.22593 z m -11.848509,-0.11694 v -0.18697 h -0.186983 -0.186997 v 0.18697 0.18699 h 0.186997 0.186983 z m 20.942275,-0.56094 v -0.37398 h -0.1649 -0.16492 l -0.23112,0.37398 -0.23113,0.37397 h 0.39604 0.39603 z m 7.35474,-0.24931 -0.24931,-0.24932 v 0.49863 0.49861 l 0.24931,-0.24931 0.24932,-0.2493 z m 61.45563,0.43629 v -0.18698 h -0.187 -0.187 v 0.18698 0.18699 h 0.187 0.187 z m -83.980943,-0.52273 0.723111,-0.28317 -0.445979,-0.27564 -0.445993,-0.27563 -0.744595,0.23632 -0.744593,0.23633 v 0.34876 0.34878 l 0.467463,-0.0263 0.467464,-0.0263 z m -17.364765,-0.22521 v -0.18699 H 70.22998 70.042998 v 0.18699 0.18698 h 0.186982 0.186982 z m 40.014738,-0.74795 v -0.18688 h -0.18699 -0.18698 v 0.18697 0.187 h 0.18698 0.18699 z m -31.538086,-1.18423 -0.249315,-0.2493 v 0.49862 0.49862 l 0.249315,-0.24932 0.249314,-0.2493 z m 9.099916,0.24932 v -0.37397 h -0.396043 -0.396028 l 0.231124,0.37397 0.231124,0.37396 h 0.164904 0.164919 z m 12.52797,0 0.23113,-0.37397 h -0.39603 -0.396043 v 0.37397 0.37396 h 0.164903 0.16492 z m -15.145751,-0.1869 v -0.18698 H 85.188766 85.00177 v 0.18698 0.187 h 0.186996 0.186983 z m 10.471138,0 v -0.18698 h -0.186981 -0.186983 v 0.18698 0.187 h 0.186983 0.186981 z m 13.462903,0 v -0.18698 h -0.18699 -0.18698 v 0.18698 0.187 h 0.18698 0.18699 z m 0.74794,0 v -0.18698 h -0.18698 -0.187 v 0.18698 0.187 h 0.187 0.18698 z m -7.10543,-0.37396 v -0.18699 h -0.18698 -0.18698 v 0.18699 0.18698 h 0.18698 0.18698 z m -17.701215,-1.18424 -0.249315,-0.24932 v 0.49862 0.49864 l 0.249315,-0.24932 0.249314,-0.24932 z m 26.925795,-0.37398 -0.24931,-0.2493 v 0.49862 0.49863 l 0.24931,-0.24931 0.24932,-0.24932 z m -43.120554,-0.6856 0.215265,-0.56095 h -0.724467 -0.724466 l 0.21525,0.56095 0.215266,0.56096 h 0.29395 0.293951 z m 6.970177,0 v -0.56095 h -0.362219 -0.362233 l 0.215251,0.56095 0.215265,0.56096 h 0.146968 0.146968 z m 11.967027,0.37396 v -0.18698 h -0.186983 -0.186981 v 0.18698 0.187 h 0.186981 0.186983 z m -31.164118,-0.81026 -0.249313,-0.24932 -0.249315,0.24932 -0.249314,0.24931 h 0.498629 0.498628 z m 25.825729,-0.49863 0.0564,-0.74793 h -0.350728 -0.350728 v 0.74793 0.74794 h 0.294388 0.294389 z m 2.969922,0.49863 -0.249314,-0.24932 -0.249315,0.24932 -0.249315,0.24931 h 0.49863 0.498629 z m 8.351974,0.0623 v -0.18698 h -0.186983 -0.186983 v 0.18698 0.18699 h 0.186983 0.186983 z m -14.70331,-1.00504 -0.196411,-0.49084 -0.02953,0.71677 -0.02955,0.71678 0.225938,-0.22594 0.22595,-0.22593 z m 32.903153,0.19477 -0.24931,-0.24932 v 0.49863 0.49863 l 0.24931,-0.24932 0.24932,-0.24931 z m 0.7541,-0.19477 -0.19642,-0.49085 -0.0295,0.71678 -0.0296,0.71678 0.22594,-0.22594 0.22595,-0.22593 z m -53.109806,-0.55316 -0.249315,-0.24932 -0.249315,0.24932 -0.249314,0.24931 h 0.498629 0.498628 z m 53.851596,-0.74795 -0.24931,-0.24931 v 0.49863 0.49863 l 0.24931,-0.24932 0.24931,-0.24931 z M 58.44995,128.7665 v -0.18698 h -0.186982 -0.186982 v 0.18698 0.18698 h 0.186982 0.186982 z m 2.617781,0 v -0.18698 H 60.88075 60.693767 v 0.18698 0.18698 h 0.186983 0.186981 z m 39.266789,0 v -0.18698 h -0.18698 -0.186983 v 0.18698 0.18698 h 0.186983 0.18698 z m -22.0642,-0.56095 v -0.37397 h -0.373965 -0.373964 v 0.37397 0.37397 h 0.373964 0.373965 z m 1.721823,-1.02063 -0.225936,-0.22594 -0.224437,0.22444 -0.224426,0.22442 0.292891,0.47393 0.292905,0.47392 0.15747,-0.47241 0.15747,-0.47241 z m 8.250702,0.0233 -0.249315,-0.24932 v 0.49863 0.49863 l 0.249315,-0.24931 0.249314,-0.24932 z m -6.6068,-0.85053 v -0.35189 l -0.373965,-0.23113 -0.373965,-0.23113 v 0.58303 0.58302 h 0.373965 0.373965 z m 6.73145,-0.58303 V 125.5877 H 88.180513 87.99353 v 0.18698 0.187 h 0.186983 0.186982 z m 27.175105,-0.0623 -0.2493,-0.24931 -0.24931,0.24931 -0.24931,0.24932 h 0.49862 0.49862 z m 0.26736,-1.07901 0.22271,-0.58037 -0.36968,0.22847 -0.36969,0.22848 v 0.3519 0.3519 h 0.14697 0.14697 z m -0.51666,-0.72851 v -0.18698 h -0.18699 -0.18698 v 0.18698 0.18698 h 0.18698 0.18699 z m 1.86985,-7.10543 v -0.18698 h -0.18699 -0.18698 v 0.18698 0.187 h 0.18698 0.18699 z m 1.49587,-2.99174 v -0.18699 h -0.18699 -0.18697 v 0.18699 0.18698 h 0.18697 0.18699 z M 82.383989,110.8159 v -0.18698 h -0.186983 -0.186981 v 0.18698 0.18698 h 0.186981 0.186983 z m 38.892831,-9.72321 v -0.18698 h -0.18699 -0.187 v 0.18698 0.187 h 0.187 0.18699 z m 0.37396,-12.340991 v -0.186983 h -0.18699 -0.18697 v 0.186983 0.186996 h 0.18697 0.18699 z m 38.40037,-4.370758 -0.19647,-0.49084 -0.0297,0.716778 -0.0297,0.716777 0.226,-0.225936 0.22586,-0.225951 z m 21.06077,-2.770417 v -0.222741 l -0.77738,-1.091788 -0.77752,-1.091788 -1.07379,-0.555323 -1.07392,-0.555307 h -2.65837 -2.65838 l 0.21555,0.348806 0.21555,0.34882 2.14374,0.440989 2.1439,0.441004 0.74784,0.410559 0.74798,0.410557 0.40722,-0.08099 0.4072,-0.08099 0.67916,0.750488 0.67914,0.750488 h 0.31604 0.31604 z m 7.97796,133.854496 0.24932,-0.24932 0.24934,0.24932 0.24933,0.24931 h -0.49867 -0.49865 z m 16.25994,-0.005 0.49088,-0.19642 0.22586,0.22595 0.226,0.22593 -0.71688,-0.0296 -0.71676,-0.0296 z m -1.8933,-0.36618 0.46756,-0.18862 0.46743,0.18862 0.46741,0.18862 h -0.93484 -0.93497 z m -21.41978,-0.5166 -0.22107,-0.35764 h 0.77004 0.77004 v 0.14699 0.14697 l -0.54899,0.21066 -0.54897,0.21066 z m 9.17229,-0.35764 v -0.37396 l 0.65456,0.005 0.65441,0.005 0.561,0.36252 0.56084,0.36251 -1.2154,0.005 -1.21541,0.005 z m -13.06813,-0.90989 -0.4448,-0.53592 0.62897,-0.95995 0.62897,-0.95996 0.2376,-0.0376 0.23746,-0.0376 2.29513,-0.14356 2.29527,-0.14356 0.20126,0.7698 0.20142,0.7698 0.84904,0.22207 0.84918,0.22207 -0.7279,0.28485 -0.72792,0.28485 -1.41555,0.0263 -1.41555,0.0263 0.37399,-0.69878 0.374,-0.69877 -0.1788,-0.1788 -0.1788,-0.1788 -1.30388,0.40813 -1.30389,0.40811 v 0.28248 0.28245 h 0.56085 0.56099 v 0.56095 0.56096 h -1.07619 -1.07604 z m 5.75986,-0.93411 0.21512,-0.34812 -0.43788,-0.27061 -0.43788,-0.2706 0.24707,0.3998 0.24721,0.39981 -0.46982,0.1894 -0.46983,0.1894 0.44537,0.0296 0.44538,0.0296 z m 62.06842,1.13202 -0.16056,-0.1606 v -0.49863 -0.49864 h 1.86982 1.86982 v 0.52331 0.52329 l -1.70911,0.13597 -1.70927,0.13598 z m 10.4352,0.0888 0.24933,-0.24932 0.24932,0.24932 0.24933,0.2493 h -0.49865 -0.49867 z m -105.31507,-4.35035 -0.64071,-4.18863 -0.89894,-5.79652 -0.89894,-5.79653 0.61739,-0.70885 0.61739,-0.70887 -0.84636,0.44419 -0.84651,0.4442 -0.64947,-0.37842 -0.64946,-0.3784 0.60861,-0.0107 0.60876,-0.0107 0.43788,-0.52764 0.43788,-0.52767 -0.39816,-0.24612 -0.39831,-0.24612 0.26884,-0.43505 0.26898,-0.43504 0.048,-0.66103 0.0481,-0.66102 h -0.23124 -0.23137 l 0.29356,-3.6462 0.29357,-3.64619 0.40608,-4.30065 0.40621,-4.30066 0.32382,-3.5527 0.32382,-3.55271 0.0184,-0.13711 0.0184,-0.13709 0.72735,0.19017 0.72721,0.19016 0.17568,-0.801 0.1757,-0.80101 -0.18191,2.24383 -0.18191,2.24381 -0.51618,4.14943 -0.51632,4.14942 -0.23972,3.32998 -0.23987,3.32996 0.35209,1.51286 0.35195,1.51287 -0.33173,0.89709 -0.33188,0.8971 0.37188,4.32148 0.37201,4.32149 0.44692,8.14001 0.44693,8.14003 -0.16226,0.16225 -0.16227,0.16228 z m 104.44256,4.03869 v -0.18698 h 0.18699 0.187 v 0.18698 0.18699 h -0.187 -0.18699 z m 2.43081,-0.18698 -0.23124,-0.37396 h 0.39604 0.39604 v 0.37396 0.37397 h -0.1648 -0.16494 z m -80.80962,-4.11367 0.21569,-4.30063 v -1.86985 -1.86985 l 0.34148,0.53968 0.34148,0.5397 0.94841,-0.43209 0.94827,-0.43211 0.23252,0.37626 0.23264,0.37624 -0.47193,0.56862 -0.47195,0.56862 -0.86912,-0.21815 -0.86925,-0.21816 v 0.52229 0.52228 l 0.56098,0.46555 0.56099,0.46556 v 0.31644 0.31644 l -0.49951,-0.19168 -0.49964,-0.19169 v 2.35374 2.35375 l 0.15887,-0.65444 0.15887,-0.65444 0.814,-0.005 0.81398,-0.005 0.5275,-0.33392 0.52749,-0.33392 0.68791,0.4296 0.68792,0.42962 0.78869,-0.49251 0.78855,-0.49251 -0.15647,0.46932 -0.15632,0.46932 -0.63096,0.39796 -0.63095,0.39796 -0.74912,-0.4679 -0.74925,-0.46791 v 0.35115 0.35112 l -0.65443,0.1615 -0.65454,0.16154 0.84141,-0.0837 0.84155,-0.0836 v 0.32211 0.32209 h -0.93075 -0.9306 l -0.75223,0.64408 -0.75222,0.64406 v 0.57133 0.57133 l -0.39872,0.56096 -0.39874,0.56096 z m 75.38701,3.74683 v -0.3811 h 1.18416 1.18432 l -0.15576,0.13442 -0.15591,0.13441 -1.02841,0.24672 -1.0284,0.24671 z m -10.54121,-0.26259 0.49074,-0.19641 0.22602,0.22594 0.22585,0.22594 -0.71675,-0.0296 -0.71674,-0.0296 z m -93.04835,-0.49248 v -0.49863 l 0.24933,0.24932 0.24932,0.24931 -0.24932,0.24932 -0.24933,0.24931 z m 94.73895,0.12467 0.24933,-0.24931 0.24933,0.24931 0.24932,0.2493 h -0.49865 -0.49865 z m -95.11294,-1.43356 V 210.48 h 0.18699 0.187 v 0.18698 0.18698 h -0.187 -0.18699 z m 38.69696,-0.94934 -0.26246,-0.42472 0.4161,-0.41618 0.41626,-0.41618 0.38982,0.38982 0.38983,0.38982 -0.54361,0.45108 -0.54346,0.45107 z m 2.06572,-0.35954 v -0.49863 l 0.24934,0.24931 0.24933,0.24932 -0.24933,0.2493 -0.24934,0.24932 z m -41.13653,-0.18699 v -0.187 h 0.18685 0.187 v 0.187 0.18699 h -0.187 -0.18685 z m 41.51053,-1.86985 v -0.18699 h 0.187 0.18699 v 0.18699 0.18698 h -0.18699 -0.187 z m -8.60128,-0.56096 -0.56098,-0.36252 0.76664,-0.005 0.76665,-0.005 0.40649,-0.40656 0.40666,-0.40653 0.24112,0.39021 0.24113,0.39021 0.64255,-0.19648 0.6424,-0.19648 -0.93484,0.57354 -0.93499,0.57353 -0.56099,0.007 -0.56084,0.007 z m -1.74516,-3.24106 0.24934,-0.24932 0.24918,0.24932 0.24934,0.24931 h -0.49852 -0.49866 z m -50.61057,-6.29516 v -0.18698 h 0.187 0.18697 v 0.18698 0.18699 h -0.18697 -0.187 z m -7.72869,-0.81026 0.24932,-0.24931 0.2493,0.24931 0.24932,0.2493 h -0.49862 -0.49864 z m 6.2024,-0.49863 -0.15656,-0.93492 -1.03306,-0.0455 -1.03302,-0.0455 0.93954,0.16388 0.93955,0.16389 v 0.40077 0.40078 l -2.52429,-0.25163 -2.5243,-0.25163 -0.46746,-0.61944 -0.46747,-0.61941 v 0.63241 0.63243 h -1.82405 -1.82404 l -0.49379,-0.59496 -0.49377,-0.59497 1.85037,0.22054 1.85037,0.22055 -0.38248,-0.18936 -0.38245,-0.18936 -2.23532,-0.32553 -2.23532,-0.32554 1.58937,-0.0456 1.58936,-0.0456 v -0.37397 -0.37397 l -0.46745,-0.0383 -0.46747,-0.0383 1.3089,-0.30837 1.30888,-0.30837 3.5527,0.30404 3.55274,0.30402 0.28046,-0.16645 0.28048,-0.16643 v -0.3519 -0.3519 l -3.27222,-0.0675 -3.27224,-0.0675 1.86984,-0.13067 1.86985,-0.13053 0.56095,-0.22403 0.56096,-0.22402 0.83836,-0.0577 0.83838,-0.0577 0.53768,1.69508 0.53768,1.69507 0.25331,1.2622 0.25331,1.26218 -0.37082,-0.22917 -0.3708,-0.22917 -0.25413,-1.6947 -0.25413,-1.6947 -0.32766,0.20249 -0.32762,0.20248 0.38232,1.09671 0.38232,1.09672 -0.1546,0.67138 -0.15459,0.67138 z m -4.08326,-1.30889 v -0.18699 h -0.18697 -0.18699 v 0.18699 0.18698 h 0.18699 0.18697 z m -8.60128,0.56094 v -0.49862 l 0.24932,0.24932 0.24931,0.2493 -0.24931,0.24932 -0.24932,0.24932 z m -11.59306,-0.93492 v -0.56094 h 0.56096 0.56095 v 0.37396 0.37397 h 0.37398 0.37396 l -0.0934,-0.46745 -0.0934,-0.46747 1.12191,0.0997 1.12191,0.0997 0.93492,0.24389 0.93493,0.24392 -1.68287,0.28304 -1.68286,0.28303 -1.2154,0.0277 -1.21541,0.0277 z m -8.085653,-0.1136 0.221259,-0.35798 0.955264,-0.18263 0.955265,-0.1826 -0.137102,0.41844 -0.137102,0.41843 -1.039365,0.12213 -1.039377,0.12213 z m 15.315733,0.0513 0.24932,-0.24931 0.24931,0.24931 0.24931,0.2493 h -0.49862 -0.49863 z m 1.74519,0.0624 v -0.18699 h 0.18699 0.18699 v 0.18699 0.18698 h -0.18699 -0.18699 z m 1.62054,-0.0624 0.24931,-0.24931 0.24931,0.24931 0.24932,0.2493 h -0.49863 -0.49863 z m -25.694171,-1.04823 0.231747,-0.60393 0.355943,0.11853 0.355944,0.11853 -0.0085,0.36463 -0.0085,0.36463 -0.579392,0.12066 -0.579407,0.12067 z m 2.212396,0.20147 -0.215152,-0.34812 0.315167,-0.1948 0.315167,-0.19479 0.844452,0.22084 0.844452,0.22083 -0.499067,0.31636 -0.499081,0.31636 -0.445386,0.005 -0.4454,0.005 z m 10.018875,-0.27515 0.24931,-0.24932 0.24932,0.24932 0.24931,0.24931 h -0.49863 -0.498629 z m 11.84236,-0.49863 v -0.49862 l 0.24931,0.2493 0.24932,0.24932 -0.24932,0.24931 -0.24931,0.24932 z m 1.69884,0.0259 -0.21515,-0.34813 0.38007,-0.2349 0.38005,-0.23489 v 0.58301 0.58303 h -0.1649 -0.16492 z m 52.15209,-0.86727 7e-4,-0.28048 3.27223,0.056 3.27223,0.056 -0.93499,0.11987 -0.93484,0.11987 -2.33809,0.10466 -2.33795,0.10454 z m -62.70153,-0.15582 0.24931,-0.24932 0.24932,0.24932 0.24931,0.2493 h -0.49863 -0.49863 z m 2.77361,0.001 0.46745,-0.18863 0.46746,0.18863 0.46746,0.18863 h -0.93492 -0.93491 z m 3.08524,-0.12627 v -0.49862 l 0.24932,0.24932 0.24931,0.2493 -0.24931,0.24932 -0.24932,0.24931 z m 2.61778,0.18699 v -0.18699 h 0.18699 0.18698 v 0.18699 0.18699 h -0.18698 -0.18699 z m 32.8392,-0.0685 0.49083,-0.19642 0.22593,0.22594 0.22595,0.22593 -0.71677,-0.0295 -0.71678,-0.0296 z m -29.47347,-0.3055 v -0.187 h 0.18698 0.18699 v 0.187 0.18699 h -0.18699 -0.18698 z m 4.23831,-0.0624 0.24932,-0.2493 0.24931,0.2493 0.24932,0.24932 h -0.49863 -0.49862 z m 23.80939,0.0624 v -0.187 h 0.18699 0.18698 v 0.187 0.18699 h -0.18698 -0.18699 z m 29.54363,0 v -0.187 h 0.187 0.18698 v 0.187 0.18699 h -0.18698 -0.187 z m -49.64448,-0.84212 -1.96335,-0.13186 v -0.35759 -0.3576 l -0.74792,0.46709 -0.74795,0.46711 -0.66486,-0.41523 -0.66486,-0.41521 -1.2221,0.0961 -1.22211,0.0961 0.1328,-0.39862 0.13293,-0.39861 0.68027,-0.40068 0.68027,-0.40069 0.17006,0.46746 0.17007,0.46747 h 0.50432 0.50432 l 0.81421,-1.14345 0.8142,-1.14344 -0.27897,-0.25894 -0.27899,-0.25896 -0.16696,0.46747 -0.16694,0.46747 h -0.28278 -0.28278 l -0.42598,-0.93494 -0.42598,-0.93492 h 0.57445 0.57443 l -0.11507,-1.5603 -0.11507,-1.56031 -0.46746,-0.15371 -0.46746,-0.15372 v 0.56095 0.56096 l -0.46746,0.21815 -0.46747,0.21814 0.48291,0.2233 0.48288,0.22329 -0.85687,0.86339 -0.85685,0.86338 -0.56096,0.68327 -0.56096,0.68328 -0.1252,-0.92853 -0.1251,-0.92852 -0.3423,-0.35527 -0.3423,-0.35528 v -0.42599 -0.426 l 1.49159,-0.71461 1.49159,-0.7146 0.004,-0.28048 0.004,-0.28048 h -0.52979 -0.5298 l -0.15023,0.45072 -0.15025,0.45071 -1.69504,-0.64735 -1.69505,-0.64733 -0.61668,0.23662 -0.61668,0.23666 v -0.41398 -0.414 h 0.37396 0.37397 v -0.71676 -0.71677 l 0.46746,-0.18863 0.46746,-0.18864 -0.56094,-0.0275 -0.56097,-0.0275 -1.40237,0.38945 -1.40239,0.38948 v 0.53163 0.53165 l -0.56096,-0.21526 -0.56095,-0.21526 v 0.94376 0.94378 l 0.46747,0.17437 0.46746,0.17437 -0.84144,0.87482 -0.84143,0.87482 v -0.43501 -0.43499 l 0.37396,-0.23113 0.37398,-0.23112 v -0.35189 -0.35191 h -0.6908 -0.69078 l -0.43309,0.84143 -0.43309,0.84142 0.22618,-0.87932 0.22619,-0.87932 -1.06564,0.16692 -1.06565,0.16692 0.46746,-0.15645 0.46746,-0.15644 v -0.54528 -0.54527 l 0.56096,-0.21525 0.56095,-0.21527 v -0.87284 -0.87284 l -0.38007,-0.23489 -0.38007,-0.23489 0.21517,-0.34814 0.21515,-0.34813 h 0.30828 0.30828 l 0.20838,0.79687 0.20839,0.79686 0.65136,-0.65134 0.65135,-0.65136 0.4412,0.6034 0.44122,0.60337 1.12068,-0.22412 1.12066,-0.22415 -0.0407,-0.80524 -0.0407,-0.80525 h -0.56096 -0.56095 l -0.001,0.71732 -10e-4,0.71729 -0.46587,0.1553 -0.46588,0.15529 -0.0431,-0.6856 -0.0431,-0.68561 0.0818,-0.7447 0.0818,-0.74469 0.68001,-0.95499 0.68,-0.95497 -0.11152,-2.04004 -0.11152,-2.04001 0.35375,-0.67859 0.35377,-0.6786 0.51097,0.42408 0.51097,0.42407 0.77184,-0.4131 0.77185,-0.41306 0.74793,0.40028 0.74794,0.40028 0.015,0.4543 0.015,0.45431 0.55851,-1.02956 0.55854,-1.02957 -0.33598,-0.6533 -0.33598,-0.6533 0.16762,-0.46746 0.16762,-0.46745 h -0.25395 -0.25393 l -0.99263,0.496 -0.99262,0.49601 -1.16967,0.58226 -1.16966,0.58225 -0.59194,-0.69135 -0.59194,-0.69133 0.36531,-0.22579 0.36532,-0.22577 -0.18725,-0.30299 -0.18727,-0.30298 -0.74202,-0.19404 -0.74204,-0.19406 0.14925,0.99034 0.14923,0.99034 0.16387,1.30888 0.16387,1.3089 -0.15391,-0.75032 -0.1539,-0.75031 -1.10587,-0.63468 -1.10585,-0.63467 0.006,-0.29788 0.006,-0.29786 0.27476,-0.4204 0.27474,-0.42042 1.30889,-0.81496 1.3089,-0.81497 -0.71344,0.11347 -0.71344,0.11346 -0.259,-0.94001 -0.25898,-0.94001 0.0753,-0.74284 0.0753,-0.74286 0.28189,-1.38964 0.28189,-1.38962 0.67691,-0.21484 0.67692,-0.21484 1.06021,0.20432 1.06023,0.20432 -0.48309,-0.22558 -0.48306,-0.2256 0.43538,-0.52458 0.43536,-0.52459 h 0.69353 0.69352 l 0.61258,-0.93493 0.6126,-0.93491 h 0.57539 0.57537 l 1.43843,-1.55811 1.43844,-1.5581 v -0.51046 -0.51048 l 0.55506,-0.213 0.55507,-0.21298 1.68733,-2.36459 1.68734,-2.36459 1.59078,-3.30382 1.59079,-3.30383 0.63091,-1.49276 0.63092,-1.49275 1.7064,-4.01674 1.70638,-4.01674 v -0.19042 -0.19041 h -0.91285 -0.91284 l -0.19775,-0.31995 -0.19773,-0.31994 0.9236,0.17655 0.92361,0.17657 0.0443,-0.69805 0.0443,-0.69804 -0.0399,-0.26702 -0.0399,-0.26701 0.61782,0.23707 0.61781,0.23707 -0.26857,-0.43455 -0.26858,-0.43456 0.38286,-0.65742 0.38282,-0.6574 0.0107,4.40904 0.0107,4.40905 0.7206,1.41249 0.72061,1.41251 0.4948,0.40745 0.4948,0.40744 1.77635,0.26444 1.77636,0.26445 v 1.23619 1.2362 l -2.32838,0.0107 -2.32834,0.0107 -0.49252,0.67355 -0.49251,0.67356 h -0.4202 -0.42019 l -0.15313,0.56095 -0.15313,0.56096 0.43772,-0.56096 0.43772,-0.56095 -0.2743,0.74792 -0.2743,0.74795 -1.04634,3.03318 -1.04632,3.03318 -0.7898,4.07224 -0.78981,4.07224 -0.57683,12.15401 -0.5768,12.15399 0.20212,3.59046 0.20214,3.59044 -0.44843,0.48459 -0.44843,0.48459 0.4251,-0.23774 0.42509,-0.23772 0.39495,0.47588 0.39496,0.4759 -0.25908,0.39834 -0.2591,0.39836 -0.56096,-0.003 -0.56096,-0.003 -0.74792,0.17113 -0.74794,0.17114 z m 4.39414,-1.02773 v -0.18697 h -0.18698 -0.18699 v 0.18697 0.18699 h 0.18699 0.18698 z m -6.35749,-0.56096 v -0.37396 l 0.65447,-0.0107 0.65444,-0.0107 -0.65966,-0.38411 -0.65966,-0.38409 -0.53794,0.53793 -0.53794,0.53793 0.2315,0.23151 0.23151,0.23151 h 0.31165 0.31163 z m 5.11093,-0.62328 -0.24932,-0.24931 -0.2493,0.24931 -0.24932,0.24932 h 0.49862 0.49863 z m 0.7541,-1.31668 -0.19643,-0.49084 -0.0296,0.71679 -0.0296,0.71677 0.22595,-0.22593 0.22593,-0.22596 z m -1.37739,0.0701 v -0.37397 h -0.37397 -0.37396 v 0.37397 0.37398 h 0.37396 0.37397 z m -4.11365,-1.68286 v -0.18699 h -0.18699 -0.187 v 0.18699 0.18698 h 0.187 0.18699 z m -5.44678,-0.97411 -0.2069,-0.33479 h -0.35191 -0.3519 v 0.54923 0.54921 l 0.55881,-0.21444 0.5588,-0.21442 z m 9.9344,0.0392 v -0.37397 h -0.16492 -0.16492 l -0.23112,0.37397 -0.23112,0.37397 h 0.39604 0.39604 z m -4.11366,-1.68287 v -0.18697 h -0.18699 -0.18697 v 0.18697 0.18699 h 0.18697 0.18699 z m 3.989,-0.81025 -0.24931,-0.24932 v 0.49861 0.49864 l 0.24931,-0.24932 0.24932,-0.24932 z m -4.73695,-0.31165 v -0.18698 h -0.18697 -0.18699 v 0.18698 0.18698 h 0.18699 0.18697 z m -5.84827,-1.12191 0.21527,-0.56095 -0.21527,-0.56096 -0.21525,-0.56094 h -0.37976 -0.37974 l 0.43792,0.52765 0.43792,0.52765 -0.39212,0.24236 -0.39215,0.24235 v 0.35191 0.35188 h 0.33397 0.33396 z m 5.84827,-0.74365 v -0.55668 l -0.64405,-0.75222 -0.64407,-0.75221 h -0.29085 -0.29087 v 0.76372 0.76372 l 0.46747,0.53095 0.46746,0.53094 0.46747,0.0143 0.46744,0.0143 z m 4.73695,-0.0665 -0.24931,-0.24932 v 0.49863 0.49861 l 0.24931,-0.2493 0.24932,-0.24931 z m -13.33823,-1.43356 v -0.18698 h -0.18699 -0.18699 v 0.18698 0.18699 h 0.18699 0.18699 z m 5.80661,-1.66653 -0.22102,-0.35764 -0.54899,0.21068 -0.54897,0.21065 v 0.14698 0.14697 h 0.77001 0.77 z m -6.28186,-0.24227 -0.22595,-0.22594 -0.49083,0.19641 -0.49084,0.19643 0.71678,0.0296 0.71677,0.0296 z m 4.21493,0.0389 v -0.18698 h -0.18697 -0.18699 v 0.18698 0.187 h 0.18699 0.18697 z m 6.23283,-0.0623 -0.24932,-0.24932 -0.2493,0.24932 -0.24932,0.24931 h 0.49862 0.49864 z m -2.61779,-0.74795 -0.24931,-0.24932 -0.24932,0.24932 -0.2493,0.24931 h 0.49862 0.49863 z m -5.92623,-1.57458 1.53139,0.11053 0.26525,-0.26524 0.26524,-0.26524 h -0.43629 -0.4363 v -0.41399 -0.41397 l 0.53129,0.20388 0.53129,0.20387 0.96459,-0.89395 0.96458,-0.89395 v -0.19224 -0.19222 l -1.36897,0.80772 -1.36897,0.80772 -1.24881,-0.0841 -1.24882,-0.0841 v 0.21076 0.21075 l 0.84143,0.37058 0.84144,0.37059 -1.54345,-0.15391 -1.54343,-0.1539 0.19293,0.7378 0.19295,0.73781 0.27063,-0.43789 0.27063,-0.4379 z m 3.80707,-0.0459 v -0.37397 h -0.56095 -0.56096 v 0.37397 0.37397 h 0.56096 0.56095 z m 2.24381,-0.37397 v -0.37396 h -0.37396 -0.37397 v 0.37396 0.37397 h 0.37397 0.37396 z m 0.37399,-3.7397 V 168.221 h -0.37399 -0.37396 v 1.12191 1.12191 h -0.37397 -0.37397 v 0.37398 0.37396 h 0.74794 0.74795 z m -8.35199,0.8726 -0.24932,-0.24932 -0.24931,0.24932 -0.24932,0.24932 h 0.49863 0.49863 z m 2.26719,0.0233 -0.22595,-0.22594 -0.49082,0.19642 -0.49085,0.19641 0.71678,0.0296 0.71678,0.0296 z m 3.84097,-0.70898 v -0.56096 l 0.028,-0.27112 0.0281,-0.27113 -0.40203,-0.13399 -0.40201,-0.134 v 0.96608 0.9661 h 0.37396 0.37397 z m 3.98902,0.31163 -0.24932,-0.24931 -0.24932,0.24931 -0.24931,0.24932 h 0.49863 0.49862 z m 1.86984,-1.12191 -0.24931,-0.2493 v 0.49862 0.49863 l 0.24931,-0.24932 0.24932,-0.24931 z m -1.57795,-0.53056 -0.21892,-0.35422 -0.35424,0.21892 -0.35421,0.21893 0.21892,0.35423 0.21893,0.35422 0.35421,-0.21893 0.35424,-0.21892 z m 1.57795,-0.9653 -0.24931,-0.24932 v 0.49862 0.49864 l 0.24931,-0.24932 0.24932,-0.24932 z m -15.92798,-0.60147 -0.028,-0.27113 -0.27112,-0.0281 -0.27114,-0.028 -0.14958,0.44876 -0.14959,0.44876 0.44877,-0.14957 0.44876,-0.1496 z m 4.08561,-1.767 v -0.37399 h -0.35189 -0.3519 l -0.23112,0.37399 -0.23114,0.37396 h 0.58302 0.58303 z m 15.20646,-1.21541 -0.18864,-0.46746 v 0.93492 0.93492 l 0.18864,-0.46745 0.18861,-0.46747 z m -14.58317,0.21814 -0.24931,-0.2493 -0.24932,0.2493 -0.24931,0.24932 h 0.49863 0.49863 z m -3.61504,-1.05957 v -0.18697 h -0.18698 -0.187 v 0.18697 0.18699 h 0.187 0.18698 z m -0.37398,-0.74795 v -0.18697 h -0.18698 -0.18698 v 0.18697 0.18699 h 0.18698 0.18698 z m 0.24768,-1.77634 -0.18862,-0.46747 v 0.93493 0.93492 l 0.18862,-0.46746 0.18863,-0.46746 z m 18.4508,0.65444 v -0.18698 h -0.18698 -0.18699 v 0.18698 0.18698 h 0.18699 0.18698 z m -12.37301,-5.23558 0.0205,-0.37396 -0.36252,0.56096 -0.36251,0.56095 0.0205,0.56096 0.0205,0.56095 0.3214,-0.74795 0.3214,-0.74792 z m 12.74697,-0.74793 v -0.18697 h -0.18698 -0.18698 v 0.18697 0.18699 h 0.18698 0.18698 z m -9.7232,-1.12191 v -0.18697 h -0.18697 -0.187 v 0.18697 0.18699 h 0.187 0.18697 z m 10.09718,-0.74794 v -0.18698 h -0.18698 -0.187 v 0.18698 0.18698 h 0.187 0.18698 z m -0.37398,-1.12191 v -0.18697 h -0.18698 -0.18698 v 0.18697 0.18699 h 0.18698 0.18698 z m 0.74795,0 v -0.18697 h -0.18699 -0.18698 v 0.18697 0.18699 h 0.18698 0.18699 z m -8.60131,-0.74793 v -0.18699 h -0.18698 -0.18698 v 0.18699 0.18698 h 0.18698 0.18698 z m 7.3609,-1.00504 -0.19643,-0.49084 -0.0295,0.71677 -0.0296,0.71679 0.22594,-0.22596 0.22594,-0.22594 z M 131,141.48223 v -0.18698 h -0.18697 -0.18699 v 0.18698 0.18699 H 130.81303 131 Z m -4.11365,-1.86985 v -0.18697 h -0.18697 -0.187 v 0.18697 0.18699 h 0.187 0.18697 z m 7.35473,-1.18424 -0.24932,-0.24931 -0.2493,0.24931 -0.24932,0.24932 h 0.49862 0.49863 z m -6.23282,-1.05957 v -0.18699 h -0.18698 -0.187 v 0.18699 0.18698 h 0.187 0.18698 z m 9.34924,0 v -0.18699 h -0.18699 -0.18699 v 0.18699 0.18698 h 0.18699 0.18699 z m -7.10542,-3.36572 v -0.18699 h -0.18698 -0.187 v 0.18699 0.18697 h 0.187 0.18698 z m 1.49587,-0.74795 v -0.18699 h -0.18699 -0.18697 v 0.18699 0.18699 h 0.18697 0.18699 z m -1.62053,-1.55821 -0.24932,-0.24931 v 0.49863 0.49862 l 0.24932,-0.24931 0.2493,-0.24931 z m 2.04345,58.55892 -2.38184,-0.30876 -0.23595,-0.24087 -0.23593,-0.24087 2.05684,0.2435 2.05683,0.24348 1.4141,0.11586 1.41411,0.11587 0.2376,0.2376 0.23759,0.23759 -1.09075,-0.0473 -1.09075,-0.0473 z m -18.37345,-1.09227 v -0.37399 h 0.56096 0.56095 v 0.37399 0.37396 h -0.56095 -0.56096 z m 21.69022,-0.37399 v -0.49861 l 0.24931,0.24932 0.24932,0.24929 -0.24932,0.24932 -0.24931,0.24931 z m -23.93404,-0.18697 v -0.18699 h 0.18699 0.18698 v 0.18699 0.18697 h -0.18698 -0.18699 z m 3.36573,-0.77001 v -0.58303 l 0.37397,0.23112 0.37397,0.23113 v 0.3519 0.3519 h -0.37397 -0.37397 z m -6.30655,-1.38031 -0.0509,-1.40239 0.84145,0.005 0.84142,0.005 0.84143,0.22548 0.84143,0.22549 v 0.33036 0.33035 h -1.46987 -1.46986 l -0.16207,0.84143 -0.16206,0.84144 z m 29.11868,0.46745 v -0.74793 h 1.49589 1.49587 v 0.74793 0.74794 h -1.49587 -1.49589 z m -20.56831,-0.18697 v -0.56096 h 0.37396 0.37397 v 0.56096 0.56095 h -0.37397 -0.37396 z m 18.32449,0.17492 v -0.38601 l -0.84142,-0.33822 -0.84143,-0.33821 1.0284,-0.0237 1.02843,-0.0237 v 0.74794 0.74793 h -0.18698 -0.187 z m 7.10543,0.19904 v -0.18699 h 0.18699 0.18697 v 0.18699 0.18699 h -0.18697 -0.18699 z m -32.53534,-3.55271 v -0.37397 h 0.56095 0.56096 v 0.37397 0.37396 h -0.56096 -0.56095 z m -18.947789,-0.99725 0.249314,-0.24932 0.249315,0.24932 0.249313,0.24931 h -0.498628 -0.498629 z m 20.817629,-0.12467 v -0.37398 h 0.58302 0.58303 l -0.23113,0.37398 -0.23112,0.37396 h -0.3519 -0.3519 z m -39.240502,-0.84142 -0.02629,-1.02843 h 0.373979 0.373965 l -0.02629,0.28048 -0.02629,0.28048 -0.3214,0.74793 -0.321398,0.74795 z m 26.89951,0.65444 v -0.187 h 0.186996 0.186983 v 0.187 0.18698 h -0.186983 -0.186996 z m 9.349242,-0.37398 v -0.18698 h 0.18698 0.18699 v 0.18698 0.18698 h -0.18699 -0.18698 z m 49.67604,-0.10333 -0.99675,-0.1272 -0.20693,-0.53916 -0.20679,-0.53917 h 4.49796 4.49795 l -0.21187,0.34289 -0.21201,0.34289 -2.64496,-0.18625 -2.64508,-0.18624 -0.43732,0.50977 -0.43746,0.5098 z m -92.059237,-1.08093 -0.249315,-0.24932 v -0.49863 -0.49863 h 0.330347 0.33036 l 0.195591,0.74795 0.195589,0.74792 h -0.276636 -0.276621 z m 3.116409,0.0624 v -0.18699 h 0.186983 0.186983 v 0.18699 0.18697 h -0.186983 -0.186983 z m 6.357471,-0.18699 v -0.49863 l 0.249315,0.24931 0.249314,0.24932 -0.249314,0.24932 -0.249315,0.24931 z m 78.463517,-0.25547 0.49074,-0.19641 0.226,0.22595 0.22587,0.22593 -0.71675,-0.0296 -0.71674,-0.0296 z m -86.503857,-0.49246 -0.231123,-0.37398 h 0.792084 0.792071 l -0.231124,0.37398 -0.231123,0.37397 h -0.329824 -0.329837 z m 2.056835,0 v -0.37398 h 0.396042 0.396043 l -0.231124,0.37398 -0.231124,0.37397 h -0.164919 -0.164918 z m -5.983507,-0.187 v -0.18698 h 0.186983 0.186982 v 0.18698 0.187 h -0.186982 -0.186983 z m 23.560075,0 v -0.18698 h 0.186981 0.186983 v 0.18698 0.187 h -0.186983 -0.186981 z m 2.61778,0.04 v -0.14696 l 0.580383,-0.22272 0.580381,-0.22271 -0.22848,0.36968 -0.228481,0.36969 h -0.351902 -0.351901 z m -6.122219,-1.48914 0.138658,-1.07516 v -0.32722 -0.32722 h 0.934925 0.934912 v 0.5702 0.57022 l -0.903407,0.34346 -0.903406,0.34348 -0.170234,0.48871 -0.170218,0.48869 z m 2.008551,0.88818 v -0.49863 l 0.249315,0.24932 0.249314,0.24931 -0.249314,0.24932 -0.249315,0.24932 z m 7.479393,0.18698 v -0.18698 h 0.186983 0.186983 v 0.18698 0.18699 h -0.186983 -0.186983 z m -5.535717,-1.18497 0.140353,-0.68488 -0.574558,-0.45556 -0.574574,-0.45557 h 0.747944 0.747944 l 0.661116,0.50168 0.661118,0.50168 -0.97487,0.63876 -0.974884,0.63877 z m 8.901443,-0.31089 v -0.56096 h 0.606741 0.606756 l -0.465555,0.56096 -0.465554,0.56094 H 97.109983 96.968782 Z M 63.685512,177.5703 v -0.49863 l 0.249315,0.24931 0.249315,0.24932 -0.249315,0.24929 -0.249315,0.24932 z m 27.860725,0 -0.231123,-0.37397 h 1.166049 1.16605 l -0.231124,0.37397 -0.231124,0.37396 h -0.703802 -0.703802 z m 7.847662,-0.009 -0.277102,-0.44838 0.515364,-0.32016 0.515379,-0.32018 0.13555,0.3947 0.13554,0.39471 -0.37382,0.37384 -0.373837,0.37383 z m -16.635945,-0.55174 v -0.56094 h 0.373979 0.373964 v 0.56094 0.56096 h -0.373964 -0.373979 z m 23.934056,-0.18698 v -0.37396 h 0.37396 0.37397 v 0.37396 0.37397 h -0.37397 -0.37396 z m -5.11092,-0.24931 0.2493,-0.24932 0.24932,0.24932 0.24931,0.24931 h -0.49863 -0.49861 z m -34.89022,-0.66923 -0.451958,-0.54457 0.255082,-0.41273 0.255081,-0.41274 0.513159,0.67683 0.51316,0.67683 0.01133,0.28048 0.01133,0.28048 h -0.32817 -0.328183 z m 22.199324,-0.14672 -0.632679,-0.7389 -0.505964,0.19414 -0.505965,0.19416 v -0.33142 -0.33142 l 0.793768,-0.55002 0.793767,-0.55002 0.491278,-0.47033 0.491294,-0.47033 0.23453,0.37948 0.23453,0.37948 -0.58465,0.22436 -0.584665,0.22434 v 0.35996 0.35998 l 0.841428,-0.1196 0.841441,-0.11947 -0.04268,-1.40239 -0.04268,-1.40238 h 0.521852 0.521852 l 0.217088,0.56572 0.217088,0.56572 -0.496197,0.59788 -0.496184,0.59786 -0.01267,1.17372 -0.01267,1.17371 -0.824692,0.11733 -0.824707,0.11734 z m 1.970432,-0.67993 -0.249315,-0.24931 v 0.49863 0.49861 l 0.249315,-0.24932 0.249315,-0.24929 z m 1.620537,1.18423 v -0.18698 h 0.186983 0.186981 v 0.18698 0.187 h -0.186981 -0.186983 z m 5.983506,-0.12907 v -0.31601 l 0.747944,-0.67688 0.747944,-0.67688 v 0.40136 0.40134 l -0.226998,0.59154 -0.226996,0.59154 h -0.520946 -0.520948 z m 7.252131,-0.64629 -0.24153,-0.96232 0.34799,-0.34799 0.34798,-0.34799 0.6817,0.49848 0.6817,0.49846 -0.43448,0.81184 -0.43447,0.81182 h -0.35368 -0.3537 z m -4.63434,0.21436 v -0.37396 h 0.37397 0.37396 v 0.37396 0.37396 h -0.37396 -0.37397 z m -4.487629,-0.3519 v -0.3519 l 0.373966,-0.23112 0.373964,-0.23114 v 0.58303 0.58303 h -0.373964 -0.373966 z m 6.416529,-0.39605 v -0.93492 l 0.18862,0.46747 0.18863,0.46745 -0.18863,0.46747 -0.18862,0.46746 z m -9.034323,-0.18697 v -0.18699 h 0.186996 0.186982 v 0.18699 0.18697 h -0.186982 -0.186996 z m -1.495874,-0.37504 v -0.18698 h 0.186983 0.186981 v 0.18698 0.18698 h -0.186981 -0.186983 z m 5.235576,-0.56096 v -0.49863 l 0.249315,0.24932 0.249315,0.24931 -0.249315,0.24932 -0.249315,0.2493 z m 10.689151,0.0501 -0.29291,-0.47392 0.22444,-0.22443 0.22442,-0.22442 0.22595,0.22593 0.22594,0.22595 -0.15747,0.47241 -0.15747,0.47241 z m -7.88439,-0.43605 -0.747926,-0.3095 0.667606,-0.0263 0.6676,-0.0263 0.82827,-0.52287 0.82827,-0.52286 0.71989,0.70985 0.71987,0.70985 h -0.62639 -0.62639 v -0.37397 -0.37397 h -0.42623 -0.42623 l -0.4152,0.52277 -0.41519,0.52279 z m -6.907814,-0.91023 -0.475604,-0.57308 0.455505,-1.09967 0.455491,-1.09968 -0.223731,-0.362 -0.223717,-0.362 0.380833,-0.87597 0.380835,-0.87597 -0.138233,1.96334 -0.138234,1.96335 h 0.532071 0.532071 l -0.119574,0.81213 -0.11944,0.81214 -0.411336,0.13526 -0.411336,0.13526 z m 13.171804,-1.5472 -0.84143,-0.95993 v -0.3422 -0.3422 h 0.37737 0.37737 l 1.11374,1.06434 1.11374,1.06435 -0.24454,0.24455 -0.24455,0.24454 -0.40513,-0.007 -0.40513,-0.007 z m -43.255935,0.27571 -0.292904,-0.47392 0.224437,-0.22444 0.224424,-0.22443 0.225951,0.22593 0.225937,0.22594 -0.15747,0.47242 -0.15747,0.47242 z m 32.192683,-0.67347 -0.249315,-0.24932 v -1.43356 -1.43353 h 0.373964 0.373966 v 1.53588 1.53589 l 0.580381,-0.22272 0.580381,-0.22271 -0.22848,0.36968 -0.22848,0.3697 h -0.476552 -0.47655 z m 7.138542,-0.68561 0.17872,-0.93494 h 0.33037 0.33038 v 0.93494 0.93492 h -0.50909 -0.5091 z m -11.65973,-0.2594 -0.574601,-0.82035 0.61135,-0.67553 0.61135,-0.67552 h -0.494262 -0.494261 l 0.221131,-0.22114 0.22113,-0.22113 0.776127,0.24633 0.776113,0.24632 v 0.34878 0.34877 h -0.560946 -0.560962 v 0.74793 0.74795 h 0.560962 0.560946 v 0.37396 0.37397 h -0.539745 -0.539745 z m 13.99507,0.63336 v -0.18699 h 0.187 0.18698 v 0.18699 0.18698 h -0.18698 -0.187 z m -3.73969,-2.39079 v -0.41397 h 0.76879 0.76879 l -0.97949,-0.84254 -0.97949,-0.84253 0.25071,-0.65335 0.25072,-0.65334 h 0.52093 0.52095 l 0.0373,-0.46747 0.0373,-0.46747 0.2901,0.93494 0.2901,0.93492 -0.16822,0.79074 -0.16821,0.79075 0.58878,0.22593 0.58876,0.22594 v -0.51807 -0.51804 l -0.46745,-0.18863 -0.46746,-0.18862 0.65445,-0.0296 0.65444,-0.0296 -0.006,0.65445 -0.006,0.65444 -0.36253,0.56096 -0.36252,0.56095 -0.006,-0.50747 -0.006,-0.50747 -0.56094,0.22699 -0.56096,0.227 -0.56095,0.227 -0.56096,0.227 z m 13.08893,-0.22699 v -0.18698 h 0.18699 0.18698 v 0.18698 0.18698 h -0.18698 -0.18699 z m -9.06801,-0.94366 0.64789,-0.75667 0.14197,0.42595 0.14198,0.42596 -0.51304,0.32498 -0.51303,0.32499 -0.27682,0.005 -0.27682,0.005 z m -12.622223,-0.36523 v -0.37399 h 0.560962 0.560948 v 0.37399 0.37396 h -0.560948 -0.560962 z m 5.609542,-0.74795 v -0.37396 h 0.373978 0.373966 v 0.37396 0.37396 h -0.373966 -0.373978 z m 6.544471,0 0.23112,-0.37396 h 0.16492 0.16492 v 0.37396 0.37396 h -0.39604 -0.39605 z m -8.040343,-0.93492 v -0.18698 h 0.186981 0.186983 v 0.18698 0.18698 h -0.186983 -0.186981 z m 3.739693,-0.37397 v -0.18699 h 0.18699 0.18698 v 0.18699 0.18699 h -0.18698 -0.18699 z m -0.41841,-1.97509 -0.20343,-1.22715 0.34259,0.34259 0.34258,0.34258 -0.13922,0.88456 -0.13908,0.88456 z m 1.75832,0.34241 -0.29289,-0.47392 0.22442,-0.22443 0.22444,-0.22444 0.22594,0.22595 0.22594,0.22595 -0.15747,0.47241 -0.15747,0.4724 z m 2.39979,-0.0501 v -0.49863 l 0.24931,0.24931 0.24932,0.24932 -0.24932,0.24932 -0.24931,0.2493 z m -3.36,-1.46471 -0.006,-0.90376 0.24606,0.24607 0.24607,0.24606 0.50188,-0.41652 0.50186,-0.41652 v 0.8158 0.8158 l -0.41577,-0.25696 -0.41579,-0.25697 -0.32643,0.51539 -0.32643,0.51537 z m -0.3797,-1.90101 v -0.49864 l 0.24931,0.24932 0.24931,0.24932 -0.24931,0.2493 -0.24931,0.24932 z m 0.0237,-2.15032 -0.0237,-1.58938 h 0.74794 0.74794 v 0.53888 0.53888 l -0.40018,0.24734 -0.40017,0.24732 -0.32406,0.80316 -0.32405,0.80317 z m 6.33377,1.02333 v -0.37904 l 0.46746,-0.79173 0.46747,-0.79172 -0.44646,-0.16228 -0.44645,-0.1623 0.21182,-0.55198 0.21183,-0.552 0.50038,0.96449 0.50038,0.96451 -0.34998,0.92056 -0.34999,0.92054 h -0.38324 -0.38322 z m -4.70116,-3.16168 -0.60472,-0.92295 0.14534,-0.43604 0.14534,-0.43602 0.60771,0.6077 0.6077,0.60768 0.15573,-0.27712 0.15575,-0.27714 -0.17023,0.56096 -0.17024,0.56094 -0.0178,0.46747 -0.0178,0.46745 h -0.11604 -0.11604 z m 5.47863,-1.53903 0.0296,-0.71677 0.19642,0.49084 0.19641,0.49083 -0.22594,0.22594 -0.22593,0.22594 z m -4.89114,-0.3428 v -0.18698 h 0.187 0.18698 v 0.18698 0.18699 h -0.18698 -0.187 z m 0.74795,0 v -0.18698 h 0.18698 0.18698 v 0.18698 0.18699 h -0.18698 -0.18699 z m 15.19187,-3.97662 -0.23437,-1.17184 -1.30191,-1.22786 -1.30191,-1.22786 -1.35959,-0.44871 -1.35958,-0.44869 -1.63171,0.18392 -1.63174,0.1839 0.20226,-0.32725 0.20227,-0.32727 1.5673,10e-4 1.5673,0.001 1.35287,0.37579 1.35289,0.3758 1.23052,0.8375 1.23052,0.83754 0.72829,0.98348 0.7283,0.98348 -0.25164,0.79286 -0.25166,0.79288 h -0.30204 -0.30201 z m -12.76108,-1.07198 0.23113,-0.37396 h 0.18699 0.18699 l -0.23113,0.37396 -0.23113,0.37399 h -0.18699 -0.18698 z m 30.50803,-3.58386 0.0296,-0.71678 0.19642,0.49084 0.19642,0.49084 -0.22595,0.22594 -0.22595,0.22593 z m 0.15748,-1.27772 0.23112,-0.37398 h 0.18698 0.18698 l -0.23112,0.37398 -0.23112,0.37396 h -0.18699 -0.187 z m -3.80203,-0.62328 0.24931,-0.24932 0.2493,0.24932 0.24932,0.2493 h -0.49862 -0.49862 z m 5.29789,-1.24658 0.23112,-0.37397 h 0.18699 0.18699 l -0.23112,0.37397 -0.23114,0.37398 h -0.18697 -0.18699 z m 19.0944,-12.91385 -0.7258,-0.54906 h 0.39958 0.39972 l 0.46544,0.56097 0.46558,0.56094 -0.13852,-0.0113 -0.13993,-0.0113 z m 1.69046,-0.0192 0.0297,-0.71678 0.19633,0.49084 0.19647,0.49083 -0.22587,0.22593 -0.22601,0.22595 z m 3.11349,0.16037 -0.26685,-0.43175 0.4318,0.26683 0.43166,0.26684 v 0.16492 0.1649 h -0.16494 -0.1648 z m -9.84495,-0.53434 0.0297,-0.71678 0.19633,0.49083 0.19647,0.49084 -0.22587,0.22594 -0.22601,0.22594 z m 1.09231,0.21815 v -0.49863 l 0.24932,0.24932 0.24933,0.24931 -0.24933,0.2493 -0.24932,0.24932 z m 1.12197,0 v -0.49863 l 0.24934,0.24932 0.24932,0.24931 -0.24932,0.2493 -0.24934,0.24932 z m 5.98347,0.18698 v -0.18698 h 0.18699 0.187 v 0.18698 0.18699 h -0.187 -0.18699 z m 33.58713,-4.93007 0.4909,-0.19643 0.22586,0.22594 0.226,0.22595 -0.71674,-0.0296 -0.7169,-0.0295 z m -62.26304,-2.7363 v -2.4308 l 0.15083,1.2154 0.15083,1.2154 -0.15083,1.21541 -0.15083,1.21539 z m -0.11973,-9.53623 v -0.18698 h 0.18699 0.18697 v 0.18698 0.187 h -0.18697 -0.18699 z m 0.0213,-1.81351 -0.33404,-0.87858 -0.1412,-1.44967 -0.1412,-1.44967 -1.4788,-0.51689 -1.47881,-0.51689 -1.04041,-0.38393 -1.0404,-0.38393 0.128,-0.12805 0.128,-0.12806 2.98676,0.91725 2.98676,0.91723 -0.0177,2.43791 -0.0176,2.43789 -0.1028,0.001 -0.1028,0.001 z m 43.733,-0.0564 v -0.18698 h 0.187 0.187 v 0.18698 0.18698 h -0.187 -0.187 z m 1.12184,-0.37398 V 108.759 h 0.187 0.187 v 0.18698 0.187 h -0.187 -0.187 z m -1.74516,-0.43629 0.24934,-0.24932 0.24933,0.24932 0.24932,0.24931 h -0.49865 -0.49866 z m 6.73146,-2.24382 0.24933,-0.2493 0.24932,0.2493 0.24933,0.24931 h -0.49865 -0.49867 z m -27.45047,-2.21283 -0.49144,-0.5923 0.38996,-0.6231 0.38996,-0.62311 0.94375,-0.11378 0.94361,-0.11379 0.6072,0.60724 0.60721,0.60722 -0.38629,0.72197 -0.38643,0.72197 h -1.06289 -1.06304 z m 2.26983,-0.54135 v -0.75967 l -0.586,-0.2249 -0.58616,-0.22491 -0.39844,0.39849 -0.39844,0.39849 0.22486,0.58609 0.22488,0.58609 h 0.75972 0.75958 z m -14.48028,0.21202 -0.45651,-0.51923 0.45651,-0.16774 0.4565,-0.16775 -0.43488,-0.46292 -0.43486,-0.46293 -0.40656,0.25127 -0.40656,0.25126 v 0.72587 0.72586 h -0.37398 -0.37397 v -0.70214 -0.70215 l 0.55609,-0.46153 0.55611,-0.46151 0.89853,0.22551 0.89852,0.22553 0.21652,0.56417 0.2165,0.56418 -0.21527,0.56096 -0.21525,0.56095 -0.24047,-0.0143 -0.24047,-0.0143 z m 2.79381,0.28374 0.84143,-0.16206 v -0.30795 -0.30795 l -0.56095,-0.21526 -0.56097,-0.21525 v -0.38571 -0.38571 l 1.21541,0.0263 1.21544,0.0263 -0.74797,0.30754 -0.74795,0.30754 0.65444,0.26714 0.65448,0.26714 v 0.52095 0.52093 l -1.4024,-0.0509 -1.4024,-0.0509 z m 3.11148,-0.76449 -0.0268,-1.21541 h 0.374 0.37399 l -0.0268,0.46746 -0.0268,0.46747 -0.32142,0.74794 -0.32141,0.74793 z m 1.53824,0.0288 0.11867,-0.99958 0.49216,-0.16172 0.49229,-0.16174 0.2058,0.78734 0.20593,0.78734 h 0.28679 0.28664 l 0.19563,-0.74794 0.19561,-0.74794 h 0.59591 0.59604 v 1.12191 1.1219 h -0.374 -0.37399 l -0.0141,-0.65444 -0.0141,-0.65445 -0.57216,0.74795 -0.57216,0.74793 -0.53794,-0.72593 -0.53782,-0.72592 v 0.63244 0.63242 h -0.39872 -0.39886 z m -2.59293,-8.971295 -0.46743,-0.188623 v -0.71678 -0.716777 h 2.80481 2.80467 v 0.211576 0.211561 l -0.387,0.723351 -0.38713,0.723364 -1.95026,-0.02955 -1.9501,-0.02953 z m -7.19887,-9.640454 v -1.704933 l 1.02841,0.01133 1.02842,0.01133 -0.65444,0.381186 -0.65446,0.381174 v 1.081258 1.081258 l -0.37397,0.231124 -0.37396,0.231124 z m 3.73968,-1.980072 -2.4308,-0.138374 -0.35525,-0.354219 -0.35528,-0.354233 h 0.63576 0.63574 v -0.30653 -0.30653 l -0.93777,-0.815379 -0.93776,-0.815377 h -0.34907 -0.34906 l -0.26683,-0.431746 -0.26684,-0.431746 0.43175,0.266826 0.43176,0.266842 V 78.56394 77.868732 l 0.38756,-0.387563 0.38756,-0.387561 -0.30903,-2.587351 -0.30901,-2.587364 0.25278,-1.120043 0.2528,-1.120042 0.69663,-1.809767 0.69664,-1.809752 -0.93448,-0.757372 -0.93447,-0.757357 0.1324,-0.79641 0.1324,-0.796396 0.70551,-1.382925 0.70552,-1.382912 1.30088,-0.992241 1.30089,-0.99224 2.2886,-0.712298 2.28855,-0.712282 h 2.52467 2.52466 l 2.92283,0.747534 2.92283,0.747547 1.15717,0.673781 1.15717,0.673782 0.12014,0.822501 0.1188,0.822488 h -0.1887 -0.18869 l -1.04989,-0.399195 -1.05004,-0.399193 -3.18176,0.01512 -3.18191,0.01512 -1.68636,0.50752 -1.68623,0.507505 -0.43844,-0.146106 -0.4383,-0.146106 -1.12863,0.583675 -1.12869,0.583661 h -0.74443 -0.74444 l -0.22765,0.368339 -0.22764,0.368339 1.20326,-0.24065 1.20331,-0.240664 -0.28805,0.713752 -0.288,0.713754 -0.38356,1.060706 -0.38356,1.060707 0.56626,0.566276 0.56627,0.566261 3.87565,-0.402134 3.87576,-0.40212 2.61782,0.352282 2.6178,0.352283 0.42346,0.01267 0.42362,0.01267 0.23985,6.077005 0.23972,6.077005 0.0848,1.682869 0.0848,1.682855 -7.66644,0.02501 -7.66629,0.02501 z m -2.61777,-10.382982 v -0.186983 h -0.18699 -0.18699 v 0.186983 0.186981 h 0.18699 0.18699 z m 26.17788,4.487633 v -0.186983 h 0.187 0.18698 v 0.186983 0.186981 h -0.18698 -0.187 z"
       id="path163" />
  </g>
</svg>
